<?xml version="1.0" encoding="UTF-8"?>
<svg id="logo_guidelines" data-name="logo guidelines" xmlns="http://www.w3.org/2000/svg" xmlns:xlink="http://www.w3.org/1999/xlink" viewBox="0 0 191.44 382.13">
  <defs>
    <style>
      .cls-1 {
        fill: none;
      }

      .cls-2 {
        fill: #5e69d3;
      }

      .cls-3 {
        fill: #2ca3bb;
      }

      .cls-4 {
        fill: #e1f2ff;
      }

      .cls-5 {
        fill: #fff;
      }

      .cls-6 {
        fill: #60cad8;
      }

      .cls-7 {
        clip-path: url(#clippath);
      }
    </style>
    <clipPath id="clippath">
      <rect class="cls-1" y="-443.04" width="722.39" height="382.35"/>
    </clipPath>
  </defs>
  <g class="cls-7">
    <g>
      <path d="M5.74,67.37c.59.69,7.44-4.84,8.15-5.54,5.06-4.92,14.35-15.63,18.05-21.49,1.87-2.96,2.02-7.63,5.23-10.01l17.2.03c5.68-4.46,10.68-9.64,16.35-14.12,2.52-1.99,8.5-4.64,10.02-6.2,4.06-4.15-1.26-20.31,10.12-11.08,3.94,3.2.03,8.86-.71,13.4-.99,6.06-1.72,12.38-2.28,18.49l7.32-9.39c17.42-4.76,5.47,20.08,12.46,28.65,3.38.7,23.51-27.34,21.29-33.47,13.44.48,1.07,16.01,5.57,24.35,6.57-5.37,11.05-14.31,13.18-22.31,1.96-.23,5.04.93,6.18,2.5.63.87-.49,16.7-.02,20.23.19,1.45,2.49,9.43,4.96,7.69,2.74-4.88,14.13-37.87,12.18-40.56-6.07,1.72-20.91,8.66-23.31.01l25.36-6.59c1.47-1.25,2.29-13.26,1-15.73,2.3-.05,4.68-.27,6.86.74,5.33,2.47-.22,12.99,2.8,13.42,3.47-.63,7.68-2,11.13-2.08,2.66-.07,10.04,1.38,5.32,3.38-3.29,1.39-16.91,2.58-17.86,5.46.09,10.53-3.32,20.77-2.19,31.33.13,1.25,1.57,7.36,3.56,6.56,7.59-8.99,15.31-20.53,16.17-32.51,1.16-1.72,5.74-.55,7.96-1.16,5.47-1.49,20.23-23.27,21.52-29.18.63-2.89-.29-10.47,2.09-11.04,3.02,1.08,9.18-.02,9.56,4.46l-4.05,51.18,9.62-15.2c15.46-7.6,9.13,12.51,9.66,20.77.27,4.22,1.63,8.72,3.04,12.69,6.24-2.05,10.46-9.98,13.02-15.86,2.9-6.67,4.66-13.21,4.2-20.65,2.45-.39,8.51.84,9.49,3.32-.12,7.66-3.47,15.51-.87,23.06,2.57-4.57,4.4-9.66,7.18-14.13,1.44-2.31,11.36-16.06,12.6-16.84,2.64-1.66,8.91,1.14,9.6,4.46.52,2.53-.8,10.05-.53,13.86.35,4.8,2.39,19.65,5.05,23.07,1.59,2.04,4.87.57,4.11,3.75-7.7.56-9.96.17-13.05-6.72-3.88-8.62-4.39-18.49-4.19-27.76-7.21,3.54-12.26,25.75-17,28.36-8.39,4.64-13.7-6.53-14.41-6.05-2.42,8.16-9.31,15.26-18.19,10.56-3.43-1.82-7.18-8.36-7.18-12.09v-18.25c0-.22,1.52-1.15,1.01-1.51l-2.91.13c-1.53,4.15-4.49,7.71-5.71,12.03-1.3,4.64-1.23,23.22-4.19,24.24-5.04,1.73-8.76-2.99-9.41-7.6-2.19-15.56,1.3-35.32,1.92-51.12l-15.1,18.94.03,1.19c8.19,4.78,10.16,19.05,6.17,27.23-5.13,10.5-21.88,2.67-21.52-7.81l-11.86,17.02c-4.91,2.73-14.49-5.12-14.49-9.43v-15.72l-10.18,26.83c-10.65,6.22-17.54-7.51-16.19-16.69-2.42-.56-1.64.41-2.26,1.32-3.22,4.72-6.05,12.66-13.72,9.08-4.25-1.98-2.86-6.4-3.29-9.91-.17-1.44-.47-2.84-2.01-1.51-1.21,5.31-9.59,20.17-14.96,21.14-4.7.85-11.42-3.61-11.42-8.46v-19.27c0-.15-1.04-2.27-1.52-2.53-6.75,3.04-12.1,28.91-13.66,29.99-2.9,2-8.22-1.62-8.24-6.15-.06-9.64,4.02-22.54,4.92-32.72.13-1.49,1.1-2.64-1.26-2.26l-21.79,20.78c9.55,6.36,4.03,30.47-5.81,32.74-11.86,2.73-19.86-6.93-20.07-18.03-6.73,7.95-17.58,33.59-30.89,22.77-7.72-6.27-4.75-27.85-4.1-36.97-5.39,1.33-14.94,7.62-18.24-.53-.77-1.9,1.24-1.54,2.05-1.93,3.17-1.55,14.91-5.52,16.12-7.25,2.39-3.42.95-15.59.31-20.09,1.74-3.98,5.38-2.55,8.22-.46,5.46,4.02.03,11.98,1.69,18.08,5.93-.63,11.29-3.47,17.23-1-4.89,4.17-11.93,6.96-18.25,8.1v37.52ZM206.53,17.68c-.39.62,0,12.41,0,14.7,0,1.66,2.98,9.82,6.11,8.18,4.93-2.6,6.57-26.51-2.3-24.74-.21.04-3.7,1.68-3.81,1.86ZM53.33,35.96l-10.44,2.15c-2.77.9-3.12,14.57-2.62,17.56.29,1.72,3.25,7.14,4.67,7.57,10.53-2.2,13.63-18.9,8.39-27.27Z"/>
      <path d="M12.84,195.14l8.07-13.73c15.46-9.06,15.29,9.61,18.57,19.04,1.18,3.39,2.28,8.01,6.1,6.67,2.08-.73,14.71-16.4,16.37-19.14,2.82-4.65,3.99-11.27,8.69-15.64,9.66-8.98,18.34.75,27.94,3.5,1.53,2.27-3.15,21.21.95,25.39,19.8-13.51,14.79-41.09,19.72-61.4,17.07-1.93,9.22,8.71,7.47,18.61-1.43,8.08-2.01,16.44-3.33,24.55,5.16-5.61,10.2-9.87,17.95-5.28,6.58,3.9,8.56,21.5,13.11,22.38,2.94.57,12.54-11.57,12.54-12.54v-15.21c1.52-2.16,5.76-2.16,7.71-.6,5,11.02-.98,24.14,5.51,35.03-8.38,5.07-12.64-2.84-12.21-10.6-4.85,6.08-7.34,8.19-15.62,7-12.62-1.81-9.5-16.71-17.33-23.2-9.48,7.21-8.82,19.69-13.25,29.31-7.78-1.64-13.3-5.5-9.56-14.12-2.7-.56-1.75.67-2.52,1.99-3.06,5.26-2.33,8.99-10.05,8.06-10.46-1.25-9.58-12.28-10.24-20.2-5.32,5.01-11.41,20.95-18.52,22.13-2.07.34-8.82-1.75-10.13-3.11-1.14-1.18-.47-3.86-2.27-3.8-3.43,7.85-7.76,14.43-17.51,11.9-8.03-2.08-9.99-19.09-12.66-25.91-.5-1.26.46-2.68-1.77-2.23-6.8,7.39-8.44,16.02-9.53,25.78-17.28,3.25-9.07-17.54-12.78-27.8-5.41,7.2-7.62,18.28-9.38,27.12-.49,2.49.9,6.3-1.78,6.37-3.46.1-7.6-.02-8.37-3.79-2.31-11.36,1.17-28.33-2.3-40.34,2.25-2.19,10.16.7,10.16,3.03v19.77l4.17-11.55c2.76-4.63,4.75-9.75,11.09-8.33,1.78.4,5.03,2.32,5.03,4.16v16.73ZM67.61,199.2c5.64-4.83,11.14-11.35,15.6-17.35,1.21-1.63,5.36-5.65,3.64-7.47-9.86-7.11-20.13,17.43-19.25,24.82Z"/>
      <path d="M204.51,257c8.69-10.91,14.47-24.41,19.38-37.39,15.77-.95,3.12,18.14-1.11,24.74-3.67,5.73-8.22,10.56-12.59,15.69-.61.72-1.02.51-.63,2.02,10.71.76,12.36,14.58,16.73,22.31,7.17-8.23,7.64-45.33,20.33-47.66,4.74-.87,13.62,1.93,15.22,7.04,3.13,10.04-8.75,21.55-18.37,22.29-2.67,20.22,10.75,18.53,24.91,12.24l.56,3.07c-9.39,8.64-23.11,7.78-31.98-1.04-1.6,7.81-8.26,12.98-15.73,8.11-7.88-5.13-5.47-17.69-13.18-23.27-.93,1.69-4.37,2.87-5.06,4.01-2.43,3.99.41,24.72,1.52,30.41-17.23,3.19-12.76-18.9-12.18-29.4-3.98,3.22-5,12.18-10.09,13.76-4.02,1.25-8.83-.8-11.55-3.88l-3.69-13.93c-3.67,6.76-8.44,23.97-16.81,25.29-19.03,3-12.31-20.01-8.04-30.36,4.62-11.21,11.5-20.37,25.03-19.06,6.57.64,5.49,4.76,10.83,5.98-.34,10.12-3.17,20.25-.89,30.31,2,2.06,13.63-12.42,14.66-14.24,2.7-4.77,4.61-21.59,5.47-27.99,1.19-8.86,2.36-17.81,2.17-26.73,3.7-.42,9.4.3,10.15,4.61l-5.06,43.06ZM254.18,241.79c-3.37-2.42-10.25,14.33-9.11,17.23.79,1.02,3.95-2.68,4.38-3.17,3.54-3.94,7.27-8.72,4.73-14.06ZM169.01,246.87c-1.49.16-3.04-.86-4.43-.72-9.57.97-20.37,29.22-17.87,38.23,3.19-1.77,4.96-4.89,6.89-7.8,4.36-6.59,11.32-18.95,14.45-26.11.52-1.19,1.37-1.99.96-3.59Z"/>
      <path d="M197.4,116.55c.06-.85,2.22-3.46.51-4.56-5.79,7.31-13,26.48-24.79,17.68-6.07-4.53-6.47-13.8-6.16-20.72-4.82,3.4-7.31,17.41-12.89,19.08-3.7,1.1-11.15-1.4-12.73-5.17-1.09-2.59,2.11-16.08,3.28-19.52,5.58-16.42,15.64-19.91,30.57-10.93.25,9.02-3.3,18.02-2.05,27.1,2.24,16.38,12.24,2.21,16.96-4.16,11.65-15.7,11.14-27.48,13.36-46.47.25-2.17-.11-4.41.02-6.58,3.26.42,8.46.61,9.12,4.61,1.16,6.98-5.33,22.81-5.06,30.88l16.51-24.06c2.64-2.32,9.73.16,6.65,6.16-3.26,6.35-11.57,14.54-16.07,20.44,7.97,3.49,6.57,13.56,8.11,20.78,1.7.39,2.05-.55,3.01-1.54,2.61-2.66,12.36-16.12,14.06-19.41,1.73-3.35,2.61-11.08,3.73-12.53.77-1,2.63-.75,3.19-1.33,1.99-2.04,3.62-5.77,6.68-7.01,8.31-3.4,16.27,2.07,18.09,10.31,1.89,1.37,12.98-6.71,14.14.56.33,2.07-.81,1.43-2,2.06-4.11,2.14-9.02,2.53-12.69,5.61-2.94,9.27-4.05,27.83-17.25,27.38-8.62-.29-11.31-6.02-13.01-13.26-.89-3.79-2.25,1.53-2.87,2.4-2.79,3.87-7.86,12.42-12.51,12.92-12.77,1.39-10.85-10.99-12.7-19.67l-2.54-.71c-4.11,1.28-6.24,29.66-4.57,34.5-3.14.23-8.93-2.23-9.17-5.63-.11-1.48,1.06-2.61,1.06-2.99,0-5.27-.35-11.04,0-16.22ZM263.32,91.71c1.76-16.91-10.55-2.39-8.11,0h8.11ZM165.96,92.73c-7.73-.88-12.95,9.78-14.93,15.99-.44,1.39-2.79,11.98-2.31,12.38,1.7,1.4,4.65-5.17,5.92-5.73l11.31-22.65ZM262.3,97.79l-12.08-2.97c-2.64,7.66-4.08,18.58,1.45,25.28,4.43,1.01,11.46-18.15,10.63-22.31Z"/>
      <path d="M42.26,260.04c1.94-.74,2.96-2.92,4.07-4.54,2.35-3.42,12.06-21.65,13.12-22.39,2.74-1.92,9.07,2.23,9.14,5.1-5.59,10.56-14.78,19.09-22.28,28.42,10.64,1.19,11.91,11.93,17.74,18.73,2.3-.04,4.6-19.41,5.56-22.81,2.77-9.83,5.86-18.91,17.65-17.61,21.13,2.34,2.92,24.79-8.57,26.82-1.85,17.28,5.49,15.14,18.31,10.58-.72,9.97-17.02,8.26-23.1,4.41-1.39-.88-.74-2.56-2.23-2.38-.26,9.8-12.17,8.74-16.69,1.97-3.58-5.35-4.67-19.06-13.78-11.44.49,7.24-.53,15.01,0,22.17.3,4.01,2.56,7.79,1.54,11.64-11.84.8-8.85-20.69-9.63-28.41-3.01,1.81-2.51,6.23-5.13,8.62-3.08,2.82-10.41.88-12.37-2.77l-5.8-12.94c-2.01,9.35-8.68,26.31-20.83,17.26-6.12-4.56-1.49-22.78,1.35-29.12,3.33-7.44,11.36-15.16,20.25-10.74,2.46,1.22,1.73,3.23,2.54,4.05s3.44.52,4.28,2.26c.32.67-.78,11.83-.5,14.76.22,2.32,2.47,12.28,4,13.24,1.5,1,2.38.58,3.59-.56,8.54-8.06,9.39-45.57,11.91-58.05.3-1.47.89-4.22,2.43-4.73,15.65.44,6.3,16.73,4.68,26.04-.67,3.86-.77,8.45-1.26,12.42ZM89.9,249.91c-7.38.33-8.32,9.61-10.13,15.21,4.99-3.57,9.47-8.79,10.13-15.21ZM9.8,253.96c-4.47-2.19-10.41,5.15-12.05,8.72-2.85,6.19-3.76,15.92-3.14,22.7l8.97-15.86,6.22-15.57Z"/>
      <path d="M7.78,117.06c4.59-3.93,5.64-6.25,12.44-4.83,11.32,2.37,8.52,19.91,15.43,27.1,4.72.37,14.21-20.65,15.48-25.05.56-1.94.08-4.31.7-6.4,3.25-10.89,3.51-19.11,17.62-15.48,14.55,3.75-.03,25.43-10.07,25.25l-.82,5.84c1.25,1.43-.29,7.19,2.47,6.77,3.84-.58,25.28-26.4,28.73-31.11,4.4-6.01,2.5-9.24,12.38-3.73.56,10.98-3.03,21.21-2.06,32.27.39,4.49.44,6.97,5.05,8.13-3.59,3.49-9.93.8-12.4-2.8-4.76-6.96-2.38-17.25-1.8-25.07-1.95-.48-1.95.72-2.85,1.7-1.62,1.78-3.85,4.12-5.26,5.89-6.26,7.9-14.51,28.19-27.88,18.77-1.74-1.23-3.73-5.68-5.06-5.07-5.33,5.52-5.78,16.44-15.76,13.71-11.59-3.17-9.77-26.57-16.54-26.72-3.18-.07-7.73,10.94-8.5,13.79-1.99,7.45-1.92,16.86-2.31,24.57-4.87-.12-9.39,1.54-10.19-4.52-2.18-16.45,1.04-39.31.09-56.87-.41-7.55-6.18-16.53,6.87-10.92,6.28,2.7,2.9,11.3,3.19,18.1.22,5.32,1.93,11.05,1.07,16.69ZM62.51,109.95c.2-2.31,8.96-11.42,4.57-13.16-1.65-.65-2.82,3.49-3.38,4.71-1.21,2.63-1.71,5.47-3.18,7.97l1.99.48Z"/>
      <path d="M16.9,237.75c.44.6-1.84,2.4-2.8,2.76-2.03.77-19.07,5.2-21.02,5.39-5.67.53-8.21-1.6-11.66-5.64-.45-2.28.96-1.3,2.37-1.65,10.92-2.74,22.13-3.96,33.11-.86Z"/>
      <path d="M108.81,276.37c3.52-1.17,8.23,1.51,8.34,5.43.09,3.15-4.66,17.87-8.51,17.53-5.06-.45-1.71-6.48-1.58-8.45.21-3.22-1.04-13.58,1.75-14.51Z"/>
      <path d="M101.7,65.4c2.54-.06,8.55,2.82,8.51,5.51-2.26,6.28-9.06,14.58-14.23,6.14l5.71-11.64Z"/>
      <path d="M171.74,150.73c4.07-1.17,7.04.05,9.42,3.34-2.41,1.37-8.14,8.33-10.6,7.6-2.71-2.11-1.93-10.05,1.18-10.94Z"/>
    </g>
  </g>
  <g>
    <polygon class="cls-5" points="191.44 187.33 191.44 194.3 162.58 194.3 162.58 239.33 126.75 239.33 126.75 282.37 84.09 282.37 83.71 382.13 76.75 382.13 76.75 275.4 119.79 275.4 119.79 232.36 155.61 232.36 155.61 187.33 191.44 187.33"/>
    <path class="cls-4" d="M191.44,201.26v6.97c-4.44.32-9.45-.42-13.82-.01-.33.03-.66,0-.8.37l-.06,43.92h-35.58v42.79h-43.04v86.83h-6.97c.22-1.55-.22-3.12-.26-4.59-.03-1.05.25-2.19.24-3.02-.44-26.58-1.08-54.55-.24-81.09.05-1.72.48-3.54.26-5.34.09-.12.32.25.37.25h42.29l.37-.37v-42.42h35.58v-44.28h21.64Z"/>
    <path class="cls-3" d="M181.98,0l-.37,54.73h-43.16v64.31l-.37.37h-43.66l.25,15.92h-39.68c-.15,0-.38.2-.62,0v55.11l-.37.37H5.85v112.95c-.6-.02-1.34.19-1.74-.37v-114.32h48.51v-55.23h39.93l.36-.4.02-15.77h43.79V52.99h43.54V0h1.74Z"/>
    <path class="cls-2" d="M191.44,83.84v1.74h-34.83v50.5h-45.28v36.57h-38.56v47.02H23.01v112.2h-1.74v-113.69h49.63c.57-.35.13-.54.13-.62v-46.65h38.56v-36.32l45.28-.25v-50.5h36.57Z"/>
    <path class="cls-2" d="M191.44,116.43v1.49c-4.12.36-9.05-.48-13.07-.01-.36.04-.64.03-.86.39v41.67h-49.51v44.78h-37.32v40.05l-45.78.25v137.08s-1.74,0-1.74,0v-138.82h45.4l.37-.37v-39.93h37.32v-44.78h49.51v-41.8h15.67Z"/>
    <polygon class="cls-5" points="191.44 99.26 191.44 100.76 164.82 101.01 164.82 151.01 119.29 151.38 119.29 190.82 81.97 190.82 81.97 229.63 30.23 229.63 30.23 331.88 28.48 331.88 28.48 228.26 28.86 227.88 80.23 227.88 80.23 189.07 117.55 189.07 117.55 149.52 162.7 149.52 163.08 149.15 163.08 99.02 191.44 99.26"/>
    <polygon class="cls-3" points="191.44 166.93 191.44 168.67 136.21 168.68 136.08 213.46 99.14 213.46 99.39 253.51 53.86 253.51 53.86 382.13 52.12 382.13 52.12 252.02 97.4 252.02 97.4 211.71 134.71 211.71 134.71 166.93 191.44 166.93"/>
    <path class="cls-6" d="M191.44,178.87v1.74h-43.79v44.78h-35.33l-.25,43.04h-42.79v113.69h-1.74v-115.44h42.79l.25-43.04h35.58c.07-.18-.25-.3-.25-.37v-44.03l45.53-.37Z"/>
  </g>
</svg>