<?xml version="1.0" encoding="UTF-8"?>
<svg id="logo_guidelines" data-name="logo guidelines" xmlns="http://www.w3.org/2000/svg" xmlns:xlink="http://www.w3.org/1999/xlink" viewBox="0 0 722.39 382.13">
  <defs>
    <style>
      .cls-1 {
        fill: none;
      }

      .cls-2 {
        clip-path: url(#clippath);
      }
    </style>
    <clipPath id="clippath">
      <rect class="cls-1" width="722.39" height="382.35"/>
    </clipPath>
  </defs>
  <g class="cls-2">
    <g>
      <path d="M137.57-39.21l24.28-17.81c2.19-.68,10.16-.19,12.16,1.1,4.12,2.66,1.12,7.21,1.04,11.09-.2,9.64-1.22,21.53,3.59,29.94,2.37,0,11.33-21.03,12.85-24.65,1.5-3.57,11.97-29.79,10.97-31.1-5.46.13-16.16,4-20.82,3.61-1.97-.17-6.77-4.45-5.53-5.63l28.34-4.11,1.21-14.51c.98-3.12,6.41-1.2,8.48.34,4.4,3.27,1.67,7.71.5,12.17l19.26,2.05c.28,2.71.01,1.62-1.51,1.99-4.35,1.05-18.4.76-19.58,4.79-.71,18.02-4.34,36.08-1.21,54.05,2.06.35,2.88-1.31,3.88-2.7,2.39-3.32,7.54-14.14,9.15-18.23,5.75-14.59,5.15-35.35,27.04-18.63,1.2,13.69.23,28.45,7.58,40.57-4,.45-6.83-1.51-8.96-4.72l-5.22-18.59c-4.36,8.65-8.34,20.34-20.26,16.24-1.04,6.27-3.08,13.21-10.67,13.24-17.71.08-12.3-22.04-12.69-34.07-.04-1.22.76-3.77-1-3.53-4.31,9.26-7.99,24.58-13.36,32.78-2.46,3.75-4.75,4.53-9.25,3.5-9.13-2.09-8.65-17.92-9.86-25.13l-4.64,9.04c-2.72,3.74-4.22,8.01-9.6,6.78-10.33-2.37-5.65-16.89-1.98-23.43.16-.75-1.03-.68-1.5-.49-1.22.5-13.24,10.92-13.55,11.81-1.92,17.25-3.01,39.24-9.55,55.34-5.14,12.65-18.2,12.23-18.61-2.95-.3-10.82,5.88-27.39,11.35-36.76,4.82-8.26,12.28-13.55,10.56-24.41l-6.59,7.09c-4.7,3.86-7.93,5.34-13.7,2.47-3.05,3.65-5.98,11.24-11.53,10.72-11.05-1.04-6.96-15.04-7.84-22.7-.97-8.48-4.46-3.59-6.7,1.17-4.53,9.62-2.87,20.42-4.33,30.66-13.73,1.51-8.44-9.24-8.07-17.71.19-4.47.19-9.33-.54-13.73-1.84,1.98-2.97,4.67-4.05,7.11-2.42,5.47-8.78,28.14-12.72,29.92-2.91,1.31-10.11-2.02-10.11-4.08v-20.79l-9.61,16.24c-7.03,5.13-12.14-2.48-12.69-2.04-.92,6.52-5.42,12.43-12.61,12.1C-4.98-4.45-2.06-30.35-1.36-40.21l-16.93,6.9c-1.73.05-6.26-4.67-5.37-5.88L-1.49-48.47l1.1-20.48c13.85-5.12,11.1,7.12,10.19,16.56,2.08-1.2,7.99-2.05,9.11.52,1.14,2.6-.16,2.01-1.44,2.61-1.78.84-6.59,2.2-7.69,3.45-1.68,1.9-2.35,19.75-2.01,23.33s1.6,8.69,3.54,11.65c3.22-.15,18.44-37.49,27.33-37.37,2.97.71,13.73,3.17,13.73,6.46V-14.87c1.69-1.17,3.03-4.78,3.91-6.73,2.52-5.58,9.91-26.94,14.35-29.32,2.88-1.54,8.58,2.64,9.62,5.65,2.31-5.07,9.12-8.21,14.26-5.14,5.67,3.38.68,18.31,3.24,24.16.37.83.25,1.88,1.75,1.24.53-.23,7.88-7.59,8.12-8.12,1.05-2.37.12-4.97.75-7.36,3.77-14.26,14.68-27.51,29.17-15.44v16.73ZM128.16-56.26c-7.13,1.13-12.64,12.72-13.23,19.28-.11,1.22-1.25,1.45.84,2.81,1.67-.06,13.24-11.89,14.14-14.23,1.08-2.78,2.68-8.57-1.75-7.87ZM228.85-27.04c6.56-3.26,14.26-19.48,14.8-26.34.09-1.19.41-2.67-1.14-3.06-7.33-1.89-12.96,24.37-13.66,29.41ZM154.82-26.02c4.69-4.73,11.59-16.91,12.74-23.28.81-4.52-2.7-2.44-4.66-.29-5,5.5-8.1,16.21-8.08,23.57ZM45.29-44.27c-11.9.08-13.77,16.45-16.22,25.34l6.11-6.55,10.11-18.78ZM115.27,27.72c10.6-11.57,9.8-31.75,13.16-46.65-11.12,12.19-16.77,30.26-13.16,46.65Z"/>
      <path d="M438.75,25.69c3.46-2.78,5-8.5,9.39-10.39,18.28-7.88,6.12,27.21,14.42,33.59,1.45.11,8.4-5.39,9.12-7,2.48-5.59.31-8.76,5.63-15.67,8.3-10.77,22.25-18.32,30.43-3.01-.6,3.62-1.06,7.19-1.3,10.85-.07,1.15-2.04,2,.75,1.75,5.69-4.12,11.47-8.29,17.45-11.96,4.94-3.04,6.61-3.99,11.2-7.33,7.72-5.61,19.83-1.97,26.54,3.76.05,8.78-5.7,16.89-3.46,25.68,17.7-14.75,31.52-37.52,31.07-61.21.9-2.76,7.27-1.94,9.01-.17,3.77,3.82-3.5,25.22-4.08,30.95,2.76.61,1.73-.83,2.51-2.01,4.86-7.38,10.36-15.85,12.75-24.3,3.06-1,6.94,2.23,7.68,5,.87,3.25-14.52,25.97-18.88,28.92,11.44,1.87,8.08,16.06,14.83,22.75,2.23.66,7.46-5.22,9.01-7.03,7.1-8.25,13.74-25.73,27.59-20.51.71.27,9.98,7.37,10.33,7.92,3.34,5.17-1.19,14.35,2.62,19.67,6.37-1.96,20.32-30.65,18.78-38.52,2.75.66,7.73,1.27,7.82,4.69-1.91,8.71-5.06,19.01-3.27,27.75l20.76-32.98c2.29-3.37,8.97-.28,9.12,3.02.08,1.71-1.79,4.55-1.99,7.14-.91,11.93-1.74,24.75,8.12,32.95-14.47-2.66-17.56-17.69-16.23-30.41l-16.27,26.83c-2.22,2.88-9.73-.69-11.17-2.93-2.31-3.58-.06-7.03-.43-10.72-3.8,10-11.66,24.87-22.68,12.53l-2.66-13.56c-2.65,3.73-7.18,15.62-10.71,17.7-4.53,2.68-13.75-.14-14.65-5.52-6.93,9.37-19,10.33-24.67-.7-2.14-4.16-2.23-8.39-3.78-12.48-.35-.92-.17-2.75-1.96-2.03-6.29,2.55-3.94,22.47-3.57,28.38-.6.61-7.4-1.21-8.43-1.96-4.01-2.96-.61-23.08.31-28.46-5.27,5.68-18.03,27.45-25.87,27.27-8.3-.19-11.22-10.29-9.62-17.12l-6.54,9.16c-4.22,4.68-10.71,5.69-15.67,1.4-5.82-5.03-2.31-11.97-.88-17.95.31-1.3,1.97-1.93-.71-1.73l-19.26,16.24c-2.86,12.39,1.68,42.82-6.6,52.22-10.1,11.46-20.61-6.25-17.25-16.74-.86-.95-20.7,7.24-24.71,6.82-2.66-.28-5.79-4.04-5.7-6.82l31.44-3.04c-.21-4.48,1.21-9.7,2.84-13.89,4.05-10.4,13.93-16.6,11.34-28.7-5.38,4.9-10.16,15.03-18.63,14.15-2.47-.26-5.89-2.76-6.23-2.75-2.19.06-4.08,8.1-12.7,6.43-12.75-2.47-8.1-19.18-9.19-28.39-.21-1.81-.53-4.36-2.92-3.63-2.95,8.94-7.22,15.44-9.04,24.94-.42,2.18.51,5.99-.55,7.56-1.67,2.46-7.74-.44-9.15-2.12-4.87-5.81,1.23-35.36-1.48-43.94,1.29-4.58,10.06,1.35,10.06,2.91v16.73ZM478.3,42.93c1.46,1.41,14.23-10.35,15.72-12.15s8.46-10.92,5.6-12.72c-7.14-4.49-24.82,16.96-21.32,24.87ZM553.33,19.62c-10.92-1.54-17.6,12.21-19.26,21.28,1.91.44,2.4-1.08,3.55-2.02,1.73-1.43,17.05-18.28,15.72-19.26ZM651.69,23.67c-4.43-3.84-15.05,12.93-14.18,17.23l14.18-17.23ZM498.57,54.09c-1.37-1.63-5.4,5.85-5.9,6.77-5.59,10.37-9.6,24.62-1.67,34.81,4.95-1.48,5.57-7.6,6.27-11.94,1.59-9.79-.18-19.79,1.3-29.63Z"/>
      <path d="M561.45,198.08c-2.79-2.74-6.43,7.66-7.27,9.46-3.54,7.59-6.77,15.65-7.37,24.07-1.28,1.89-6.64.96-8.45-.3-2.49-2.49.32-19.07,1.05-23.32,3.08-17.89,10.4-35.29,11.39-53.51l-15.45,12.94-16.43,66.72c-6.87,2.03-10.15-.49-12.97-6.41-5.54-11.65-3.28-27.33-6.37-39.77l-6.36,14.41c-1.61,5.29-6.27,30.18-8.3,32.26-2.4,2.46-8.2.15-9.74-2.49-1.06-1.82-1.65-8.54-1.95-11.23-.87-7.76.08-15.05.03-22.26-.1-14.33-.12-28.68.09-43,1.27-2.05,10.12.22,10.01,3.41l-2.02,62.36c3.16.72,1.21-.87,1.41-1.7,1.76-7.3,9.13-35.09,14.23-38.94,2.42-1.83,5.2-.74,7.2,1.08,5.14,4.68,4.83,35.33,8.49,45.25.39,1.06.52,2.98,2.12,1.41,2.09-2.05,8.12-32.92,9.62-38.56,2.6-9.84,6.57-19.36,8.08-29.44,9.44-3.32,17.74-10.09,23.52-18.28,3.26.37,6.42,1.97,6.51,5.61.15,6.09-6.18,23.57-7.87,30.77s-3.22,14.99-4.34,22.51c2.23-1.46,2.82-4.67,5.02-6.63,4.6-4.09,13.23-1.52,13.23,3.08v20.79c15.45-2.79,13.91-24.84,27.69-30.62,3.77-1.58,14.2-2.62,15.75,1.88,1.71,4.96-3.21,21.25-.34,27.72,7.73-16.07,13.7-34.92,17.5-52.47.87-4.03-1.27-10.18,5.34-8.99,2.97.54,6.04,1.84,6.16,5.17.32,9.1-5.63,22.36-6.17,31.96,2.91-2.17,5.81-5.84,7.93-8.79,2.68-3.73,9.65-19.2,13.71-18.42,7.14,3,.2,10.31-2.99,14.95-3.68,5.35-7.98,10.25-12.47,14.94,4.41,8.08,2.34,21.5,15.05,14.01,8.83-5.21,9.89-16.64,17.77-23.81,8.4-7.64,16.29-6.51,22.31,2.96,3.46-3.27,7.76-1.26,10.59,1.73-3.04,4.5-4.48,25.58-2.47,28.85.68,1.11,3.41.17,2.53,2.99-13.8-.78-11.57-14.07-10.14-24.33-1.76-.46-2.03.73-3.04,1.51-9.3,7.12-18.9,27.56-30.96,11.67-1.67-.41-7.57,7.31-15.18,5.16-7.17-2.03-7.69-6.18-10.54-11.84-.41-.81-.32-3.12-2.11-1.44-1.88,1.76-2.82,24.43-1.42,28.32l-1.11,2.06-7.67-2.66c.31-6.36-.27-12.79,0-19.15.18-4.14,3.05-10.16.54-13.64-1.63,5.81-7.03,26.23-13.41,27.21-8.64,1.33-7.42-14.77-7.39-20.11l-7.59,10.14c-5.15,7.15-10.71,4.22-17.17.94-1.72,2.72-6.7,7.49-9.97,6.99-2.86-.43-7.85-4.45-7.85-7.43v-17.75ZM692.25,191.98c-.48-3.9-3.81-5.51-7.51-5.03-7.31.95-13.64,16.98-15.8,23.3,3.4,3.15,18.94-17.75,23.31-18.27ZM587.82,212.27c1.91.44,2.4-1.08,3.55-2.02,3.95-3.26,11.47-12.22,13.73-16.71.6-1.2,1.3-2.23-.57-2.56-4.31-.75-16.62,16.28-16.7,21.29Z"/>
      <path d="M9.8,273.12c10.28-.79,12.19,5.4,9.13,14.19,27.92-4.35.94,5.27.16,7.77l-1.17,41.92c1.64.38,2.07-.57,3.07-1.49,3.77-3.46,17.65-31,20.47-37.33,1.59-3.55-.09-8.57,6.27-7.84,2.11.24,3.51,2.22,5.93,1.87,5.12-.76,12.23-6.35,18.51-6.93,2.03-.19,8.62-.08,8.62,2.54v20.79l13.66-21.32c2.97-4.81,11.8-2.75,12.24,2.52.81,9.78-5.53,25.16-3.07,34.06.38,1.38.12,2.33,1.87,1.86,3.05-.83,12.15-9.17,13.3-12.08,1.04-2.64.21-5.45.98-8.14,2.85-9.91,7.71-20.45,19.35-20.29,16.06.23,11.31,4.68,13.16,17.31,1.95-2.28,9-4.54,10.35-6.38,2.15-2.92-.2-10.84,3.8-10.86,1.85,0,6.5,2.49,6.69,4.57.17,1.91-2.48,9.17-2.95,12.3-.74,4.98-1.65,10.66-.65,15.57l22.56-32.47c7.03-5.14,10.59.5,15.13.82,2.71.19,4.43-3.95,8.47.7,3.52,4.05,1.51,11.08,2.02,16.23.88,8.88,3.76,14.72,10.12,20.79-11.79,1.34-19.54-14.21-19.28-24.33-9.5,7.21-15.09,24.28-29.38,16.23-.08,10.8-18.27,13.56-18.27,3.55v-15.21c0-.41,2.61-1.78-.49-1.51-2.26,1.57-9.24,7-10.15,9.13-1.15,2.7-1.01,8.91-1.81,12.38-2.15,9.34-8.84,37.5-14.89,43.64-2.95,3-9.22.94-10.68-2.31-3.52-7.89,5.83-29.15,9.76-36.85,4.11-8.06,11.74-14.14,11-22.96l-10.37,14.46c-4.4,2.08-9.06-.28-12.92-2.29-2.83,7.7-13.49,16.69-20.87,9.19-6.19-6.3.81-27.43.57-36.05l-2.02-.51c-3.72,6.06-8.03,11.54-10.65,18.26-1.5,3.84-4.21,18.24-5.08,19.26-2.09,2.46-9.58.18-10.46-2.73l.81-34.8-13.18,4.07c.62,2.9,2.95,4.45,4.24,7.4,2.48,5.7,2.44,10.38.77,16.35-4.06,14.49-19.42,14.3-23.02-.18-.62-2.48,1.14-7.18-2.26-6.35-2.95,5.51-10.58,28.78-15.24,30.9-5.51,2.51-14.22-2.12-14.96-8.33l.77-34.74c-7.19,2.29-13.61,9.26-19.26.48-.37-2.19.44-1.17,1.4-1.6,5.84-2.56,11.68-5.34,17.86-7.01v-18.25ZM142.63,289.37c-4.73-2.84-8.46,4.44-10.55,8.17-2.66,4.74-4.98,9.45-4.64,15.12l9.15-9.6,6.04-13.69ZM191.97,306.23c2.72-2.55,8.08-8.38,10.48-11.33.73-.9,3.74-3.91,2.05-5.03-8.19-7.27-14.22,13.72-17.22,18.24.98,1.37,3.98-1.21,4.7-1.89ZM50.6,298.71c-3.3,3.4-3.42,22.28,1.29,26.11,5.75-4.69,8.31-11.32,7.61-18.75-.45-4.71-3.89-12.52-8.9-7.36ZM128.45,364.39c9.96-11.05,12.01-28.23,13.16-42.59-2.41,2.45-4.48,6.64-5.93,9.78-4.72,10.22-8.19,21.42-7.23,32.81Z"/>
      <path d="M572.61,267.03c6-1.32,10.19-4.86,16.49-1.78,6.97,3.4,1.35,10.08.76,16.51-.32,3.42-1.07,20.62,2.51,20.66,5.69-3.24,16.01-13.72,17.3-20.15.4-2.01-.77-3.68-.6-5.55.46-5.16,1.79-10.3,1.05-15.77,13.7.88,10.41,2.87,10.1,12.64-.24,7.6.25,15.26.05,22.86,2.02-.92,3.42-3.31,4.44-5.19,3-5.55,10.3-27.59,13.29-30.32,2.64-2.41,6.88-.12,8.4,2.65-1.7,10.83-2.61,22.36-2.24,33.36.07,2.01.33,8.97,2.93,8.62,16.95-2.26,22.12-64.3,49.78-40.57,1.6,1.37.78,3.79,3.49,3.05,1.28-6.79,3.19-15.38,11.14-8.6,2.39,2.04-.87,18.98-1.03,23.26-.16,4.19-.57,24.21.96,26.27.82,1.1,3.33.6,4.13,2.17l-1.67,2.58c-15.41,4.01-14.35-23.44-12.52-32.49-5.47,5.29-15.08,23.07-22.02,25.15-5.98,1.79-14.29-4.22-15.99-9.94-2.36,1.13-2.97,12.83-13.16,13.28-17.58.78-9.37-26.38-11.7-36.6l-9.61,28.4c-2.47,8.32-14.76,3.37-17.24-2.06-.86-1.87.35-5.89-2.03-5.06-4.87,7.75-10.61,16.56-21.03,11.9-13.41-5.99-2.24-37.04-5.35-37.26-17.27,2.06-15.35,19.43-21.93,31.81-10.21,19.2-27.42,11.98-24.2-8.47l-10.13,16.73c-3.82,4.68-13.44,4.38-16.68-.57-2.5-3.83-1.48-12.43-2.6-17.18l-8.61,13.18c-3.75,4.06-13.04-.42-14.3-5.05-2.15-7.88,9.03-36.01,17.9-39.01,4.81-1.62,15.64-1.45,15.15,5.53-1.88-.9-2.95-2.07-5.32-1.84-10.66,1.01-18.33,23.07-19.01,32.26,1.58,1.76,6.5-6.66,7.11-7.58,3.66-5.52,6.58-11.54,9.36-17.53,13.63-2.47,7.22,8.69,6.8,16.45-.25,4.52-.49,11.99-.01,16.31.17,1.53.1,2.52,1.57,3.48,3.53-.07,14.58-24.19,16.2-28.39,2.96-7.63,1.53-17.5,12.27-6.12l-1.09,30.5,2.01,1.98c7.64-7.25,11.33-17.28,14.58-27.07l-.86-1.82c-17.43-1.89-11.17-27.76,5.62-21.85,10.19,3.59,4.83,11.47,5.53,12.21ZM565.5,258.93c-2.25-2.52-10.04,11.63-5.46,13.1l3.97-.91,1.49-12.18ZM685.88,266.22c-5.98,1.82-13.67,20.71-13.95,26.64-.07,1.55-.33,6.25,1.6,6.63,5.33,1.05,20.2-22.57,23.78-26.87-3.57-3.21-5.73-8.12-11.42-6.39Z"/>
      <path d="M234.92,235.1c-1.14,3.69-10.23.7-11.14-4.09.93-9.12,1.19-18.22,1.04-27.4-.1-6.22-1.82-12.62-1.11-19.27.62-5.86,5.48-2.06,8.68.55l.51,12.17c5.96-8.97,16.12-7.78,18.62,3.18,1.1,4.82,0,9.38,1.67,14.05l6.53-16.26c1.23-1.29,3.28-2.93,5.11-2.93,11.06,0,4.28,27.68,7.62,34.4,1.43,1.01,6.05-4.46,6.92-5.74,4.38-6.45,10.36-26.11,15.99-29.64,4.55-2.85,16.97.77,20.97,3.89,2.99,2.33-.1,10.2-.28,13.76-.25,5.11-.81,12.08,1.78,16.45.44.74-.22,1.85,1.63,1.19,9.4-3.39,25.68-33.26,26.98-43.03.28-2.07-.1-1.29-1.48-1.49-6.52-.96-14.99,4.41-18.76-3.55.11-2.64,19.38-2.04,22.1-3.73l3.23-19.09c2.48-.37,8.44.82,9.49,3.31l-2.4,14.95c1.59-.62,10.17,1.6,10.16,2.55-.06,4.41-11.19,1.95-12.97,6.29-1.85,4.52-3.77,20.59-4.27,26.15-.65,7.33-1.12,14.56,0,21.8,2.38.5,1.63-.32,2.27-1.31,3.62-5.61,10.37-20.03,12.08-26.42,1.18-4.43.57-9.23,2.82-13.4,3.54-1.48,6.84.86,10.58.52,6.49-.58,17.24-7.82,23.71-8.91,1.92-.32,3.92.18,5.6,1.07,4.98,2.63,1.78,6.26,1.7,10.37-.1,4.84-.26,9.97.55,14.74,4.3-4.33,7.26-9.78,10.46-14.89,1.84-2.94,4.5-9.7,6.2-11.79s6.67-.91,8.2.83c2.11,2.4-1.2,20.89-1.01,26.37.09,2.65.85,9.26,1.43,11.74.76,3.22,3.22,4.11,3.62,7.02-14.37,1.41-13.64-20.79-12.17-30.41-2.69-.56-1.75.67-2.52,1.99-3.71,6.36-8.24,20.47-17.5,16.5-1.43-.61-5.33-4.65-5.33-5.82v-21.8l-16.22,5.09c.91,4.08,3.82,6.46,5.01,10.69,2.3,8.19.72,25.35-7.72,29.76-6.45,3.37-18.15-4.39-16.56-12.07l-6.64,14.13c-3.52,4.88-8.97,4.78-13.59,1.54-1.34-.94-5.11-5.98-5.11-7.06v-16.22c0-.96,3.68-5.04-1.01-1.01-9.11,19-28.61,31.24-32.96,1.51-3.92,7.23-8.67,20.03-19.03,14.98-3.05-1.49-3.51-4.13-5.8-5.84-1.04,7.15-9.2,11.05-14.91,5.75-4.88-4.53-2.95-22.23-4.38-29.08l-4.78,9.91-2.39,16.36c-.78.67-5.79-.18-6.78-1.16-3.02-3-3.39-22.87-5.36-28.61-.46-1.34-.51-2.75-2.47-2.59-1.53.36-4.75,9.29-5.13,11.1-.4,1.93-1.47,9.13-1.47,10.7,0,3.68.76,14.79,0,17.24ZM376.11,198.32c-3.12,3.22-4.97,29.34,1.27,33.18,9.08-2.22,10.07-29.94,5.15-33.5-1.76-1.27-4.94-1.22-6.43.32ZM291.72,224.45c6.06-5.14,11.25-13.9,14.99-20.99.67-1.27,3.39-4.68.69-5.36-8-2.02-14.53,20.52-15.69,26.36Z"/>
      <path d="M425.56,401.4c-.96,3.09-8.92,1.3-9.95-2.22-2.42-14.91-2.51-29.83-2.23-44.93l-4.03,7.61-8.13,4.56c1.07,5.69,4.96,13.11,5.11,18.79.19,7.3-1.68,15.02-10.47,12.42-5.09-1.51-8.71-15.12-10.6-19.87-.61-1.54.59-2.74-2.28-2.22-.59,5.01,1.39,21.27-6.35,20.08-7.3-1.12-7.75-9.22-8.35-15.01-5.21,5.72-6.52,23.42-16.25,23.21-9.73-.22-8.54-18.36-8.61-25.24l-11.15,16.71c-6.47,2.42-10.69-3.12-11.19-9.06-1.41-16.72,15.92-38.81,31.01-19.78-.88,10.14-2.4,18.59-.51,28.84.3,1.64-.69,1.77,1.98,1.54,1.8-8.39,10.54-19.3,11.95-27.11.83-4.6-2.24-8.34.72-11.38,11.38,2.18,6.83,16.44,9.66,25.31,1.5.26,1.26-1.9,1.51-3.02.91-4.05,1.76-17.97,6.85-17.08,8.24,1.45,7.85,24.5,14.94,29.23,1.7-6.96,1.83-18.72-1.77-25.1-1.4-2.49-3.86-1.54-3.28-4.3,16.23-1.45,18.14-24.46,23.9-36.49,3.71.87,9.39,2.27,9.52,6.66l-6.04,34.89c2.78.63,2.39-2.61,4.03-4.57,3.68-4.4,11.49-5.02,15.28-.76,4.7,5.29,3.91,20.25,15.05,8.78,4.94-5.09,3.45-12.23,2.15-18.64,10.83-1.46,8.89,12.11,9.13,19.25l10.19-16.73c1.62-2.62,8.06.53,8.06,2.03v18.76l8.09-15.74c3.82-3.76,8.88-4.38,13.19-.97,3.94,3.11,1.27,14.47,2.29,20.02,1.29,7.04,4.32,5.23,8.52,1.41,8.51-7.74,16.35-35.13,29.78-33.71,3.18.34,7.78,1.98,8.12,5.67,1.77.39,2.93-2.09,4.36-1.88.84.12,5.81,3.98,6.25,4.94,3.76,8.27-4.58,29.23,6.6,36.48-13.96,3.46-15.46-19.88-15.22-29.39l-15.73,18.22c-7.22,5.56-9.44,4.71-17.15.03-2.9,6.84-14.74,10.31-19.87,4.59-.66-.74-3.01-5.57-3.01-6.12v-17.75c-3.82-.7-6.06,4.23-7.49,7.21-3.01,6.26-3.57,13.48-6.66,19.71-2.64,1.97-9.17-1.31-9.17-4.11v-21.8c-2.31-.59-4.18,4.88-4.94,6.72-2.09,5.07-3.56,21.54-10.27,18.15-3.22-3.55-2.62-10.88-3.04-15.74l-8.12,7.58c-6.02,1.73-10.28.4-13.2-5.02-1.97-3.66-2.89-15.46-9.14-8.92-.97,1.02-4.01,8.81-4.01,9.9,0,5.04,1.02,22.08,0,25.35ZM554.35,355.28c-2.32-.18-3.54-2.13-6.09-1.62-7.07,1.39-16.97,17.76-17.23,24.93,5.13.73,24.61-21.59,23.32-23.3ZM344.44,365.41c-10.4-2.78-15.27,15.36-16.21,23.31,7.04-6.39,12.03-14.79,16.21-23.31Z"/>
      <path d="M126.42,380.61c-8.78,1.9-15.79,7.67-23.1,12.38,1.13,14.31-8.15,36.58-25.56,27.17.08,7.16-2.53,14.21,0,21.28-5.32,1.96-8.4,1.73-9.18-4.51-.95-7.58.69-24.98,1.06-33.51.07-1.58.9-3,1.01-4.56-2.43-.57-1.64.43-2.26,1.32-4.78,6.94-10.4,17.57-19.08,7.3-1.4-1.66-.01-4.34-2.98-3.55-.48,5.03-6.34,8.33-4.07,13.17-4.05-.31-10.2-.32-13.48-2.98-2.37-1.92-.51-5.29-2.73-6.14-1.21,9.69-14.53,30.52-25.42,19.82-6.44-6.32-4.55-33.78-6.03-43.15-6.18,2.43-14.58,8.1-17.23-1.49l16.77-6.58.48-22.36c10.76.53,7.79,11.65,8.11,19.27l21.28-3.03c.57,2.93-.85,1.62-2.22,2.28-3.58,1.74-18.27,7.12-18.93,9.59,1.38,13.42.4,26.27,3.79,39.5.35,1.38-.63,2.82,1.63,2.35,7.69-3.95,9.61-12.83,13.89-19.58,4.05-6.38,8.11-13.02,12.17-19.27,5.88-9.06,13.63-13.91,21.11-3.21l-3.03,1.5c1.14.04,2.55.54,2.95,1.66s-1.27,13.38-.94,17.12c.69,7.91,3.69,3.76,7.08-.04,6.86-7.71,10.51-17.03,12.81-26.95,11.33-3.45,23.81.67,27.8,12.28l27.42-12.76c13.29,1.14-.78,21.64,6.01,27.97,6.06-11.1,12.63-22.23,16.3-34.42l9.12,2.64,1.08,32.17c.66,3.84.96,6.73,4.95,8.22-3.22,3.41-8.38.27-10.15-2.97-4.17-7.63-2.07-14.89-4.05-22.88l-8.27,17.57c-3.36,4.51-5.96,7.21-12.06,5.29-1.23-.39-6.03-4.58-6.03-5.12v-22.82ZM80.77,410.01c-.17-5.33,14.58-16.17,15.09-17.95,1.41-4.86-8.57-19.14-13.87-10.75-.93,7.97-1.7,16.1-2.26,24.1-.08,1.08-.7,4.79,1.04,4.59ZM37.17,407.99c3.58-7.65,8.52-15.72,11.36-23.67,1.66-4.64-3.19-1.45-5.11,1-2.97,3.78-8.05,15.72-8.04,20.37,0,1.2.57,2.13,1.79,2.3ZM85.86,418.13c6.68-2.46,10.78-11.42,10.13-18.25-3.91.69-11.63,16.62-10.13,18.25Z"/>
      <path d="M7.78,205.18c.6.65,10.02-4.73,12.14-.5-.03,1.7-9.91,5.57-11.68,7.57-3.28,3.73-1.39,17.51-1.43,22.88-.05,6.33-1.88,12.82-.05,19.74,1.95.48,1.95-.71,2.85-1.7,4.13-4.54,11.94-20.3,14.15-26.41,3.64-10.05,3.11-26.79,18.89-20.46,16.72,6.71,2.6,24.94-10.55,23.22-.74,14.79-.2,26.03,16.14,14.62,16.41-11.47,15.16-24.74,17.34-43.01.8-.8,9.66,2.24,9.18,5.01l1.43.04c3.42-3.86,9.96-10.03,14.79-4.59,5.77,6.51-3.42,29.45-2.08,38.07,17.79-6.94,19.25-49.94,44.51-26.71-1.47,13.3-5.86,28.54,5.17,38.88-12.76-.38-14.34-12.06-15.22-22.3-3.5,2.02-6.15,10.87-9.84,11.97-3.92,1.17-10.81-1.56-11.46-5.88h-1.99c-1.59,6.23-8.95,11.81-14.76,7.12-5.86-4.73,1.72-27.38.54-36.05-.14-1.02.29-2.18-1.5-1.49-10.71,4.13-16.79,30.18-15.74,40.55-3.73.24-6.43-1.91-9.11-4.05-4.1,10.7-19.26,17.06-29.35,9.56l-7.16-8.54c-.81,5.11-5.57,18-10.9,19.08-5.89,1.2-12.48-4.25-14.02-9.89-2.59-9.46-1.17-22.31-.53-32.04l-1.98-1.06c-5.55,3.49-13.5,6.34-17.21-.93l18.79-8.62c1.71-2.91.8-14.94,1.51-18.77.59-3.22,2.48-2.78,5.09-2.07,8.95,2.43,4.26,10.25,4.04,16.77ZM34.15,223.43c3.65-1.99,11.44-5.82,9.4-10.85-2.62-6.43-5.09-2.24-6.87,1.72-.58,1.29-3.09,8.4-2.52,9.12ZM124.38,211.27c-4.21-4.41-17.55,19.58-15.2,24.33l5.49-5.15c1.77-2.79,11.99-16.79,9.71-19.17Z"/>
      <path d="M439.76,99.71l10.14.51-11.94,7.33c-1.52,10.4-3.01,20.24-1.24,30.7,8.42.02,17.34-15.78,19.32-22.76,2.02-7.13,1.51-18.83,8.54-23.91,4.92-3.55,15.11-1.47,16.54,4.8,2.48,10.86-8.59,16.06-15.84,21.24-.43,12.38-2.51,18.79,11.14,11.14,6.01-3.36,26.14-20.45,28.5-26.26.88-2.17.95-10.61,2.35-10.96,12.48.66,5.24,10.48,5.52,18.32,4.56-5.43,11.18-18.39,19.61-17.96,12.38.64.34,23.02.6,29.6s5.45,8.56,11.3,7.18c17.16-4.06,19.35-40.14,45.61-34.6,5.75,1.21,5.74,4.53,7.26,5.4,1.19.68,3.31-.15,5.43,1.17,3.95,2.45,7.19,18.06,4.55,19.92-7.22,5.1-8.36-8.55-9.17-12.28-.31-1.41.87-2.93-1.53-2.49-7.38,5.27-21.11,23.46-29.54,24.28-3.59.35-8.75-1.11-9.57-4.98l-1.44-.02c-6.15,7.65-15.82,12.18-24.38,5.06-8.62-7.17-2.92-20.73-2.53-29.94.06-1.52.69-2.93-1.5-2.51-10.88,8.53-12.68,22.66-18.33,34.43-12.47-2.62-4.47-11.61-6.01-20.24-7.78,8.61-20.08,25.38-32.4,26.41-7.81.65-12.28-1.35-14.25-9.17-4.18,5.48-7.76,14.79-16.04,14.86-17.64.16-10.77-24.35-10.84-35.14-4.35,1.24-15.27,4.31-16.24-2.52-.32-2.22.78-1.36,2.24-1.81,4.68-1.43,10.05-1.84,14.83-2.96l2.18-21.44c1.76-3.17,10.54-.24,11.04,1.95l-3.9,17.64ZM470.83,108.48c2.16-2.1,8.67-12.36,3.9-13.83-5.15-1.58-7.26,12.99-7.58,16.22.14.17,3.15-1.87,3.69-2.39ZM594.91,99.73c-12.87-4.89-25.34,13.09-29.39,23.31,6.41-2.24,12.44-6.88,17.71-11.18,2.36-1.93,8.58-7.09,10.19-9.08.82-1.02,1.92-1.35,1.5-3.05Z"/>
      <path d="M563.47-34.64l2.03,1.02c8.15-7.53,12.06-18.55,18.97-26.75,11.4-3.1,1.52,17.49.3,22.17,3.07,2.51,15.72-16.18,20.61-15.96,10.83.49,1.55,16.32,9.3,16.57,7.27.24,5.64-4.79,7.07-8.74,4.97-13.74,21.05-23.35,31.82-9.38l-3.91,20.55c1.52.35,2.23-.54,3.36-1.2,3.84-2.24,11.21-7.67,14.81-10.54,5.77-4.62,9.5-12.75,18.8-12.62,18.97.28,13.61,8.74,14.75,21.84.28,3.22,2.07,5.67,2.07,9.1,0,4.07-8.63-3.97-9.58-5.65-2.45-4.32-1.43-9.39-1.62-14.11-7.63,4.83-11.96,21.94-23.26,14.66-2.97-1.91-3.47-4.14-3.1-7.56-.83-1.28-15.54,10.92-16.67,13.24-1.91,3.94-1.91,13.25-3.06,18.24-.94,4.06-5.09,18.43-7.59,20.8s-7.37,1.53-9.01-1.23c-3.89-6.53,2.01-19.56,5.39-25.71,1.61-2.92,8.01-10.52,8.42-11.86.99-3.17-.01-8.08,2.24-11.44-2.75-.55-2.11,1.96-4.07,3.5-5.61,4.43-15.5,3.52-19.78-2.49l-1.45.02c-1.33,6.73-11.79,3.5-14.13-.66-2.12-3.76-.38-7.74-1.63-11.54-5.68,1.86-14.65,18.99-18.48,20.1-8.99,2.61-9.12-7.09-6.38-13l-8.08,13.71c-8.82,6.68-18.39-.18-17.76-10.67-3.47,4.1-6.85,14.76-12.39,16.01-24.73,5.58-7.43-48.57,13.66-36.52,1.81,1.03,1.95,2.6,3,3.32,1.73,1.17,5.35.79,6.2,3.66.1.93-.84,1.6-.84,1.87v17.24ZM553.33-57.45c-11.62-.18-16.48,17.72-16.21,27.37,5.17-1.4,18.62-25.01,16.21-27.37ZM646.62-57.45c-6.74-3.26-22.36,17.1-19.26,20.27,10.26-.61,16.85-11.29,19.26-20.27ZM687.19-52.38c-3.3-.71-13.3,10.95-12.16,12.16,5.56-2.3,8.42-7.86,12.16-12.16ZM642.57-18.92c-2.6-.59-1.78.7-2.62,1.9-4.8,6.79-6.91,15.17-6.5,23.44,2.7.56,1.74-.69,2.52-2,4.28-7.24,4.47-15.43,6.6-23.34Z"/>
      <path d="M283.6,267.03c.86.79,19.28-4.72,22.82-5.05,3.93-.38,11.01-1.17,12.67,3.02l-36.6,9.78c-4,12.96-.14,26.95-2.94,39.91,2.36.65,1.7-.55,2.32-1.28,2.7-3.14,11.41-16.49,12.43-19.95.98-3.31-.43-10.78,4.22-12.08,3.67-1.03,5.16,2.51,7.67,2.63,9.21.45,22.12-7.25,31.82-7.76,14.79-.78,6.93,9.7,5.54,18.8-.51,3.37-.75,8.1-.63,11.53,7.66-8.13,12.13-18.8,16.85-28.78,2.06-4.08,10.84-2.35,11.86,1.09.09,10.29-1.85,20.78-.7,31.11.58,5.18,1.26,8.99,6.96,10.27-1.74,3.97-7.62,2.26-10.51.38-6.5-4.24-6.69-21.04-5.72-28.26-6.53,5.9-9.78,24.71-20.69,23.3-12.78-1.65-4.09-26.08-4.16-34.47l-17.73,5.1c1.04,3.52,3.75,5.02,4.61,9.06,4.81,22.54-18.43,39.1-29.46,14.26-4.35,5.48-8.43,19.32-17.67,13.59-3.57-2.21-4.78-10.02-5.14-14.12-.89-10.28.27-21.67,1-31.93-7.79-1.45-21.67,5.42-23.32-6.08,7.38,1.91,15.76-.62,23.35-1.49l4.64-17.86c9.83,1.16,8.94,7.64,6.48,15.28ZM305.92,317.74c10-4.47,17-21.45,7.39-29.21l-10.46-.2c-.51,10.7-2.57,19.5,3.06,29.41Z"/>
      <path d="M200.45,20.62c4.13.42,9.13-2.9,12.9-1.3,1.46.62,1.57.26,1.29,2.3-3.23,1.29-14.09,3.72-15.01,6.8-.88,2.91.11,7.61-.21,10.95-1.21,12.98-3.6,26.05-.99,39.05l4.22-7.42c2.43-7.85,7.66-16.21,9.25-24.21.76-3.81-.35-20.93,6.19-15.92,3.42,2.63.69,6.87.57,10.51-.21,6.52-.83,14.91,1.56,20.83,7.36-10.66,12.43-24.26,16.2-36.53,10.72-3.54,5.49,11.56,5.58,17.73.05,3.37.79,9.45,1.15,13.1.12,1.14.35,6.26,2.4,5.69,5.98-2.42,14.95-32.63,20.37-39.47,4.22-5.33,10.23-7.4,16.67-4.63,1.94.83,2.88,2.43,4.11,2.98,2.85,1.28,7.77.66,9.56,4.64,3.09,6.86-2.15,23.97,2.34,33.16,1.23,2.52,4.23,3.49,4.26,6.38-13.48-.85-15.02-15.48-15.21-26.36l-8.27,15.55c-4.39,7.01-11.83,9.19-18.63,3.75-1.74-1.39-1.8-3.59-3.5-4.08-2.63,7.45-5.77,16.56-15.5,11.92-7.95-3.79-5.07-13.08-6.04-19.83-.23-1.63-.11-3.01-1.78-1.23-2.47,6.63-4.69,24-14.46,22.11-4.79-.93-6.82-4.39-7.35-8.92-4.75,5.17-3.29,25.18-10.37,27.2-5.24,1.5-11.64-3.15-12.38-8.52-1.93-13.99,1.05-30.87.94-45.06-5.06,1.94-10.3,4.94-14.17-.51l14.72-6.55c.93-1.38.57-9.35.52-11.75-.05-2.22-2.12-5.6.61-6.43,9.97-.93,8.75,6.62,8.47,14.08ZM266.36,53.07c2.96.52,3.87-1.33,5.48-3.13,5.86-6.51,8.31-16.76,13.6-23.75-2.15-2.22-3.49-5.34-6.86-4.06-8.29,3.14-13.08,22.68-12.22,30.93Z"/>
      <path d="M61.52,123.04l-11.15,5.09c5.19,8.77,6.47,16.22,3.34,26.14-3.74,11.85-15.05,12.28-21.09,2.22-1.17,5.17-7.35,7.61-11.98,4.88s-6.48-21.04-9.32-21.08c-7.72,7.73-6.94,19.47-9.07,29.44-.34,1.6-.93,6.43-3,6-4.31-1.49-7.87-.25-8.62-5.6-1.11-7.9,1.06-17.14.96-25.34-.15-12.31-2.91-25.06-2.12-37.52.13-2.02.94-10.39,2.02-11.19l9.28,2.3-.09,44.93c2.78-2.1,3.15-6.47,7.05-7.68,13.22-4.1,14.49,13.36,17.29,21.88,2.33.59,1.66-.46,2.31-1.28,6.14-7.76,3.64-15.94,5.02-24.34,1.79-10.95,6.38-4.93,12.17-6,6.8-1.26,17.74-14.1,25.49-8.03l.12,25.45c5.94-6.86,9.67-15.75,12.82-24.19l7.02.3c2.5,1.73-1.33,17.96-1.48,21.74-.3,7.49-.25,15.92,5.48,21.41-7.8.74-10.94-7.35-12.08-13.76-.37-2.07.31-9.28-.09-9.54-2.07-1.35-1.69.72-2.13,1.45-2.78,4.66-4.46,10.92-11.32,9.52-2.6-.53-6.83-4.96-6.83-7.43v-19.77ZM43.95,131.3c-8.21.73-4.53,27.25-2.21,27.21,6.69-2.76,9.75-27.88,2.21-27.21Z"/>
      <path d="M272.44,95.67c3.9.08,8.04-.5,11.78.9,1.4.52,1.73-.33,1.41,2.13-3.2.84-13.78,2.01-15.02,4.77-1.72,3.83-3.92,27.67-4.24,33.28-.34,5.9.48,11.88,0,17.73,2.66,1.54,7.47-9.48,8.29-11.47,2.38-5.76,4.29-18.8,7-22.41.35-.46,8.76-6.7,9.3-6.92,11.53-4.72,18.56,6.11,18,16.47,1.06,1.21,12.29-6.65,12.14-2.53-.13,3.58-12.04,6.94-12.93,7.83-.56.56-1.84,7.79-2.76,9.91-4.27,9.74-14.87,12.44-22.46,4.72-1.43-1.46-1.55-4.26-3.39-4.71-.73,3.74-3.44,13.02-6.04,15.49-3.17,3.02-10.6,1.21-13.27-1.77-6.97-7.79-.41-34.04-1.48-44.14l-11.59,10.64c9.3,8.58.84,39.84-14.26,28.38-6.98-5.3-6.4-25.95-1.97-32.35,2.76-3.99,6.18-.14,8.68.14,5.89.66,18.55-10.47,20.65-15.44,1.26-2.98-5.56-.54-6.59-.5-5.97.23-11.84,1-13.68-6.07,7.3.2,14.6.09,21.66-1.94l2.67-16.33c11.4-.47,8.88,5.87,8.11,14.21ZM297.52,116.08c-3.93.57-7.86,7.77-6.7,11.35.68,2.09,8.89,4.09,10.39,3.65,3.31-.96,3.38-16.03-3.7-15ZM236.96,151.43c6.93-.19,10.64-20.95,6.13-22.79l-7.15-.54c-1.54,8.5-3.35,15.31,1.02,23.33ZM300.83,136.23l-13.71-4.08c-.89,3.86-1.24,13.75,1.97,16.34l2.89.78c4.18-.64,9.13-8.83,8.85-13.04Z"/>
      <path d="M625.33,366.42c13.97-9.47,18.27,3.52,20.29,15.21,2.39,1.63,10.35-7.79,10.93-9.84,1.12-4.01.52-11.58,1.68-16.57,2.15-9.27,5.43-15.32,16.07-12.91,7.25,1.64,9.8,13.91,7.07,19.82-1.74,3.76-10.51,4.89-14.44,5.33.44,12.89,5.89,13.39,15.1,6.48,4.1-3.07,16.11-14.18,18.22-18.29,2.55-4.95-.79-9.08,8.6-7.34,1.66.52,1.7,1.91,1.75,3.39.27,9.47-7.77,26.9-4.96,36.33.86,2.9,4.51,1.57,3.86,4.75-13.2,1.53-12.73-11.35-12.17-21.29-8.74,7.29-13.4,15.47-26.41,12.73-2.84-.6-9.55-3.53-10.1-6.63h-1.99c-1.53,4.3-5.62,10.32-10.61,10.18-9.99-.28-9.8-10.6-13.21-17.37-.58-1.15-.11-2.39-2.07-1.99-6.73,1.06-6.75,23.39-5.71,28.78-1.36,4.04-10.79-.06-10.98-3.93l-1.8-59.85c.55-3.31,11.42-.17,11.97,4.17.26,2.04-1.07,3.43-1.07,3.99v24.84ZM673.75,359.07c1.3-1.4,3.59-12.97.76-12.92-5.01,3.52-4.8,9.35-6.61,14.67.78,1.25,5.52-1.4,5.85-1.75Z"/>
      <path d="M209.58,373.51c19.7-22.72,20.17,25.29,24.83,25.33,2.17-1.93,3.97-4.24,5.38-6.77,5.21-9.32.31-12.87,2.51-22.85,2.56-11.61,9.52-24.36,22.99-15.44,7.56,5.01,2.71,10.09-2.46,14.67-6.69,5.92-16.56,6.4-9.15,18.21,3.57.19,24.81-18.42,27.34-22.33,3.41-5.3,2.25-16.87,10.7-5.51-.81,6.36-7.93,30.59-3.82,34.74l5.84,2.24c-8.17,2.96-13.97.02-15.11-8.69-.53-4.03.65-7.67.42-11.57-5.97,5.68-15.9,18.08-25.08,17.05-3.42-.39-5.73-3.23-8.88-3.87-2.48,5.9-4.94,16.56-13.49,14-7.95-2.38-7.99-23.69-12-30.11l-2.91-.12-6.1,33.47c-4.36-.17-8.51-.56-9.17-5.54-1.26-9.45-.34-27.32,0-37.58.25-7.62,1.97-15.37,1.02-23.15.76-3.16,9.37.83,9.21,3.95l-2.05,29.86ZM253.18,368.44c2.58-2.58,7.68-5.4,9.19-8.55.63-1.32,1.78-1.73-.06-3.12-5.36-3.45-9.52,7.74-9.13,11.68Z"/>
      <path d="M335.32,27.72c2.17-1.21,2.94-5.02,5.78-5.87,15.32-4.57,10.2,26.94,16.84,26.02,2.16-.3,7.06-6.79,7.58-8.75.81-3.05-.49-6.95.7-11.43,3.21-12.09,14.15-27.43,27.95-17.77,7.71,5.41,5.02,8.18-1.04,13.24-4.98,4.16-10.66,6.62-17.01,7.83-3.9,12.52,1.17,21.74,14.64,15.15,3.61-1.77,6.72-6.63,8.97-7.26,2.49-.7,1.56,3.3,1.28,4.33-1.16,4.26-8.57,9.79-12.68,10.63-8.12,1.67-15-1.99-21.06-6.88-1.77,3.92-6.21,7.17-10.7,6.67-10.83-1.19-8.95-20.36-12.63-27.95-7.8,9.28-8.26,23.71-8.73,35.38-2.33.78-7.07,1.08-9.05-.38-2.69-2,3.3-58.69,2.06-66.94l.96-2.12c1.8-1.33,8.2,1.22,8.14,4.16l-1.99,31.92ZM390.76,16.27c.73-.78,1.83-2.48.34-3.23-6.01-5.39-11.29,7.49-13.19,11.63,1.25,1.05,11.55-7,12.86-8.4Z"/>
      <path d="M51.38,42.93c-.6-.69-15.61,6.15-16.22-2.02l17.01-5.31c2.03-3.28,1.06-19,3.92-19.94,12.44-4.1,4.42,15.3,6.46,18.15,6.83-1.86,14.33-3.77,21.28-2.02-2.11,4.51-21.04,6.18-22.3,8.86-.98,17.26-3.58,37.68,2.53,53.98,4.56-3.85,8.59-10.26,10.42-15.94,1.64-5.1-.11-8.53.25-13.94.51-7.57,3.86-19.75,12.63-20.82,24.81-3.02,12.35,21.62-3.36,22.49-3.28,23.86,14.15,12.83,22.65,1.89,6.78,5.28-7.87,15.52-12.65,16.74s-10.04.02-13.72-3.55c-1.21,0-4.6,17.28-14.29,18.22-3.34.32-8.51-1.88-10.57-4.53-1.29-1.66-4.03-10.46-4.03-12.19v-40.06ZM84.85,61.18c4.6-2.53,9.4-5.51,10.97-10.83l-1.83-2.86c-6.68.23-9.9,7.82-9.15,13.7Z"/>
      <path d="M642.58,94.65c6.93-5.85,11.91-27.21,23.29-15.72l-18.23,19.27c12.16,1.87,8.29,24.08,14.81,28.83,6,4.37,18.19-13.69,21.09-18.28,3.55-5.63,5.74-9.99,6.64-16.72,12.42-.17,8.29,4.58,8.12,12.21-.2,9.16-2.16,20.63,5.11,26.9-9.79,1.39-15.46-7.49-15.72-16.22-7.72,9.63-11.73,22.58-26.86,16.73-9.18-3.55-10.68-16.74-12.21-25.35-.27-1.52.99-2.85-1.49-2.54-9.88,1.22-9.3,26.04-7.61,33.47-2.9.18-7.46.05-8.11-3.54-2.28-12.55,2.84-32.52,4.05-45.64.55-5.94-2.91-21.67,8.06-14.13,4.33,2.98-.71,15.65-.94,20.73Z"/>
      <path d="M161.9,51.04l-18.06,5.25c-1.92,9.72-4.85,19.25-2.21,29.22-15.19,1.5-8.55-18.32-6.6-27.38,1.82-8.46,4.54-18.06,7.11-26.35,1.42-4.6,8.81-28.32,12.31-29.35,16.3,4.64,12.24,8.43,13.55,21.73,1.3,13.2,2.42,27.39,4.18,40.44.59,4.35,5.45,24.44,4.86,26.35-1.2,3.83-6.81,1.63-8.53-2.39-2.59-6.07-5.05-36.42-6.61-37.52ZM146.7,49.01l14.05-4.69-2.91-29.77-8.37,22.54-2.77,11.92Z"/>
      <path d="M123.37,104.28c.93-3.03,8.99-.91,9.95,2.22,1.4,4.53-2.56,18.72-.81,24.64l11.64-20.28c1.44-1.69,5.92-1.55,6.56.62.93,3.14-12.78,20.39-15.15,24.25l-.02,1.49c11.46.82,8.62,16.56,12.66,23.35,1.14,1.92,1.59.23,2.4-.67,2.27-2.54,7.76-15.86,8.79-19.6.91-3.31,1.52-15.14,2.45-15.81,1.7-1.24,6.28.13,7,2.27,1.17,3.45-.17,13.44.18,18.08.24,3.11,1.81,17.96,4.66,18.63,1.45.34,6.06-3.28,6.48-.35.27,1.87-1.83,2.43-3.04,3.03-6.75,3.33-12.97-1.9-14.97-8.35-.72-2.32,1.16-6.13-2.25-5.35-.98,4.68-3.36,15.79-8.61,16.32-12.66,1.28-12.4-17.17-15.75-25.44-1.62-1.23-4.04,3.62-4.04,4.56v24.84c-1.81,1.5-8.11.39-8.11-1.52v-66.93Z"/>
      <path d="M350.53,106.81l10.61-18.27c3.51-3.24,4.87-.96,8.64.04l-15.2,19.77c10.17,2.46,7.79,19.33,12.68,24.83,1.03,1.15,1.05,1.33,2.55.56,3.53-1.82,12.29-21.36,13.68-25.88,2.11-6.86-1.82-10.58,9.74-6.49.12,4.73-.15,27.23,2.86,29.35,1.77,1.25,3.47-.24,4.62-1.57,3.42,2.24-.91,6.84-3.51,7.65-4.98,1.57-8.57-1.4-10.75-5.59l-2.47-8.16c-2.73,9.41-12.03,22.97-22.37,13.73-5.51-4.92-4.93-15.67-8.57-21.85-4.9,9.24-1.56,22-3.55,32.45l-6.15-.45-.8-68.87c1.12-3.41,8.89-.89,9.8,2.07l-1.83,26.67Z"/>
      <path d="M421.52,286.3c5.8-5.63,8.1-23.38,19.61-15.06,5.55,4.01,3,10.7,3.81,16.47.61,4.36,5.33,18.62,9.74,19.74,9.69,2.46,14.3-26.07,18.68-30.65,1.36-1.42,1.51-2.1,3.92-1.65-3.63,10.49-3.44,36.05-18.04,37.3-14.39,1.23-22.84-22.83-22.53-34.27-7.93,8.09-9.99,20.59-12.25,31.34-2.76.42-10.3-.37-11.58-2.93l-1.35-49.04c1.17-3.65,7.56.39,10,.84,2.41,2.01-1.46,23.27,0,27.9Z"/>
      <path d="M199.43,211.27c1.28,1.27,10.67-4.4,9.11-.52-1.32,3.28-8.28,5.04-9.19,6.26-1.84,2.47-3.45,11.45-6.17,15.89-5.86,9.57-15.83,13.9-26.48,8.56-10.62-5.32-6.42-25.22-3.25-34.23,3.21-9.12,4.01-6.1,9.14-10.13,3.02-2.37,3.43-7.15,9.14-8.08,15.09-2.46,18.87,9.66,17.7,22.25ZM191.07,194.28c-5.26-5.32-13.89,7.58-10.81,13.27,1.41,2.59,8.14,6.59,10.57,5.47,3.48-1.62,3.05-15.89.24-18.74ZM173.07,209.24c-.84,9.36-7.51,22.68.48,30.17,10.47-3.4,14.07-10.89,17.61-20.57-6.28-3.35-13.03-3.9-18.09-9.6Z"/>
      <path d="M16.58,29.05c5.24,5.93.43,14.28-4.73,18.47-4.89,3.97-9.88,2.34-7.65,10.65,2.9,10.8,16.92,2.93,23.34,1.99,4.42-.65-.74,4.94-2.2,5.93-9.75,6.62-27.6,3.62-31.82-8.4-2.72-7.74-1.29-30.72,9.14-32.62,3.45-.63,11.55,1.31,13.91,3.98ZM10.8,31.78c-4.62-3.25-6.45,11.25-7.09,13.17,4.82,1.12,9.66-11.36,7.09-13.17Z"/>
      <path d="M229.84,109.86c1.71,1.97-9.73,17.08-11.33,20.6-3.82,8.37-6.4,19.03-4.88,28.07-3.41.92-6.76.38-8.97-2.69-.9-12.39.2-25.69-4.22-37.33,2.3-3.17,5.48-.89,7.82.77l3.33,10.86c3.59-8.86,8.96-16.74,18.26-20.27Z"/>
      <path d="M331.05,344.41c3.92-.39,18.75-1.02,21.76-.07,1.21.38,3.03,1.93,2.77,3.3l-27.83,5.62c-2.65-.34-5.13-4.08-5.63-6.59.32-1.56,7.15-2.08,8.93-2.25Z"/>
      <path d="M53.15,191.77c-.92.68-20.53,7.27-21.67,7.32-3.33.14-5.11-3.63-7.48-5.58l11.15-4.04c4.88-1.02,13.98-4.8,18.27-1,1.2,1.06.45,2.78-.26,3.31Z"/>
      <path d="M316.04,178.83c.35,1.74-.41,2.08-1.73,2.82-1.86,1.05-21.33,4.29-24.19,4.32-4.07.04-4.96-1.97-7.53-4.63-.61-2.76,9.2-3.35,11.66-3.52,3.14-.22,20.75-.41,21.79,1.01Z"/>
      <path d="M568.55.35c.31,2.18.08,1.64-1.29,2.26-4.68,2.14-27.54,5.09-31.94,3.07-2.43-1.12-5.19-6.75-1.83-6.3,12.16,1.61,23.01-1.53,35.05.97Z"/>
      <path d="M591.36,79.44c1.91.18,4.88,1.99,7.6,1.02,3.64,3.19-14.04,5.15-15.71,5.16-2.9.02-5.35-1.06-8.11-1.2-4.73-.23-7.06,3.36-11.17-2.95l1.03-2.03c8.54.57,17.95-.77,26.37,0Z"/>
      <path d="M717.1,197.07h18.25c.3,0,1.88,2.04,2.5,2.53-3.59,6.18-23.61,8.42-25.31.99l4.55-3.53Z"/>
      <path d="M144.67,193.02c-.41,1.96-2.03,1.78-3.54,2.02-4.91.78-23.16,3.92-26.17,2.07-2.19-1.34-3.47-4.43-.24-5.67,6.53-2.5,22.68.5,29.96,1.57Z"/>
      <path d="M65.57,276.16c.29,2.15.13,1.65-1.28,2.27-2.03.9-21.31,6.89-22.48,6.82-2.95-.18-5.22-2.66-5.65-5.53.2-1.02,11.42-3.57,12.68-3.57h16.73Z"/>
      <path d="M589.7,380.74c1.8,2.76-7.2,15.64-7.97,15.08-1.29-8.11-4.67-22.53,7.97-15.08Z"/>
      <path d="M386.07,80.51c5.64-.5,10.78-.3,7.95,6.41-5.74,13.62-11.63,3.88-7.95-6.41Z"/>
      <path d="M453.71,213.54c5.59,5.5-6.88,13.22-10.45,5.82-2.48-5.14,6.67-9.54,10.45-5.82Z"/>
      <path d="M704.33,75.47c-.47,11.69-15.63,11.02-9.07-1.68l9.07,1.68Z"/>
      <path d="M168.68,265.12c2.22-.7,6.24.9,6.47,3.46-4.92,19.52-13.29-1.32-6.47-3.46Z"/>
      <path d="M461.66,334.01c2.23-.66,6.66,3.09,8.5,4.51l-5.67,7.56c-4.51-.25-6.26-11.06-2.83-12.08Z"/>
      <path d="M706.16,329.09c10.75-3.27,8.03,11.45-.04,8.79-3.01-.99-4.07-7.54.04-8.79Z"/>
      <path d="M545.88,252.48c-.78.81-3.96,3.79-5.21,2.38-2.59-2.92-1.18-6.72-.41-10.02,7.53-.44,11.88,1.13,5.62,7.64Z"/>
      <path d="M170.72,111.63c-.63,1.65-5.71,4.29-7.67,2.14l-.65-9c1-1.44,1.37-.81,2.59-.58,4.11.77,7.49,2.81,5.73,7.43Z"/>
      <path d="M288.32,337.18c2.85-1,6.76-.28,8.44,2.37l-7.6,6.65c-4.1-.63-4.48-7.74-.84-9.01Z"/>
    </g>
  </g>
</svg>