<?xml version="1.0" encoding="UTF-8"?>
<svg id="logo_guidelines" data-name="logo guidelines" xmlns="http://www.w3.org/2000/svg" xmlns:xlink="http://www.w3.org/1999/xlink" viewBox="0 0 722.39 382.13">
  <defs>
    <style>
      .cls-1 {
        fill: none;
      }

      .cls-2 {
        clip-path: url(#clippath);
      }
    </style>
    <clipPath id="clippath">
      <rect class="cls-1" width="722.39" height="382.35"/>
    </clipPath>
  </defs>
  <g class="cls-2">
    <path d="M1.61,563.58h-6.41V-166.14h729.72v729.72h-.71v-14.25s-14.25,14.25-14.25,14.25h-13.54c6.05-5.48,12.57-9.63,17.8-16.05,10.48-12.9,14.59-33.19,3.88-47.31-11.35-14.95-38.25-15.18-38.06,7.78,23.43-18.75,44.16,5.44,30.5,30.15-11.34,20.49-34.51,27.13-55.36,16.44-8.84-4.53-20.75-18.04-20.75-28.42v-10.33c-2.08,1.4-3.53,4.09-4.85,6.19-1.14,1.82-5.88,9.54-6.26,10.9-1,3.57,7.24,17.01,10.03,19.98,3.87,4.12,9.65,7.02,13.91,10.67h-17.82c-1.93-4.37-5.77-7.26-8.15-11.45-.5-.89-2.43-6.99-3.24-6.37l-7.85,17.81h-11.4c24.32-60.09,68.36-111.74,123.98-145.04.39-.47,1.44-3.13,1.44-3.54v-10.33c-2.74.83-5.64,2.84-8.06,4.41-46,29.83-75.47,56.7-104.12,103.97-9.73,16.06-18.95,32.88-25.36,50.54h-12.83c3.69-12.5,9.78-24.64,17.82-34.91-5.86,1.16-11.3,2.64-17.37,2.04-20.72-2.05-30.42-26.85-24.31-44.85-7.78-5.3-17.52,3.81-23.68,8.49-8.27-1.75-20.76-10.19-26.42-.27-.06,1.74,18.89,17.04,6.18,17.07-6.6.01-24.11-5.79-29.12-3.51-.8.36-4.49,4.4-4.69,5.27-.77,3.47,14.73,12.33,16.96,17.35,3.45,7.76-12.69,4.09-16.18,4.06-3.63-.03-16.09-.01-18.6,1.42-1.22.7-5.33,5.34-5.29,6.83.06,2.34,15.68,13.78,18.2,17.4.88,1.26,1.32,1.97,1.03,3.6h-37.77c13.06-38.87,46.63-73.56,86.4-84.99,16.68-4.79,57.8-11.95,67.8,6.68,3.53,6.58,2.77,20.77-6.96,19.83-3.18-.31-7.4-3.62-6.56-7.08,1.51-6.22,5.44-1.61,7.59-3.16,2.61-1.88-.26-6.74-2.65-8.14-8.32-4.86-15.57,3.09-15.26,11.66.85,23.2,37.47,27.43,39.23-.73,1.75-28.07-25.54-37.3-48.83-36.01-59.95,3.33-115.65,43.12-131.45,101.93h-18.53c7.42-24.6,22.68-45.76,40.6-63.78,0-3.17-18.23-9.81-21.68-9.59-1.84.12-5.62,2.16-5.28,4.43.48,3.25,12.1,18.29,11.3,19.05-6.44-1.27-21.37-8.16-27.04-4.6-1.05.66-3.95,4.04-4.17,5.13-1.04,4.99,15.37,21.78,14.11,22.99-3.29-.44-6.45-1.5-9.73-2.02-3.66-.58-11.61-2.01-14.89-1.57-3.06.41-4.45,3.22-5.72,5.71l18.23,24.26h-13.54c-7.84-11.93-16.63-23.41-26.35-33.87-1.56-1.68-9.69-8.65-9.99-9.25-1.13-2.26,4.73.17,5.42.28,3.21.53,6.62.93,9.89.78.8-.04,11.31-1.36,8.91-3.55-1.01-.43-2.12.71-2.49.71h-11.4c-26.21,0-44.66-27.56-74.14-26.4-45.49,1.8-70.05,47.76-107.21,66.31l4.98,4.98h-4.28l-2.59-3.46-5.96,3.46h-31.36c19.73-9.42,39.52-18.21,56.95-31.77,19.07-14.84,40.16-42.27,34.51-67.89-2.53-11.48-15.79-23-28.04-19.7,9.28,4.63,16.44,10.45,17.73,21.46,4.75,40.49-48.67,71.94-80.09,85.79-10.18,4.49-20.82,7.68-31,12.11h-22.8l9.98-3.21v-14.25c0-1.83-3.73-.39-4.64-.36-2.96.09-5.95-.05-8.9,0l.05-2.8,12.78-1.47v-9.27h-13.19l-1.07-1.77c.46-2,10.67-1.75,13.04-2.64,2.49-.93.45-7.4-.17-9.54l-12.46.42-.43-1.79c.57-1.75,10.23-1.84,12.35-2.63,2.8-1.05.07-6.8.49-9.13-.52-.54-9.01,2-11.7.05-4.02-2.91,9.14-4.5,10.89-3.71l2.22-23.42-13.39,12.62c-7.25,24.06-4.93,48.95,1.28,72.9h-14.96c-2.06-11.58-4.36-23.49-4.98-35.28-.39-7.46.24-15.02.34-22.45l-18.16,12.13c-.77,1.12,16.74,12.21,17.06,13.27.29.95-.17,1.38-.63,2.08-1.41,2.13-8.37,6.98-10.74,9.22-1.01.96-4.28,3.83-4.28,4.99l18.91,11.04c1.39,2.13-3.53,2.66-3.22,5h-4.99c.77-.84,5.15-3.78,4.27-4.98-4.73-2.23-9.83-4.69-14.19-7.55-1.26-.83-5.07-2.76-4.85-4.23l16.18-14.96-14.59-11.05c-2.93,14.08-4.34,28.63-1.08,42.76h-24.94c2.49-6.67,6.85-12.72,9.61-19.25,1.07-2.54,5.89-15.38,4.64-17.09l-14.58,7.86c-2.59,9.51-8.49,16.9-13.36,25.12-.65,1.1-1.5,1.88-1.27,3.36ZM20.85-160.44H.9l1.78,29.94,18.17-29.94ZM62.18-99.87v-16.75c0-3.5-9.7-8.42-12.81-9.28-7.43-2.06-16.08-1.19-23.53.36,4.28-3.83,16.13-16.63,21.19-17.65,6.56-1.32,4.78,5.54,8.38,9.09l2.55-1.87c.47-2.83-6.79-13.5-8.95-15.94-2.48-2.78-9.66-9.65-13.48-8.59L-.54-98.09l7.19-5.64c16.7-13.25,41.11-12.14,55.53,3.86ZM69.31-160.44h-12.83c14.36,17.59,18.16,39.95,16.3,62.26-.8,9.62-4.25,21.56-10.59,28.95,9.81-43.12-50.73-50.42-63.97-12.3C-14.71-44.34,35.27-21.55,62.19-10.44,85.59-.79,112.2,7.7,137.71,4.17l-30.65-5.33c-16.28-5.57-32.5-11.77-48.22-18.77-6.48-2.89-13.81-6.02-19.47-10.1h16.75c5.07,0,15.88-5.21,19.93-8.57,7.03-5.83,8.55-11.3,12.43-18.92.28-.55.24-2.24,1.48-1.01,1.13,1.12,3.3,17.15,5.72,19.95l5.69-2.13-4.32,4.03c-.44,2.84,5.15,10.51,7.63,12.31,1.71.31,3.64-5.94,5.61-2.8,1.73,2.74-4.05,5.02-3.92,5.35,4.02,5.33,9.92,10.4,16.64,11.82,1.4-1.81,2.59-4.65,5.45-4.32-.7,2.08-5.69,4.09-3.54,6.03,1.65,1.49,7.76,3.47,10.13,4.12,25.47,7.06,64.09-3.26,74.78-29.63,5.89-14.53,2.82-31.27-9.77-41.09-6.78-5.29-13.5-5.62-21.65-5.79,1.77-28.09,39.47-37.56,60.5-23.8-3.89.12-7.73-.74-11.68-.28-7.64.89-17.08,7.29-18.19,15.31-2.41,17.44,11.74,28.08,27.73,20.97-3.24,6.61-5.24,13.78-8.42,20.43-1.06,2.21-4.59,6.67-5.11,8.44-.45,1.54,1.04,1.08,1.79,1.08,8.97,0,9.46-6.02,9.61-13.57h2.13c2.17,2.09-6.42,21.71-8.17,24.97C193.64,37.74,76.76,59.14,11.58,38.74c-4.21-1.32-9.5-4.92-12.79-5.76-.88-.22-1.13-.59-1.83.38-3.7,6.03,8.08,9.46,12.11,10.73,58.04,18.45,168.49-1.09,209.16-49.57,13.69-16.32,25.1-40.15,23.53-61.97-.19-2.61-1.49-11.46-3.91-12.48-1.73,10.62-16.4,8.62-18-1.24-2.53-15.65,16.96-17.08,26.43-8.62,16.2,14.46,6.82,49.42-.83,66.64-16.06,36.15-41.9,54.83-78.54,67.55-17.76,6.16-37.31,8.87-53.22,19.46-9.65,6.42-17.42,15.63-24.42,24.75,7.28,1.42,6.55,5.61,9.51,10.43,9.61,15.63,40.02,12.65,43.57-6.51,3.08,5.65-2.88,14.08-7.11,17.83-17.28,15.34-64.59,16.67-82.66,2.11-3.37-2.72-5.28-7.52-10.35-6.39,3.47,5.99,8.37,10.34,14.25,13.89-.26.85-1.53.22-2.14,0-8.17-2.85-15.3-12.02-17.09-20.32l5.35,5.03c8.42-1.71,17.04-2.71,25.43-4.52,5.65-1.22,8.58-1.3,8.41-8.34-1.73-1.77-37.72,3.56-43,4.39-12.05,1.89-23.92,4.74-36,6.4-.96,1.92-1.73,10.58.35,11.24l17.36-3.51-.71-3.55c2.12.08,2.13,2.06,4.62,2.2,4.01.22,10.54-2.76,14.9-2.75l10.47,11.54,16.33,8.96c-9.22-1.64-19.36-4.55-27.56-9.14-5.28-2.96-9.3-8.21-15.91-7.96-2.18,2.16,8.51,8.14,9.96,8.92,27.26,14.7,84.52,19.85,109.7-.79,8.49-6.96,16.44-21.76,11.38-32.64-4-8.62-19.93-10.86-22.4-1.87-1.52,5.51,3.92,2.15,6.82,5.34,7.11,7.81-7.97,18.03-17.47,11.06-9.99-7.33-6.6-18.5.7-26.37,12.53-13.51,40.57-16.1,57.92-21.89,45.59-15.19,79.97-51.94,89.03-99.82,2.81-14.83,4.13-43.19-6.88-54.69-20.54-21.46-61.08-24.77-79.01,1.58-7.58,11.14-10.47,29.35-.13,39.43-.52-9.41,9.35-10.66,15.92-6.29,10.13,6.73,12.15,20.52,7.94,31.22-7.62,19.39-32.97,26.51-51.92,23.45-33.93-5.48-52.43-39.85-53.18-71.89-1.08.07-1.08,1.11-1.43,1.77-7.53,14.25-9.95,28.82-23.5,39.92C46.01-23.65,1.13-34.76,4.47-71.71c1.67-18.49,21.88-31.75,39.17-23.51,10.84,5.16,17.12,20.41,7.53,29.59-11.02,10.54-26.98-4.95-11.05-11.84-3.82-11.75-17.27-2.29-18.5,6.53-2.88,20.82,20.77,26.63,36.06,18.95,16.26-8.17,25.58-38.42,34.06-54.3,11.29-21.17,25.12-39.84,44.55-54.14h-10.33c-1.11,0-14.69,13.01-16.4,14.96-3.6,4.11-6.7,9.16-9.97,13.54-.85-.45-.24-2.1.04-2.81,3.59-8.95,13.89-19.77,21.69-25.34-1.83-.33-5.7-.8-7.32-.36-.42.11-5.43,5.24-6.19,6.08-8.23,9.06-15.75,23.59-20.81,34.77-.81,1.79-4.56,13.05-5.23,13.31-1.59.64-1.02-1.65-1.06-2.49-.28-5.13.38-10.59-.01-15.67-.94-12.27-4.95-25.57-11.39-36ZM94.25-160.44h-14.25c1.95,6.67,4.76,13.08,5.11,20.19l.54.89c.95.7,4.46.34,5.03-.95l3.57-20.13ZM181.19-160.44h-19.6c-3.77,0-26.09,18.56-29.59,22.43-22.94,25.32-31.07,67.49-7.47,95.16,17.17,20.13,54.47,20.57,63.8-6.77-7.08.62-11.73,1.1-18.04-2.65-12.01-7.15-17.1-24.04-16.2-37.3,1.59-23.39,27.94-47.24,46.85-58.62l23.73-12.26h-14.61c-1.28,0-20.33,9.76-22.93,11.28-30.59,17.93-55.55,54.29-36.95,89.93,4.87,9.34,11.74,13.23,21.04,17.46-1.96,4.61-9.62,4.24-13.93,3.94-13.79-.96-25.79-12.42-32.69-23.61-2.63-4.27-5.86-8.9-5.4-14.19l5.67,8.22c3.65,4.63,14.97,4.6,14.26-2.84-.33-3.47-8.68-6.89-11.54-9.65-4.75-4.59-10.02-14-8.35-20.64l2.09-.03c-.25,3.27,2.37,7.15,5.03,8.88,8.21,5.34,17.66-1.72,10.32-9.61-2.98-3.21-5.67-4.69-7.89-9.21-1.38-2.81-5.13-12.64.34-12.11.37,9.51,18.88,12.12,18.36,2.58-.29-5.23-10.21-14.11-5.12-21.12l1.79-.39c1.85,6.27,12.63,11.94,17.09,5.74,2.86-3.97-.41-6.34-.75-10.67-.24-3.07-.35-9.16,3.58-9.65-.34,8.11,9.47,10.96,15.15,6.43,3.78-3.02.15-6.89,1.96-10.7ZM201.85-160.44h-18.53c1.15,4.43,7.44,5.12,11.08,3.6l7.45-3.6ZM343.66-160.44h-20.67l13.31,7c29.65,16.48,63.92,45.57,65.45,82.06l8.89,6.42c-7.15-34.35-18.47-69.64-43.25-95.34l-13.75-.14.69,1.37-10.3,5.76-.36-7.13ZM391.3-160.32l-6.3.24c7.83,9.34,14.3,21.14,18.87,32.44,1.76,4.35,2.72,9.81,4.62,13.91.33.71.41,1.67,1.44,1.76.79-16.96,5.96-33.13,12.83-48.45-1.2.07-2.68-.27-3.8.11-3.3,1.11-10.26,27.35-10.81,31.96-1.89.58-1.92-4.63-1.84-5.39.13-1.3,1.33-.93,1.47-1.53.52-2.19.47-5.38,1.08-8.06s1.41-5.31,2.5-7.82l-8.44,4.38-1.17,3.45c-2.05-3.35-5.05-6.85-7.08-10.03-.63-.99-2.98-6.7-3.38-6.95ZM416.35-160.44h-12.47c-1.27,0-8.24,2.91-8.24,4.63,0,1.51,7.93,5.26,8.83,5.21,3.4-.19,10.44-6.48,11.88-9.84ZM445.57-160.43c-1.41.11-3.2-.32-4.52.11-1.51.49-8.99,17.11-10.07,19.86-.58,1.49-3.28,7.51-2.51,8.53,12.14-9.04,26.77-14.71,42.07-11.79,27.44,5.23,53.86,38.24,39.53,65.97-8.75,16.92-30.99,18.61-45.2,7.41-9.47-7.46-12.54-17.65-12.18-29.51-17.01,20.01,1.64,44.42,24.6,46.31,17.75,1.46,34.43-11.01,39.01-27.95,10.37-38.31-29.88-74.1-67.17-65.04-3.42.83-6.3,3.11-9.97,2.49l6.41-16.38ZM451.98-160.44l-4.24.03-3.59,12.08c7.69-2.02,15.59-2.42,23.51-2.13-.16-7.17,6.2-6.94,2.14.71l16.99,4.18c.87-2.03,2.55-4.46,5.1-4.17.94,2.84-3.6,4.99-1.42,7.47,2.09,2.37,8.92,4.94,11.18,8.14l5.69-3.39,2.04,1.33c1.27,2.5-4.76,4.29-4.67,4.62l10.66,15.01,7.15-1.82c-9.44-29.8-42.53-44.11-71.97-37.77l1.42-4.27ZM515.4-160.44h-27.08l12.6,4.15c3.4.47,8.09,6.59,10.56,6.61,3.72.03,2.15-3.39,2.58-6.05.26-1.62.71-3.21,1.35-4.71ZM538.21-160.44h-14.25c-2.49,8.92-4.05,20.29-2.79,29.51.73,5.34,6.57,13.4,8.13,18.95.41-16.56,3.26-32.9,8.91-48.46ZM577.4-40.01c-11.86-14.33-18.82-26.25-22.45-44.89-4.03-20.7-.43-41.71,3.93-62l14.01,10.61c2.28.33,2.73-5.15,2.39-6.55l-13.21-12.64.37-4.96-7.42-.04c-8.15,26.81-13.14,55.56-6.34,83.29,7.69,31.39,31,55.11,56.52,73.25,3.94.18,4.36-5.07,3.04-8.1-1.25-2.88-7.9-5.49-10.11-7.7-.59-.59-1-.65-.75-1.73,7.04-1.82,9.97-9.33,12.62-15.34l-8.34-6.76-6.06,21.37c-5.63-4.86-11.87-9.71-16.76-15.33-.7-.8-.95-1.91-1.42-2.48,4.25.98,16.83-9.13,15.35-12.79-1-2.47-5.52-5.03-6.1-7.87l-1.46.44c-1.17,2.96-9.86,18.11-7.79,20.22ZM580.96-160.44h-14.96c.62,3.5,6.98,11.56,10.33,12.13,1.57.26.85-.33,1.08-1.06,1.16-3.69,1.92-7.53,3.55-11.06ZM598.07-160.43l-9.16.09c-13.81,37.64-16.78,78.32,15.57,107.16,10.16,9.06,20.24,13.14,31.84,19.46,1.77.96,6.08,4.7,7.57,4.32,12.03-11.92,17.64-30.13,14.75-46.96-2.55,3.14-3.99,6.89-6.76,9.98-14.14,15.82-37.32,13.66-49.4-3.35-15.03-21.16-17.68-42.14-11.9-67.22,1.85-8.03,4.81-15.75,7.49-23.5ZM608.04-160.43c-4.96-1.14-5.81,2.63-7.47,6.42-8.36,19.11-12.44,45.99-3.92,65.54l2.18-10.33c-3.92-21.01-.95-42.82,9.21-61.63ZM655.08-160.44h-13.54c.53,37.39,61.71,32.6,67.7,0-7.23-1.14-5.28,1.35-8.25,5.63-2.21,3.18-7.03,8.56-10.47,10.19-1.32.63-7.9,3.01-6.2.22,3.33-5.5,5.42-9.24,3.56-16.05h-10.69c9.14,11.31-5.99,19.89-16.17,13.68-5.19-3.16-6.48-7.81-5.92-13.68ZM700.68-160.43h-9.26c-.6,11.18,6.88,7.57,9.26,0ZM682.51-111.98c3.64.24,7.7,0,11.4,0,1.06,0,6.91-1.8,8.38-2.31,8.58-2.99,16.47-9.41,21.91-16.57v-29.57l-2.82,11.79c-4.85,12.06-15.06,21.98-27.66,25.78-26.16,7.89-66.6-3.53-63.58-36.85-2.06-2.12-10.72,10.49-11.7,12.17-6.02,10.32-8.28,22.3-8.96,34.15,29.12-26.98,68.56-2.23,80.35,29.74,9.7,26.32,10.57,47.7-2.17,73.02-1.07,2.12-8.04,12.25-6.93,13.38,7.14,2.29,11.77-10.05,14.16-15.42,8.64-19.46,11.1-37,6.9-58-2.88-14.38-8.74-32.09-21.04-40.96-.09-2.34,1.38-.37,1.78-.35ZM241.4-137.64c-6.5-.6-14.66,0-21.38,0-.78,0-3.11,1.42-4.63.71-.01-.75.68-.98,1.25-1.23,4.32-1.88,10.82-1.21,15.3-2.51,5.15-1.5,8.68-7.59,12.3-11.2,1.39.89.76,1.15.73,2.12-.1,2.84-.96,5.7-1.07,8.54,1.91,2.11,9.54-3.36,11.33-4.68,3.53-2.59,6.62-5.75,9.69-8.84l1.71,1.16-3.5,15.93c1.9,1.91,19.13-11.98,21.72-13.55.84-.51,2.04-1.91,2.87-.71,1.16,2.01-3.99,17.35-4.64,20.67,1.25.14,2.32.04,3.52-.39,5.92-2.13,14.4-10.37,20.3-13.19.86-.41,1.5-.92,2.54-.66,2.22,1.54-7.82,21.93-6.4,23.51,3.97-.33,24.47-13.94,25.98-13.53.93.25,1.11,1.38.97,2.32-.45,3-9.89,20.34-8.43,21.9l27.07-10.68c1.86,1.91-11.01,21.88-9.97,22.8,1.47.16,2.87-.07,4.31-.32,6.67-1.14,14.41-4.84,20.61-5.79,1.08-.17,1.84.12,2.83.46,1.74,2.48-13.12,20.42-12.07,21.33l25.87-3.4c3.64.3,2.36,5.67,2.72,8.3,2.97.74,7.26,2.96,9.89.43.54-2.9-14.6-22.1-17.45-25.29-31.25-35.05-79.53-62.7-127.93-52.37-18.56,3.96-36.09,14.77-51.3,25.66,4.33.19,8.77-1.51,13.15-1.81,43.66-3.01,86.12,25.34,114.77,55.6,5.16,5.45,8.45,14.41,15.07,3.22-14.59-18.73-33.42-35.48-53.98-47.69-12.06-7.16-29.73-15.51-43.77-16.81ZM573.12-131.22c-3.33,1.04-20.28,5.42-17.5,10.68,1.3,2.47,12.5,3.75,14.89,2.2,2.23-1.45,1.54-10.28,2.6-12.88ZM485.47-99.15c-.68-15.74-24.02-12.41-24.28,2.5-.35,19.56,28.44,28.24,36.22,9.09,3.99-9.81,1.86-18.39-4.52-26.49-14.66-18.64-43.53-21.55-60.17-4-29.13,30.72,5.69,90.5,25.51,118.47,2.69,3.8,12.97,17.65,16.28,19.35,3.64,1.87,12.96.58,11.57-4.39-.24-.84-8.06-9.47-9.45-11.27-17.43-22.56-45.15-63.71-42.46-92.91,1.87-20.32,22.33-35.3,41.81-26.16,8.09,3.79,15.61,13.95,11.3,22.98-4.53,9.48-18,.82-11.48-5.78,3.14-3.18,5.87-1.23,9.66-1.38ZM528.95-96.3c1.17-1.16-2.37-17-3.9-18.55-1.97-2-5.94.34-8.22.74l4.32,17.78,7.8.03ZM633.53-112.51c-15.24,2.09-26.58,17.92-20.33,32.79,7.64,18.19,36.17,6.66,29.58-9.63-2.91-7.19-13.54-4.13-10.86.17.69,1.11,3.75,1.59,3.96,3.95-1.84,7.55-13.39,5.39-14.83-1.63-3.49-16.92,17.92-21.91,30.25-15.29,22.46,12.06,19.83,44.01,11.04,64.03-16.34,37.24-58.12,47.08-94.16,55.49-2.63,1.72-2.04,8.66,1.2,9.48,1.95.5,19.56-3.7,23.01-4.52,45.43-10.73,83.95-32.02,86.92-84.11,1.52-26.62-16.38-54.78-45.77-50.76ZM723.32-111.81c-6.07-3.14-10.53,1.52-15.85,3.41-3.37,1.19-8.33,1.47-10.88,2.66-4.55,2.12.92,12.98,7.86,11.44,6.12-1.36,2.44-7.63,6.21-10.55.87,5.38,3.34,9.24,9.45,7.66,5.59-1.44,4.66-10.37,3.21-14.62ZM570.8-92.92c2.53-2.01.09-10.95.18-14.07-3.18,2.34-15.62,9.59-16.06,13.16-.06.5.21,2.27.83,2.56,1.9.54,13.54-.45,15.05-1.65ZM322.08-53.05c.78-.67,2.52-3.93,2.25-4.98-.2-.78-9.18-10.82-10.58-12.28-9.13-9.58-20.91-19.22-31.99-26.44-.81-.53-5.39-3.52-5.79-3.11,3.23,8.6,7.25,16.88,10.51,25.47,9.71,25.62,14.53,57.65,39.43,73.16,2.38,1.49,9.56,5.33,12.03,5.82,3.82.75,5.26-2.51,4.2-5.64-.26-.76-11.34-6.34-13.77-8.34-23.16-19.03-23.94-45.03-37.32-68.86-1.11-1.98-10.06-13.67-9.37-14.49,4.02,1.52,6.15,5.78,8.87,8.58.84.86,1.99,1.31,2.81,2.18,8.76,9.29,16.66,19.52,24.97,29.21l1.45.62c.86-.08,1.65-.34,2.31-.9ZM530.2-91.15c-2.84-1.44-5.89-1.91-9.06-1.55l-2.18,11.35c6.71,1.14,11.13,7.67,15.67,12.12l-4.43-21.93ZM718.25-86.08c-3.72-3.55-14.65-2.56-15.47,3.64-2.49,18.7,27.34,7.68,15.47-3.64ZM276.68-51.41c-1.2-8.89-3.55-18-6.78-26.35-1.13-2.92-2.62-6.89-4.61-9.28,1.64,8.7,2.49,17.5,2.14,26.37l6.41-1.42c-.68,2.83-3.76,3.49-6.38,3.58l-.74,7.81,9.98-.71ZM563.24-63.61c1.8,1.15,14.28-3.65,15.23-5.61,1.88-3.87-2.36-9.1-3.22-12.83-.71-.54-11.45,12.12-11.99,13.3-.59,1.29-1.31,4.31-.02,5.14ZM724.2-59.6c.82-6.69-.61-14.87,0-21.73-1.24.18-1.22,1.44-1.63,2.29-2.19,4.55-3.64,9.24-6.09,13.86-2.47,4.65-10.04,14.14-11.2,18.02-1.26,4.2.12,11.42-1.76,16.06l7.5-6.75c3.74-4.36,12.52-16.44,13.17-21.74ZM522.36-39.13c-3.31-3.32-14.25.93-17.22,4.18-11.53,12.63,6.91,25.34,21.48,15.78,19.86-13.02,12.82-50.72-8.63-58.67l-4.72,6.83c10.47,5.14,19.66,18.62,17.76,30.6-1.02,6.42-12.82,20.87-18.82,12.5-1.6-2.23-2.18-6.99,1.76-6.39-2.32,7.38,7.74,7.14,9.12.91.32-1.47.32-4.68-.73-5.74ZM261,60.47v16.03c0,.44,1.23,2.98,1.86,3.17l4.58-1.87-.77-19.45c-2.12-.02-3.7.13-3.54-2.47.09-1.49,6.17-9.38,7.5-11.8,2.86-5.18,5.03-10.75,6.76-16.4,1.22-.9,4.37,4.7,5.33,5.71,6.91,7.29,16.99,11.04,26.52,5.84,12.09-6.59,3.19-22.49-5.69-17.81-5.81,3.06,1.72,6.12-.13,9.82-6.77,4.89-14.28-1.74-15.28-8.97-2.04-14.74,8.73-23.85,22.74-23.82-1.25-1.64-4.22-5.27-6.2-5.56-3.97-.58-16.6,4.54-19.04,7.76-2.04,2.69-4.14,11.85-5.77,15.61-12.01,27.78-28.08,48.44-51.32,67.69-10.68,8.85-22.74,16.61-34.54,23.9-.32,1.38.39.89.89,1.25,3.23,2.32,8.33,3.25,7.65,8.36l-12.35-7.72-14.72,7.73,8.21,5.67,1.76,5.01-12.57-9.19-15.93,8.13c3.9,2.78,9.85,4.42,9.26,10.33-1.03.21-1.31,0-2.08-.5-2.26-1.46-8.33-8.36-10.48-8.59l-15.22,5.88c-1.92,1.29,3.3,3.37,3.92,3.92,1.09.96,7.03,7.82,3.55,8.55-1.05.22-9.59-9.56-11.54-10.58l-17.31,4.89c2.7,4.37,9.35,6.79,8.55,12.81-1.8.36-1.79-.24-2.74-1.18-1.64-1.62-7.98-9.72-9.17-10.08-4.04-1.21-12.71,2.83-17.31,2.71,3.09,3.86,9.75,8.79,6.06,14.23l-9.26-13.53h-17.46c.14,2.12,2.34,3.04,3.44,4.75,1.3,2.03,2.95,5.86,2.79,8.26-.42,6.42-4.25-4.15-4.95-5.39-.83-1.46-4.5-7.5-5.57-7.97l-20.66-2.15,26.7,19.27c9.44-1.05,19.01-1.16,28.41-2.63,33.76-5.29,60.15-21.89,90.49-35.64,55.51-25.17,152.08-57.85,164.78-126.68,1.63-8.84,3.54-27.28-9.65-26.4,4.07,14.17-12.28,13.68-17.95,3.34-10.87-19.83,12.97-39.74,31.82-41.14,55.95-4.15,66.25,76.99,58.62,117.06-11.74,61.66-72.37,103.03-96.85,157.55-2.62,5.84-5.06,11.28,3.32,4.74.81-.63,5.2-4.95,5.28-5.43.17-1-4.27-7.02-2.77-9.52,1.03-1.17,4.48,5.42,7.38,4.87l9.01-9.51c-4.97.46-5.99-6.32-5.69-10.33,2.03.06,2.06,2.13,4.03,3.44,7.45,4.96,7.71-1.25,12.07-6.22.97-1.11,4.06-2.09,2.78-3.63-4.7,6.36-8.22-5.15-7.48-9.26,2.27,0,2.14,2.77,4.02,4.17,1.73,1.29,4.5,1.54,6.33,2.85l8.89-10.95c-4.91-.29-6.5-7.53-6.41-11.75l6.02,5.02c1.14.58,3.72,1.56,4.88,1.28.76-.18,10.77-10.16,11.18-10.94.81-1.57-1.89-.21-3.35-.86-3.45-1.55-6.57-7.86-5.9-11.6,3.78,3.59,7.09,6.62,12.48,7.6.87-.09,12.13-11.43,12.45-12.24.12-.31-.02-.72,0-1.06-3.08,3.9-8.38-2.32-10.15-5.16-.86-1.38-3.14-6.75-.18-4.81,1.56,1.02,3.37,3.23,5.11,4.16,2.67,1.43,6.43,1.25,7.72,3.67l9.21-12.17,11.81-24.17c-2.06,1.22-2.04,4.34-5.18,3.46-1.11-.31-10.22-9.52-9.06-10.58,3.53-.57,5.93,3.55,9.08,4.13,2.65.49,4.7-1.04,7.27.13l6.45-14.95-3.78,3.46c-4.54-2.52-6.41-7.13-11.16-9.52,4.74-3.41,9.34,4.73,15.19,2.38,1.93-.67,4.39-10.39,4.74-12.71-4.81,4.1-8.99-5.88-14.52-6.36l-.44-2.19c5.99-.88,10.28,5.26,16.24,1.98l.85-11.96-3.57.42c-1.32-1.48-11.6-6.92-11.38-7.89.85-3.84,12.7,5,14.96-.01v-11.76c-5.27,2.49-9.37-4.58-14.97-4.28l.33-2.16c1.49-2.11,8.83,2.41,12.82-.05,1.45-.86.4-4.11.06-5.65-.18-.81-1.71-5.35-1.95-5.53l-13.34-4.48-.06-2.07c5.86-.7,11.53,3.67,9.05-5.14-6.46-22.95-27.15-54.26-50.71-61.88-23.61-7.63-55.34,4.95-61.92,30.06-4.45,16.98,7.86,37.15,26.58,34.38l1.46.8c-11.71,41.62-48.97,71.3-85.49,91.22-15.51,8.46-35.8,18.94-52.4,24.56-.96.33-2.05,1.48-1.77-.34,19.14-12.56,35.11-28.89,48.45-47.4ZM305.68-53.36c2.85,6.43,4.59,14.12,8.62,20.26,2.65,4.04,4.35-.83,2.63-4.06-.82-1.54-3.58-1.4-4.28-2.84s-.14-3.39-.65-5.05c-.64-2.07-4.9-5.98-5.75-8.56-.62-1.87.32-2.66.16-3.77-.21-1.42-7.06-12.39-8.46-14.25-.5-.66-1.44-2.23-1.31-.12,3.43,5.36,5.1,11.54,7.63,17.3.36.82,1.32.86,1.42,1.08ZM522.53-44.28c.51-7.24-4.28-14.65-10.24-18.48l-4.72,4.58c6.24,4.26,5.76,16.1,14.96,13.9ZM546.05,48.35c-1.31,1.09-5.56-5.19-6.39-6.07-20.29-21.3-42.26-39.25-57.6-64.97-5.34-8.96-8.82-18.83-14.39-27.65l-15.68-9.62c-1.32,1.47,10.32,21.83,11.99,24.7,20.03,34.52,40.64,52.96,66.76,81.46,11.02,12.03,16.17,20.86,22.57,35.87,1.05,2.46,1.77,5.11,2.73,7.61,1.24.17.67-1.62.7-2.48.62-16.61-2.36-41.44-4.28-58.43-2.31-20.46-6.8-40.62-9.97-60.94-1.97-.28-1.09.22-1.43,1.06-4.32,10.97-9.04,17.01-20.71,20.74-.42,2.42,6.11,7.79,7.86,9.93,5.28,6.45,9.89,13.43,14.67,20.25l3.17,28.54ZM513.27-43.57c-.54-5.23-4.16-9.76-7.84-13.23l-4.93,2.63c.65,4.55,4.14,7.89,6.36,11.71l6.41-1.12ZM305.89,451.7c1.11-3.35,4.28-7.66,5.58-11.17l7.24-11.64c-25.5,14.83-49.06,5.35-72.45-7.72-17.9-10-42.59-25.61-55.09-41.82-16.91-21.93-19.21-59.29-26.58-86.01-6.73-24.36-15.83-52.64-39.7-65.05,60.48-24.35,97.75-81.18,150.42-116.81,33.31-22.54,72.75-40.05,95.01-75.3,11.95-18.92,23.74-50.92,13.37-72.4l-7.25-10.2c22.06,12.19,25.99,41.12,26.36,64.13.39.44,4.99-3.45,4.99.36,0,1.03-.74,1.85-1.79,1.81l-2.48-1.45c-.95,10.33-2.13,20.69-4.48,30.8-.56,2.42-2.31,5.58-2.66,8.03-.23,1.55-.1.95.77.74,6.92-1.66,4.37,8.51-1.47,1.04l-6.42,16.38c7.53.43,4.24,7.66-1.41,1.43-5.28,10.88-13.66,19.58-21.21,28.85l4.1,10.35c21.17-21.43,36.19-49.23,39.81-79.55,3.21-26.86-.31-75.65-29.59-87.81-13-5.4-33.32-2.2-35.16,14.15,6.73-5.57,13.67-5.64,20.6-.29,14.67,11.32,9.21,37,3.65,51.99-17.54,47.33-66.09,67.69-105,93.82s-70.37,60.53-108.71,86.54c-18.35,12.45-38.51,23.7-59.24,31.63-.88,1.18,7.08,2.95,7.81,3.23,42.2,16.19,48.41,77.21,60.41,115.6,7.08,22.64,15.29,43.77,35.1,58.25-15.39,1.06-31.45,4.24-41.31,17.12-1.48,1.94-2.62,3.37-2.15,6.04,12.96-14.99,29.11-20.13,48.8-18.52,29.61,2.43,47.17,31.77,78.37,33.51,6.65.37,10.51-2.04,16.77-2.16-9.51,11.74-12.23,27.9-8.6,42.44,4.59.6,9.27,1.3,13.24,3.87.69-3.44-1.44-6.86-1.78-10.33-.66-6.75,0-17.42,2.13-23.87-2.92-.08-6.37.73-8.54-1.78,2.48-3.15,8.61-2.67,8.54,1.78ZM497.24-52.05c-7.22,2.58-5.54,5.12-2.37,10.84.7,1.26,3.21,5.53,4.48,5.53l6.06-5.39-8.17-10.98ZM277.39-37.16v-11.05c0-.43-1.02-1-1.64-.96-.52.03-8.18,2.43-8.56,2.7l-2.63,7.16,12.83,2.15ZM479.87-45.61c-.45.28-.67,2.04-.5,2.76.64,2.76,7.03,14.35,8.83,17.58,5.81,10.37,12.69,19.03,20.77,27.69,2.65,2.84,21.53,21.47,23.21,21.73,1.96.31,3.45-.3,3.2-2.48-13.55-17.85-32.47-32.16-43.62-51.93-1.75-3.11-5.4-12.65-6.96-14.42-.94-1.07-3.91-1.57-4.93-.93ZM555.3-42.14l-1.4.34,10.68,48.83,7.63-2.45-6.93-28.19c-1.97.2-1.69,2.34-4.98,1.42l.44-2.19,3.83.05c2.2-2.57-8.4-14.61-9.27-17.81ZM-3.38-40.01v11.05l6.24,1.96c2.4,5.84-1.64,11.78,4.09,16.21,8.71,6.73,15.09-3.83,19.08-2.75,3.36.91,1.67,10.36,3.31,12.97.75,1.19,5.99,2.67,7.54,2.67,4.57,0,10.84-5.99,12.73-5.65,2.82.51,1.6,7.63,2.96,9.85.96,1.58,7.07,3,8.89,2.57,3.34-.8,7.15-7.85,9.9-4.25,1.9,2.5.81,6.26,4.03,7.37,8.02,2.75,8.3-1.18,14.24-4.23,2.69.06,2.61,3.85,3.54,4.98,1.33,1.63,12.18.53,14.85-.02,1.1-.52.68-2.98-.71-3.43-2.63-.87-7.85-1.09-11.06-1.77C68.16,1.55,27.74-13.05,5.87-31.8c-1.04-.89-8.39-9.18-9.25-8.21ZM72.16-24.33c8.4,4.21,12.9-1.8,16.99-8.36l-2.04-6.61c-2.43.47-6,8.92-6.46,9.25-.25.18-1.71-.63-2.81-.39-3.49.76-9.42,5.13-13.52,5.75,7.47,4.39,15.51,8.1,23.52,11.4,2.86,1.18,12.7,5.64,14.77,5.95,2.75.41,3.18-2.2.86-3.76-2.55-1.71-7.17-.54-9.22-3.61,3.54-.22,7.05,1.37,9.97,3.21l-6.91-8.48c-4.95.59-5.56,6.29-10.9,3.48-.38-2.09,2.33-1.33,4.25-2.51,5.35-3.33,3.62-6.74.38-11l-9.39,10.01c-1.07.19-11.31-2.67-9.49-4.32ZM687.75-37.77c-11.47-4.87-6.15,6.37-3.45,12.01,1.82.29,1.1-.17,1.48-1,.81-1.77,2.89-9.58,1.97-11.02ZM221.45-36.43c-2.93,3.69-5.96,7.47-8.55,11.4-.5.77-1.66.82-.37,1.79,12.11,2.21,20.16-3.3,8.92-13.18ZM277.39-35.02c-9.3,2.25-14.79.2-17.08,11.06,3.76,1.93,9.44,1.95,13.01,4.06.91.54,1.47.74,1.22,1.98l-18,3.56c-.9,1.78-4.43,5.52-2.23,7.03,3.04,2.09,9.49,3.81,11.96,5.75.83.65.37,1.35.45,2.19l-18.73,1.58-5.48,5.92c-.33,1.38.38.88.88,1.24,3.6,2.58,9.11,4.84,12.27,7.67.87.78,2.03,1.46,1.8,2.83-.88.76-19.34-.65-23.12.04-1.94.35-4.01,2.53-5.37,3.89.01,1.52,12.86,10.1,14.63,12.43.74.97,1.31,1.48,1.03,2.89-1.43,1.37-22.82-6.03-27.78-3.9-.3.13-4.87,3.96-5,4.26,3.27,3.31,15.64,10.66,17.27,14.08.47.98.94,1.52-.16,2.32-1.6,1.05-11.66-3.67-14.11-4.44-6.85-2.14-14.3-5.56-20.81-1.62-.27,1.19.39,1.44,1.08,2.12,4.7,4.58,12.07,8.63,16.74,13.19.77.75,1.67,1.24,1.41,2.5-5.48.93-11.8,1.66-17.1,3.2-16.13,4.69-10.75,12.18-13.53,26.01.71.74,9.98-5,10.72-6.02,1.04-1.42,1.01-4.05,1.96-5.88,2.98-5.76,13.35-5.97,18.21-8.87,9.51-5.66,26.38-25.29,33.11-34.59,12.37-17.1,28.78-51.07,30.68-71.93.14-1.52.14-3.02.09-4.54ZM296.63-20.06l-4.63-14.96c-1.89,4.46-1.17,10.74-1.78,15.68l6.42-.72ZM619.45-32.17l-.64,4.52c3.16,3.53,8.08,2.31,11.31-.6.01-.88-9.85-4.73-10.67-3.92ZM638.69-24.32l-7.82-4.29c-.35,6.37-22.82,11-22.81,13.18,3.21,2.5,3.67,7.25,8.72,5.89,2.95-.79,12.41-6.85,15.3-8.94.84-.61,7.11-5.12,6.61-5.85ZM724.2-23.62c-3.71-1.93-12.7,5.93-13.9,8.57-1.29,2.82,2.25,4.96-2.48,6.77-4.53,1.74-4.79.62-8.58,4.95-2.95,3.37-3.55,4.78-4.21,9.33-6.47-.71-8.94,5.39-12.06,10.05,3.09,4.5,11.1,11.8,16.99,9.13,1.06-.48,7.37-7.57,7.71-8.7.77-2.57-1.29-4.87-.27-7.37.78-1.1,7.31-.43,9.84-1.57.87-.39,5.14-4.37,5.58-5.12,1.68-2.88-1.03-5.67-.59-7.79.18-.85,1.65-1.37,1.96-2.94.85-4.23-.6-10.79.01-15.31ZM-3.38,2.75v15.68l11.18-4.16,1.7.9.32,19.65,1.4,1.19c3.8.4,13.85-11.99,17.49-14.36,1.25-.65,2.88-.62,3.98.28,2.76,2.24.6,18.91,4.32,19.96,4.04,1.14,13.05-12.45,15.86-15.31,1.24-1.3,3.56-1.42,5.06-.66,2.5,1.26,4.98,17.24,8.32,18.09,5.81,1.48,10.63-17.86,16.27-17.71,3.27.08,11.14,16.53,14.11,16.27,6.01-.52,7.97-17.92,12.39-19.04,4.11-1.04,10.26,13,14.86,13.44,8.88.84,3.52-22.58,13.12-18.17,3.54,1.63,13.46,16.26,16.92,7.65,1.22-3.03.78-13.87,2.81-15.18,5.61-3.65,15.27,13.51,20.23,6.86,3.34-4.48-1.14-13.17,1.67-15.42,4.66-2.64,11.91,5.84,16.29,4.92,8.48-1.78-.62-14.3,2.62-16.67,1.45-1.06,10.45,2.49,13.92,1.83,1.28-.24,3.82-2.42,3.8-3.77-.02-1.52-3.02-7.92-3.98-9.57-.25-.43-.02-1.4-1.21-.9-1.15.48-5.51,5.73-7.15,7.1-13.56,11.28-35.67,19.19-52.52,24.44-35.71,11.11-66.52,15.54-103.89,8.73C29.22,15.65,12.59,9.77-3.38,2.75ZM593.08-.11l-22.79-19.94,5.73,23.48c1.41,1.34,14.38-3.29,17.07-3.53ZM299.48-14.36c.05-7.19-12.74-3.48-10.69,2.85l10.69-2.85ZM672.88-2.24c.87-3.76,9.26-9.72,4.54-12.72-9.56-6.07-7.43,5.9-5.58,11.29.24.68.09,1.63,1.04,1.43ZM303.04-10.08c-1.54-4.42-8.15-1.83-11.39-.33-3.44,1.59-4.67,2.51-4.28,6.75,4.65-3.03,10.11-5.61,15.67-6.42ZM652.94,17.71c1.24.31,1.42-.51,2.14-1.06,1.55-1.18,10.19-10.12,9.94-11.33-2.09-2.73-8.62-6.48-11-2.56-.11.19-1.08,3.7-1.08,3.91v11.05ZM394.96,21.27c.92-3.03,2.46-18.32-3.13-17.05l-2.92,7.14,6.05,9.9ZM570.28,64.75c16.3-3.96,33.21-5.94,49.32-10.89,28.99-8.9,35.9-17.21,55.06-39,1.31-1.48,10.16-9.15,8.91-10.68-3.76.93-6.21,1.32-9.18,4-7.76,6.99-17.53,22.54-25.46,27.99-6.18,4.25-25.99,10.98-33.77,13.26-12.57,3.68-30.1,5.12-41.31,9.29-3.51,1.31-4.01,2.08-3.58,6.04ZM324.43,35.53c6.97-7.25,10.21-8.22,4.64-17.83-4.89-8.43-13.77-14.66-23.93-12.5-5.33,1.13-9.56,5.97-9.55,11.45,0,1.72.4,5.03,2.36,2.75.99-1.15,1.29-2.53,2.7-3.71,6.6-5.52,16.41-.56,20.34,5.82,2.87,4.66,2.4,8.94,3.43,14.03ZM650.8,20.57c-6.11.43-10.19-11.14-15.94-6.49-.61.5-2.41,13.02-3.26,15.43-.66,1.85-.92,3.26-3.24,3.25-3.94-.01-8.3-13.58-14.62-10.42-2.73,1.36-4.79,17.71-6.87,18.21-4.33.84-4.29-3.27-6.07-5.97-.68-1.03-3.97-5.88-4.45-6.23-8.14-5.93-8.25,17.31-12.86,17.68-3.29.26-6.34-16.23-11.97-14.68s-2.31,10.6-1.94,14.51c.19,2-.11,4.06,0,6.05,23.7-4.13,48.75-8.49,69.34-21.52l11.89-9.83ZM498.3,28.4c.88-.86-5.36-6.95-7.52-7.1-3.37-.23-7.34,4.22-11,4.26,3.71,4.93,14.28,18.54,21.36,15.3,5.37-2.46,1.86-10.17-4.45-8.76-2.4.54-2.22,2.66-3.72,2.79-1.52.04-3.13-.03-3.27-1.87-.3-3.71,5.91-4.49,8.6-4.62ZM591.65,116.78c-3.34,4.78-7.41,8.98-10.97,13.61-3.86,5.02-10.3,12.89-13.15,18.21-2.55,4.78-4.26,11.68-6.63,16.89-8.19,18.01-22.6,37.41-39.16,48.49-40.09,26.84-97.52-2.65-94.74-51.98.27-4.76,1.97-10.22,2.16-14.94.13-3.34-.8-6.27-.65-9.15.97-19.11,17.68-35.9,25.5-52.24,6.02-12.58,11.09-32.32,10.07-46.21-.15-1.98-1.33-12.75-1.72-13.9-.46-1.36-1.96-2.92-3.25-3.57,1.71,18.41.98,36.08-5.18,53.62-6.4,18.21-21.18,36.89-26.15,53.67-8.49,28.67-12.38,53.2,5.79,78.93,19.4,27.46,47.23,33.63,78.82,23.5,40.66-13.05,46.79-44.01,65.59-76.93,32.1-56.21,85.81-90.51,145.88-111.37.44-1.81.96-11.32-.74-11.41l-7.46,3.95-1.45-.78c.52-3.45,2.87-7.28,2.87-10.67,0-1.11.17-1.24-1.08-1.07l-14.31,8.54c-1.48,2.32,3.82,6.31,2.45,8.48-28.58,11.21-55.65,26.22-79.71,45.29-2.47.73-8.35-4.8-11.4-3.14l2.72,10.21-7.74,7.27c-3.77.84-13.13-10.52-15.69-8.64-.88.65-.74,1.88-.65,2.82.41,4.61,4.23,11.73,4.07,16.64-.03.8-1.01,2.23-1.6,2.24-1.38.03-22.26-15.92-23.16-14.87.33,2.42-.82,6.33.72,8.18.91,1.09,13.1,8.05,15.19,9.04,1.5.71,3.08,1.24,4.76,1.31ZM694.98,41.24l-18.88-16.43-13.88,13.21c-.02.87,3.28,1.4,4.11,1.58,4.58.99,23.08,3.67,26.85,3.02.84-.14,1.68-.42,1.81-1.38ZM473.36,39.09v11.05c0,.81,9.18,10.22,10.67,12.13,18.57,23.87,39.71,62.88,16.08,90.15l-6.8,4.95c17.83-27.22-7.7-60.4-38.47-47.03-.33-1.48.76-1.63,1.61-2.3,2.9-2.29,6.83-3.17,10.02-5.66,3.67-2.86,8.45-8.66,4.77-13.08-3.54-2.15-6.17,6.17-8.54,7.89l-10.71,8.16c-.57-.6,6.91-12.95,7.74-14.7,6.88-14.36,14.41-38.17,11.46-54.04-.44-2.38-4.25-6.47-6.03-8.22-1.87-.15-.71.31-.53,1.24,7.64,41.08-8.81,53.4-25.84,86.39-.92,1.78-6.97,13.45-6.04,14.26,8.22,1.37,12.16-6.5,18.58-10.27,20.57-12.06,43.76.67,39.53,25.28-1.48,8.63-9.08,13.98-17.79,12.72-11.83-1.71-13.17-20.23-2.93-20.68,6.78-.29,5.95,5.5,7.25,5.82,7.24,1.75,7.05-11.67-.23-16.32-11.11-7.1-22.02,2.63-23.57,13.97-4.78,34.95,39.66,41.87,58.12,14.65,18.58-27.41,4.34-62.64-12.83-86.67-5.58-7.81-15.29-20.68-21.96-27.21-.48-.46-3.43-2.67-3.56-2.5ZM387.85,53.34c2.05-1.99,5.46-13.67,4.88-15.87-4.27-5.41-11.71-14.21-13.33-1.75l8.45,17.63ZM303.04,50.5c-8.78-1.68-17.12-5.6-23.87-11.39-5.09,9.59-2.69,21.54-4.63,32.05,3,.13,4.3-1.3,4.81-4.09.67-3.69-.59-20.94.89-22.27,3.95,1.73,7.15,4.54,11.14,6.31,3.6,1.6,10.68,5.3,11.65-.61ZM642.25,51.92l21.12,4.23c1.54.69,6.01-1.36,5.87-3.03l-8.1-14.03c-18.33,14.18-41.26,19.73-62.54,27.96-4.21,1.63-26.07,10.03-27.67,12.24-3.05,4.22.57,9.28,3.61,12.18,1.39,1.33,7.46,6.76,8.94,4.63.7-1.01-1.8-14.14-1.85-16.74-.03-1.45-.28-2.92,1.11-3.92l22.07,13.53c1.01-.7,1.11-1.23,1.06-2.4-.19-4.72-4.29-11.23-4.81-15.97-.11-.97-.28-2.78.93-3.01,1.33-.25,21.37,11.69,24.82,10.63,1.15-.35,1.23-1.22,1.07-2.27-.36-2.31-7.54-14.24-6.3-15.48,4.03.63,24.18,8.7,26.37,5.69l-5.7-14.24ZM516.82,52.63c-.37-3.48,1.93-5.77-1.05-8.57-5.68-5.33-12.32.28-18.18,1.79,29.66,33.2,52.74,81.18,23.39,122.45-26.11,36.72-85.45,26.82-81.86-22.71.31-4.21,1.82-8.24,2.17-12.44l-8.08-.03-.69.89-2.63,31.21c2.59.24,5.71-2.1,7.82.36l-7.11,3.21.71,5.7,9.26-2.14c1.82,1.83-6.12,6.2-7.84,5.7l2.15,6.41c3.87-.86,6.34-4.87,10.68-4.27l-6.09,10.69,4.3,4.25c1.6-1.09,7.97-9.31,9.62-7.82l-3.36,11.76c1.26,2.23,3.71,3.08,6,3.8,2.17.12,6.27-12.38,8.76-9.86l-.74,13.07,8.52,2.55c.69-.49,4.04-18.91,7.18-10.99,1.2,3.03,1.7,8.6,2.13,11.97l.87.72,9.12.48c-1.98-5.06.81-10.41,0-15.67,2.34-2.26,7.75,7.9,9.28,9.6.89.99,1.81,1.95,2.8,2.84l6.36-1.85-2.76-17c1.04-1.17,11.94,8.28,13.58,8.91,2.4.93,5.21-2.83,6.28-4.87l-7.75-13.66c.77-1.01,1.08-1.17,2.35-.97,2.07.33,11.31,6.96,13.31,5.98l4.19-6.35-9.87-12.21c.71-.99,1.23-1.1,2.4-1.05,4.1.17,9.98,3.08,14.26,3.59,1.22-1.9,3.3-6.28,1.94-8.28-1.55-2.27-8.13-6.04-10.3-8.26-.69-.71-1.6-.96-1.17-2.38.81-2.63,12.65,0,15.34-.32,2.26-.26,1.62-5.2,2.41-7.07-.38-.67-11.38-6.33-13.26-7.81s-3-2.92.17-3.66c4.56-1.07,9.3-.11,13.76-1.56l-.6-7.39-15.01-4.99.73-2.84,12.54-3.17-2.38-7.85c-2.21-.52-14.75-2.34-15.13-3.94-.63-2.6,10.7-3.85,12.03-6.39.17-2.13-20.4-32.27-23.45-35.62-2.08-2.28-3.63-4.62-7.11-3.94ZM290.83,57.71l-6.3-4.37c.14,3-.78,6.45,1.4,8.94,2.05,1.3,5.81-3.01,4.91-4.58ZM374.29,82.56l8.24-15.74c-4.58-5.29-15.02-22-19.36-7.76l9.53,22.59,1.59.91ZM193.92,64.66c.3-.9.22-1.95-.27-2.76-.31-.52-9.08-7.31-9.66-7.5-1.35-.46-5.82,1.71-7.09,2.88-.19.87,8.98,9.25,9.78,9.49,2.69.79,4.79-1.48,7.23-2.1ZM-3.38,68.67v11.76c4.98-.45,9.58,7.68,13.35,8.43,2.7.54,5.99-1.28,8.74-1.32-2.09-2.39-9.24-6.04-9.21-9.61.03-4.22,4.69-5.68,8.15-5.38,5.28.46,5.72,4.47,8.89,7.53,5,4.83,9.74,6.32,16.4,3.9-2.73-3.07-8.38-3.87-8.6-8.91-.24-5.69,5.57-7.05,10.21-5.86,2.93.75,4.54,4.85,6.49,6.69.85.81,8.13,5.95,8.65,5.95h11.76c.34-1.68-.21-1.14-.92-1.6-3.95-2.53-11.67-4.54-10.47-10.85.62-3.27,5.15-4.27,8-3.8,5.51.92,7.41,8.24,13.38,8.78l3.42-4.31-9.57-10.16-26.2,1.92c-1.72,6-4.52,1.15-7.89.73-5.43-.69-12.17.61-17.77-.01-1.02.28-.36,4.99-2.9,5.04-1.39.03-12.79-8.44-15.31-9.67-1.43-.7-2.64-1.27-4.31-1.02-.04,1.07,1.32.89,2.04,1.86,2.5,3.36,1.75,8.49.77,12.36-3.07.43-3.6-1.73-5.32-3.54l-1.77,1.07ZM97.81,57.63c-5.62-.15-11.17.86-16.74,1.44-1.04.11-2.09-.63-1.79,1.04l8.91,6.61,9.61-9.08ZM157.68,111.78l16.36-8.93c6.92-16.12,4.37-35.98-11.77-45.25l-16,3.59c-.29,1.62.09,1.13.91,1.58,7.2,3.97,12.12,4.53,15.86,13.35,5.38,12.7.14,24.15-5.36,35.66ZM724.2,63.33c-3.44.49-6.06,3.73-6.42,7.12-2.36.43-2.33-3.18-3.55-3.96l-1.6-.2c-10.59,4.44-21.93,7.11-32.38,11.88-1.18.54-12.49,5.51-10.92,7.25,10.03-.14,11.97,6.13,12.12,14.97l12.11-4.28c.39-2.66-2.28-4.37-3.02-6.59-1.14-3.48-1.07-8.64,1.95-11.21.75,1.83-.15,3.41,1.02,5.39,2.01,3.4,7.83,3.21,9.48-.58,1.23-2.84-.72-4.35.89-6.22,7.22,3.6,3.89,9.17,1.79,14.94l10.59-1.52c2.77-4.63-.83-13.19,5.08-14.86-.8,2.21.15,4.82,2.85,4.26.98-1.97-1.11-4.53-1.15-5.36-.04-.7,1.07-1.78,1.12-2.87.12-2.72,0-5.44.03-8.15ZM479.66,70.57c-3.77-.66-7.03-.14-6.16,4.33,1.79,9.17,9.19,20.71,10.92,30.45l9.6,5.71-14.36-40.49ZM345.63,74.85c-1.22.3-4.78,3.11-4.81,4.49-.01.68,6.29,11.28,6.77,11.76,2.21,2.16,9.81,3.22,12.43,6.13,2.67,1.3,7.02-2.92,6.09-5.36-1.31-3.44-16.52-17.99-20.49-17.02ZM665.76,88.27c-1.8,6.92,7.44,12.4,9.69,5.01,1.56-5.13-2.7-4.91-5.55-5.93-1.1-.39-2.04-1.6-3.04-1.66-1.86-.11-17.42,9.19-18.19,10.78-.59,1.23,4.64,2.52,4.96,4.29l6.88,10.37,11.66-5.77c-4.18-5.58-9.35-3.76-8.36-12.28.12-1.07.73-4.4,1.94-4.81ZM67.17,103.22l21.17,14.87c2.71.77,4.9-2.38,4.2-4.89l-7.21-17.81c-1.55-.36-5.39,5.71-7.26,6.27-.91.27-12.27-.41-10.9,1.56ZM492.6,95.39c2.46,7.17,3.77,14.88,6.07,22.07.57,1.79,1.92,7.16,4.25,6.42,2.72-.86-.74-12.55-1.41-14.97-1.2-4.34-3.38-14.71-8.91-13.53ZM392.83,154.89v14.96l-1.43.72c-2.45-1.85-.46-11.09-2.49-11.04l-13.04,14.03.57,13.75h-2.12c-.64-2.63-.66-5.69-1.42-8.23-.89-2.97-1.61.22-2.47,1.12-4.32,4.51-8.49,9.18-12.42,14.04l.61,11.6c-3.76-.49-2.41-5.49-3.91-7.83-2.48,3.26-14.22,13.62-14.61,16.8-.35,2.76,2.1,6.59.71,9.56-1.92,1.44-3.47-5.42-3.91-6.41-3.04,5.07-11.99,12.32-14.09,17.31-1.3,3.08,2.23,7.08.56,10.49-1.29,2.31-3.85-4.19-3.22-5.35-.18-.78-.94-.43-1.44-.02-.8.65-8.73,12.34-8.89,13.11-.41,1.97,2.13,7.06,1.78,8.98-.1.51-1.25,1.53-1.78.37l-1.79-6.41-11.81,18.51c-1.54,2.19,2.13,4.62,1.84,6.06-.62,3.07-4.04-1.73-4.98-1.05-1.68,3.47-3.74,6.49-.73,9.96-5.66-.33-4.8,8.09-8.2,11.41-1.74-4.4,4.15-11.35,3.22-15.2-.13-.53-1.41-.46-1.47-.9-.33-2.23,4.77-6.89,6.31-9.33,6.81-10.78,14.03-30.44,18.49-42.79,6.39-17.67,11-36.16,6.98-55.09-3.24-15.28-15.31-27.92-31.03-29.9l-.72,5.71c-1.84.2-1.13,0-1.44-1.04-.55-1.84-.29-4.11-1.35-5.78-1.21-.86-8.26-.04-9,1.07-.86,1.29.44,4.57-2.09,5.73l-1.78-4.98c-1.39-1.41-12.82,4.95-14.51,6.52-1.47,1.37-2.01,4.74-3.98,3.43-3.25-2.16,5.35-7.28,7.05-8.19,5.55-2.96,13.07-4.1,18.08-7.58,5.42-3.77,11.2-10.49,16.54-14.82,11.83-9.58,36.52-28.49,51.27-16.39,11.98,9.82-3.05,24.03-10.36,16.06-1.97-2.15-1.48-4.6-3.52-6.49-8.04-.63-9.14,8.42-5.85,14.43,7.81,14.26,32.09,9.74,37.16-5.89,6.62-20.4-12.19-35.64-31.48-33.61-19.47,2.05-49.72,27.69-65.02,40.44-17.82,14.84-53.11,43.57-39.45,70.05,6.6,12.78,26.06,17.27,34.79,4.76-25.17,7.63-31.51-17.11-20.25-35.58,12.96-21.27,44.88-27.24,60.47-5.71,18.99,26.22-5.83,69.9-15.3,96.49-5.55,15.58-10.53,31.63-13.29,48-3.4,20.18-8.04,66.87,14.47,77.72,6.38,3.07,19.23,4.22,21.65-4.19-11.17,1.54-18.31-6.54-22.22-15.91-14-33.59,11.36-82.03,30.19-109.74,24.97-36.74,56.39-69.28,89.98-98.15l5.38-28.47-19.23,18.88ZM640.1,105.37c1.92,7.19,11.85,2.56,7.14-3.21-3.89-4.77-10.93,4.63-14.25,7.13l6.41.36.7-4.27ZM724.11,111.68c-.21-9.87,2.85-11.6-7.62-9.4-21.41,4.51-46.29,16.56-65.46,27.18-16.29,9.03-33.33,20.37-35.14,40.74,15.89-21.39,45.47-25.26,69.11-14.96,2-3.38-2.58-4.13-2.84-5.36-.3-1.37,1.38-1.81,2.47-1.82,6.51-.05,3.25,8.43,4.95,10.03,1.99,1.87,7.9,3.7,8.86.2.32-.86.1-1.53-.26-2.32-1.43-3.19-7.84-1.08-2.71-4.89,2.11-.1,4.37,1.01,5.53,2.77,3.17,4.8-2.04,8.39-1.41,9.24,2.71,1.27,15.64,9.13,17.46,8.22,1.92-2.27,9.22-7.49,6.44-10.71-1.62-1.88-16.95-9.13-20.19-10.47-18.05-7.5-34.65-9.07-53.93-5.23l-15.67,4.29c14.57-15.37,38.73-21.58,59.42-18.81,10.76,1.44,20.77,5.88,31.08,8.47-.94-2.27.39-8.05-.08-9.5-1-3.12-22.92-7.54-26.68-7.63-3.33-.08-6.31,1.75-9.59,1.87-1.09.04-1.77.31-2.13-1.12l4.27-1.47-.7-3.52c3.23-.59,3.41,2.28,6.65,2.09,5.42-.3,9.03-3.51,13.7-4.91,2.16-.65,13.98-2.22,14.48-2.98ZM654.36,114.64l-24.54-2.88-8.94,8.56,20.24,2.14,13.24-7.83ZM570.31,128.14c2.67-.31,5.42,2.09,8,1.34,1.19-.34,3.67-2.98,3.3-4.39-.29-1.11-9.51-8.1-10.62-6.9l-.68,9.95ZM227.52,131.73c.49.38,7.94-5.26,8.22-5.71.45-.73-.55-5.5-1.48-5.7l-9.3,4.99,2.55,6.41ZM-3.38,131.74c.16,2.16-.74,4.84,1.04,6.44,30.14,14.94,59.77,33.7,79.78,61.32,4.99,6.88,8.91,14.38,13.21,21.68,3.29-.72,9.72-.53,9.16-4.81-.89-6.84-9.95-20.59-14.25-26.42-16.99-23.06-45.38-44.41-69.92-59.06-4.01-2.39-14.15-8.68-17.98-9.82-1.33-.4-.94.22-1.05,1.04-1.1,8.31.4,5.94,4.93,8.62,4.18,2.47,1.39,7.26-2.79,6.71l.61-4.51-.57-.87-2.17-.31ZM314.44,125.32l-9.14,5.4-.05,19.78,3.85,3.31c1.72-9.56,4.7-18.77,5.34-28.5ZM632.27,127.46c-4.54.01-15.25-2.15-18.92-.05-.64.37-7.54,8.77-8.47,10.06-10,13.9-17.32,33.63-8.83,50.07s35.1,23.68,46.19,5.82c-3.52.09-5.82,2.18-9.59,2.53-22.02,2.03-32.5-20.54-25.88-39.42,4.37-12.45,15.76-20.97,25.49-29.01ZM216.81,128.88c-2.2,1.03-10.77,4.09-11.31,6.2s4.72,8.1,5.96,10.15c7.23-3.63,6.89-9.24,5.35-16.35ZM303.04,149.55v-17.82c-2.15,1.8-7.09,3.77-7.16,6.73-.02,1.02,1.04,7.13,1.51,7.82l5.65,3.26ZM198.28,138.15l-12.69,7.47,7.72,13.9c1.15.8,4.52-3.4,4.83-4.78.42-1.92.85-7.61.9-9.8.06-2.41-.32-4.48-.76-6.8ZM295.2,145.27c.13-1.1-.7-6.32-1.77-6.39l-5.34,3.91c-.32,1.54.64.94,1.58,1.25.88.29,5.23,1.55,5.54,1.23ZM324.42,150.25c-3.02-3.81-7.13-6.65-8.9-11.39l-4.33,16.39,2.89,2.72,10.34-7.72ZM178.34,148.84l-16.39,7.49c4.67,5.97,9.62,11.78,14.62,17.44l1.77-1.06v-23.87ZM334.4,153.12l-7.34-2.04c-3.75,2.66-6.27,7.29-10.42,9.23l4.94,10.62,12.82-17.81ZM345.09,154.54l-8.41-.57c-3.62,7.07-8.45,13.99-14.27,19.23l2.02,11.26,20.66-29.92ZM77.15,294.21v-10.69c-4.33,2.63-8.82,3.93-13.9,4.13-2,.08-4.93-1.87-6.75.5,4.55,5,12.64,1.45,18.51,1.79-4.32,4.93-10.29,1.99-15.35,1.4-2.01-.23-3.99.85-5.95-.07.24-6.13-7.82-7.52-12.12-11.75-4.54-4.47-8.82-12.81-9.32-19.18-.19-2.37-.54-5.73,1.03-7.5,2.04-2.29,14.87-9.42,18.43-11.5,3.38-1.96,23.12-11.77,24.05-13.01,2.16-2.89-3.63-12.98-5.46-16.03-14.03-23.41-45.71-47.51-72.06-54.79-3.67-1.02-.39,5.05-.2,6.61.61,5.03-3.46,10.56,3.56,11.45l10.31-9.64c2.98.63-.33,13.23-1.6,15.34l2.33,1.51,13.51-9.02c4.43,2.72-4.51,15.54-3.9,16.38,4.4,3.31,14.24-8.92,17.14-6.81,3.5,2.55-4.85,12.9-6.45,15.36,1.43.06,1.95,1.54,3.56,1.16,2.44-.57,11.43-7.59,13.53-6.54,5.54,3.47-8.25,13.64-6.4,16.08,4.86.98,11.62-6.52,16.63-4.89l1.19,1.65c.12,3.1-10.37,10.35-9.98,12.14.2.92,1.41,1.05,2.31.95,5.13-.58,15.17-8.65,16.12.41-21.07,11.5-42.24,22.94-61.12,37.91-11.44,9.07-19.86,14.73-1.77,23.71,12.43,6.18,22.51,6.36,35.38,8.81,5.55,1.05,12.36,5.43,18.04,6.18s11.27-.54,16.69-2.08ZM724.2,200.86v-14.61c-11.12-6.57-23.45-11.29-35.17-16.85-9.59-4.55-18.57-11.69-29.67-12.01,11.7,8.24,20.42,17.91,19.4,33.34l12.67,10.84v-11.05c0-.33-1.96-5.39-2.33-6.22-2.21-4.92-5.95-8.12-9.07-12.31-.15-.49.58-.48,1.05-.34,2.41.74,16.05,9.75,18.85,11.8,7.87,5.75,14.59,14.52,24.28,17.41ZM153.39,183.75c.68-2.97,1.63-5.96,2.06-8.99.5-3.48,1.51-10.97,1.54-14.2.01-1.19-.07-1.73-1.09-2.45l-18.17,7.12,11.42,14.58,4.25,3.93ZM159.1,160.24v12.47c0,.19-.74.7-.62,1.33l.6.78c5.34,3.14,9.75,7.33,14.93,1.38.48-2.01-14.17-16.97-14.91-15.96ZM472.65,247.88c39.26,16.68,89.31,17.6,129.35,2.87,24.91-9.16,74.51-39.79,64.1-71.97-4.28-13.22-22.6-20.77-34.19-12.13-6.2,4.62-8.32,16.42.15,18.37,9.71,2.24,3.01-4.88,7.32-9.48,5.81-6.21,16.21.04,17.12,7.85,1.26,10.77-4.6,20.1-12.89,26.31-21.72,16.26-49.36,9.72-60.14-15.28l-3.93-17.08c-.78,4.24-5.83,11.63-6.2,15.41-.46,4.66,3.64,11.95,4.72,16.59-.78.22-1.54.47-2.09,1.11-7.48,8.56-14.78,16.06-25.17,21.17-.61.3-4.97,2.42-4.03.25l10.36-8.2c-2.61-7.4,1.37-2.63,3.49-2.82,1.23-.11,3.99-2.8,3.97-3.95-.02-.94-1.28-1.79-1.44-2.89-.7-4.95,4.37.37,4.98-.34l-.7-7.12,4.26,2.13,1.48-4.58-2.17-7.52c-6.58,14.71-19.81,29.77-34,37.62-9.26,5.12-19.32,7.25-29.42,10.13-.12,1.05,2.59,1.28,3.2,1.27,18.17-.26,49.8-7.99,63.42-20.53,1.78-1.64,6.6-9.22,7.19-9.31,2.11-.32,5.29,4.33,7.09,5.73,10.38,8.13,24.45,7.38,36.68,5.01-10.77,9.55-26.65,13.8-40.47,17.61-20.31,5.6-42.74,9.72-63.93,8.75-15.07-.69-29.9-4.98-44.87-5.73-.77-.04-3.37-.47-3.23.74ZM132.01,165.94l-22.08,4.64,11.05,15.31,11.04-19.95ZM151.26,186.6l-16.03-18.51c-1.74,1.75-14.12,20.53-13.18,21.36l29.21-2.85ZM112.86,210.74c1.48.93,8.81-2.83,9.76-4.63.77-4-12.78-24.7-15.96-28.71-6.33-8.01-8.64-9.72-19.56-6.85-1.15.66-.05,1.73.43,2.46,1.93,2.91,6.44,6.65,8.83,9.69,6.63,8.44,12.18,18.22,16.5,28.04ZM724.2,169.51c-.39-.45-4.56,1.96-4.27,3.19l3.19,1.79c1.65-1.16,1.03-3.28,1.08-4.99ZM237.65,246.63c-1.43,1.41-.11,6.69-3.01,10.18-1.23,1.48-10.46,7.57-12.61,8.77-11.05,6.18-28.39,13.09-40.7,16.31-2.48.65-11.05,1.34-11.92,3.06-.95,1.88.23,6.36,2.29,7,5.89,1.81,36.48-9.43,43.45-12.57,28.86-13.01,80.61-53.21,77.11-88.76-2.75-27.94-40.36-23.87-42.52-2.02-.7,7.12,4.32,14.04,11.96,10.83-11.18-11.35,9.92-19.73,15.83-7.63,5.31,10.89-4.96,27.8-13.74,34.31-12.63,9.36-38.54,7.07-48.71-5.36-10.31-12.6-7.15-28.47-2.56-42.7l-11.39,11.05c1.55.74,4.47-.33,4.27,2.48l-6.33.8-2.21,9.18c1.21-1.02,7.11-1.17,7.1.36l-8.21,3.18.39,12.14c3.28-1.66,5.82-5,9.97-4.27,1.59,1.38-8.38,6.54-8.46,7.46,1.25,2.33,3.99,8.39,6.81,8.8,2.19.32,4.97-5.72,8.06-4.86,1.1,1.1-3.98,6.59-4.97,7.48,14.89,10.84,36.25,7.17,52.72,1.79-2.73,2.81-6.77,6.1-10.19,7.97-2.54,1.39-11.49,4.08-12.44,5.02ZM465.51,247.9c-7.48-3.79-15.41-6.76-22.46-11.4-13.99-9.2-26.02-25.24-31.71-40.98-1.79-4.96-2.23-10.52-3.71-14.81-1.23-3.56-4.87-.36-6.9,1.31-4.93,4.07-3.58,4.98-1.69,10.83,4.28,13.28,13.7,24.35,23.01,34.35-13.26-1.77-25.33-10.55-38.81-11.42-4.47-.29-13.89-.24-17.15,2.85-2.7,2.56-9.24,10.48-11.31,13.63-2.54,3.85-3.14,5.3-2.5,10.21,2.09,15.93,26.77,23.18,38.38,14.27s-2.61-25.35-12.29-18.18c-4.28,3.17,1.86,4.39,3.43,5.74,4.02,3.46.86,7.83-3.61,8.51-13.28,2.01-21.1-15.1-9.81-24.06,4.28-3.4,11.48-4.52,16.81-3.52,2.19.41,6.35,3.35,8.01,3.35,1.51,0,3.74-1.91,5.78-2.06,2.47-.18,5.48,1.05,7.43,2.5.64,2.18-1.64,1.71-2.06,2.9-1.59,4.51,3.14,6.53,6.74,4.62l2.15-4.26c1.93-.68,9.55.32,10.19,2.51-.27,2.67-2.53,4.51-.48,7.2,5.36,3.77,6.87-2.86,8.11-3.3,6.38-2.26,9.02,3.15,12.84,5.51,3.25,2,17.66,5.59,21.27,5.1l.35-1.42ZM-3.38,193.73c17.37,8.12,32.17,20.43,45.11,34.41,2.62,1.07,7.7-1.89,7.59-4.84-9.79-15.12-26.4-28.93-42.25-37.53-3.14-1.7-6.94-4.04-10.45-4.15v12.11ZM687.86,202.99l-9.26-10.68-3.57,14.24,12.83-3.56ZM389.26,200.15c-.37.25-1.78-.71-2.53-.67-1.75.08-4.11,3.59-2.48,4.6,5.15,2.24,10.34-4.4,11.13-8.91.59-3.37-3.56-2.11-4.75-.43-.85,1.2-1.04,5.16-1.38,5.4ZM194.01,194.45c-.44-.47-6.75,4.37-7.46,5.01-3.43,3.11-4.2,4.06-4.64,8.9-2.57,27.99,27.63,40.86,51.3,38.1,1.04-.98-.06-1.3-1.06-1.42-9.15-1.08-14.1-1.72-22.48-6.04-18.72-9.63-23.24-25.04-15.66-44.55ZM724.2,217.25l-21.37-15.68c0,9.69-1.58,19.78-4.98,28.88-13.48,36.12-55.73,53.53-86.72,71.48-7.71,4.46-15.02,9.67-22.95,13.74-1.01,3.78,4.8,1.02,2.39,6.32-.71,1.55-2.87,2.58-4.56,2.11l-.4-6.36-8.17,4.7c-.36,1.66,3.03,2.32,3.46,3.61.89,2.7-3.3,5.45-4.96,4.22l-1.39-5.4c-.58-.53-9.45,4.03-7.83,6.41l5.69,1.8c-2.24,5.62-7.76,3.28-8.56-1.79l-9.24,6.77c.8,3.29,8.66-.49,6.77,3.22-3.4,6.67-9-.85-10.34-.38l-6.42,6.43c1.93.94,7.87.93,5.04,4.33s-6.13-1.76-7.9-.82c-15.92,17.67-18.28,53.77,11.16,58.01,9.5,1.37,19.52-.62,26.95-7.03,12.81-11.06,13.7-34.85-7.46-34.91,26.55-21.2,57.15,5.19,47.39,36.35-9.28,29.63-45.8,42.59-74.09,44.21-20.59,1.18-40.99-8.36-60.93-12.52-27.46-5.73-57.05-6.43-84.11,1.45-17.75,5.17-52.58,21.78-52.59,43.47,0,8.04,3.88,10.23,11.55,8.28.9-18.92,25.83-6.04,12.55,7.43-11.98,12.14-30.16,6.93-38.52-6.42-26.64-42.52,44.27-87.4,73.48-106.85,37.9-25.24,74.94-46.72,120.24-55.78,2.01-.4,4.65-1.39,6.54-.58-6.75,6.4-13.01,13.46-17.47,21.72-12.93,23.96-6.61,59.23-45.41,51.85-.94-.18-1.39-1.33-1.25.53.92.98,1.84,1.96,2.91,2.8,9.84,7.71,37.73,10.38,50.25,10.32,2.27-.01,4.88-1.2,7.41-.65-26.92-23.22-12.56-58.31,10.35-78.36,13.82-12.09,28.76-18.63,44.02-27.95.22-.14,5.04-2.74,2.3-2.7-23.38,6.93-47.87,9.39-71.51,15.43-46.4,11.86-87.57,35.92-126.49,63.06-30.44,21.22-92.3,64.66-69.01,108.68,9.58,18.11,42.57,28.18,59.28,14.85s12.72-39.29-11.05-37.42l-.35-1.42c5.9-4.25,10.94-8.11,17.55-11.31,27.64-13.38,63-15.58,93.06-10.6,10.72,1.78,30.84,9.92,40.03,8.99,1.46-.15,13.29-3.9,13.24-.99-1.93,2.92-5.23,1.37-8.11,1.86-10.99,1.86-35.56,13.76-46.52,19.04-7.65,3.69-15.67,7.91-21.98,13.66l-1.05-.35c6-9.29,17.96-11.16,25.65-18.17-1.72-.08-3.32-.12-5.01.33-3.07.82-11.43,4.59-14.5,6.17-6.21,3.19-5.89,3.35-6.92,10.54-7.13-1.32-12.71-4.24-16.93,3.86l7.38,9.02c2.67-2.32,5.94-6.45,8.96-8.13,37.88-21.06,67.66-35.21,112.19-38.17,13.52-.9,20.58,1.84,33.34-5.14,15.23-8.32,34.81-25.09,39.65-42.3,11.51-40.89-34.55-70.55-68.31-46.93-5.37,3.76-14.05,12.65-10.58,19.73,2.87,5.86,5.34-.1,8.92-.77,9.24-1.74,14,11.05,6.12,17.57-13.77,11.41-31.29-2.15-30.16-18.77,3.12-45.81,109.96-63.09,125.04-9.62,3.16,11.21,1.96,22.13-2.48,32.77l17.09-10.34c4.93-19.65-5.66-41.56-21.43-53.38-18.56-13.89-45.14-16.32-66.57-8.26-.91-2.33,3.51-5.85,5.34-7.49,10.6-9.48,30.32-16.97,43.24-24.45,20.82-12.04,41.07-26.27,55.12-46.07,5.31-.91,10.64-1.92,15.82-3.43,6.76-1.96,12.04-2.33,8.05-11.18l-19.59,6.4c2.36-7.76,5.92-15.14,5.7-23.51l14.96,10.69v-10.69ZM691.42,205.14l-16.39,3.57,10.33,16.37c1.41-.03,7.05-18.92,6.05-19.94ZM407.08,217.25c-1.2-6.62-15.22-9.52-20.99-10-3.02-.25-8.5-.77-10.35,1.82l31.34,8.18ZM15.06,233.55c-.94,1.62-16.31,7.61-17.78,9.65-1.16,1.61-.82,4.94-.32,6.85.79,1.06.88.38,1.63.18,1.6-.43,3.52-1.38,5.14-2.01,8.23-3.2,17.56-7.77,23.49-14.33-8.02-10.12-18.23-18.28-29.53-24.47-1.48.09-1.42,7.87-.72,9.26.4.8,12.68,7.98,14.96,9.98,1.13.99,4.04,3.32,3.13,4.89ZM665.05,226.51h14.61c.27,0,1.07-.94,1.79-.72.5-.67-7.03-12.85-8.55-14.24l-7.85,14.96ZM168.36,213.69l-9.98,6.2c-.99,13.24,7.45,23.96,19,29.32,2.23,1.04,12.75,4.12,13.08,5.46.25,1.02-5.47,4.14-6.73,6.08-6.56,10.12,12.19,19.53,14.41,6.57,1.08-6.29-2.63-8.82-6.25-13.01,6.27.34,14.13,3.83,19.24-1.43-21.52-1.97-43.73-14.96-42.76-39.2ZM593.79,232.22c-4.25-.35-8.01-6.85-12.3-5.58-1.22.36-5.54,4.32-7.43,5.43-11.12,6.53-20.32,8.31-31.93,12.55-.55.2-1.65-.93-1.06,1.13,16.37-2.33,34.41-5.85,49.85-11.79.83-.32,2.86-.72,2.88-1.74ZM154.1,227.93c-.78-.78-10.94,2.66-11.36,4.71l7.11,8.82,1.47-.44c2.87-4.08,3.13-8.21,2.79-13.09ZM666.47,247.17l-3.57-18.52-14.95,13.9,18.52,4.62ZM684.29,228.66l-18.53.71,3.57,18.52c6.2-5.23,11.43-11.89,14.96-19.23ZM-3.38,438.16c4.33-1.73,8.56-4.59,12.49-7.11,24.81-15.94,53.2-35.72,71.58-58.83,27.25-34.25,42.46-77.44,21.79-119.38-3.15-6.39-7.43-15.32-15.08-16.28-16.54-2.06-40.34,11.92-37.16,30.75,2.16,12.79,22.64,13.01,25.39,1.03-1.85-3.73-3.61-.27-6.46.45-10.71,2.7-11.89-13.59.28-17.56,22.8-7.45,31.01,18.81,31.96,36.17,2.04,37.11-20.45,68.06-45.28,93.04-17.92,18.04-38.69,32.92-59.51,47.38v10.33ZM-3.38,457.4v19.6l1.45.76c16.86-11.45,33.51-23.31,49.16-36.38,41.42-34.6,90.67-89.58,86.96-147.55-1.44-22.45-15.16-49.75-38.51-55.19l12.06,18.22,10.02,3.52-6.73,5.3c-2.15,5.8,12.24,9.03,15.29,11.8.66,2.91-11.07,5.08-11.43,6.53-1.73,6.9,14.29,12.61,14.32,15.55.03,3.45-13.07,2.42-14.2,5.83-1.62,4.89,12.34,14.38,11.85,17.73-.56,3.82-14.86-.54-16.1,3.69-1,3.41,6.7,12.96,7.88,16.81.22.71.74,1.28.49,2.17-1.26,4.44-14.44-1.29-16.99,2.3s3.15,15.58,3.15,20.19c0,8.24-17.3-2.2-20.65,5.79-2.41,5.75,2.27,24.56-2.84,29.22-4.67,4.26-17.53-.45-23.52-.07-1.36.09-3.73.95-4.33,2.2-1.56,3.29,11.26,21.85,2.14,23.5-4.69.85-12.62-4.65-17.45-6.03-4.15-1.19-7.24-2.2-9.76,2.11,1.11,3.52,11.28,18.88,7.69,21.44s-22.33-10.18-27.32-8.85c-.85.23-3.34,2.69-3.25,3.68.39,4.18,11.25,17.79,8.84,21.2-2.25,3.19-14.67-5.68-18.22-5.03ZM645.1,261.07v-14.96l-1.45-.76-17.08,9.31,16.88,7.38,1.65-.96ZM647.95,245.75v17.82c3.17.33,5.6-2.07,8.06-3.69,1.98-1.3,10.43-7.49,10.47-9.48l-18.54-4.64ZM169.44,247.98c-3.08,1.94-11.13,2.06-11.79,6.72-.2,1.42,4.67,12.68,5.8,14.13,3.03,3.91,8.54-1.83,9.14-5.67.72-4.6-.22-11.49-3.15-15.19ZM362.9,265c-8.8-2.08-14.89-9.88-19.61-17.11-.91-.22-5.48,5.42-5.76,6.4-1.43,5.02,10.4,17.62,15.47,16.76.69-.12,10.33-5.64,9.9-6.04ZM178.34,319.14c33.14-3.51,64.93-23.02,86.21-48.11,4.88-5.76,10.71-13.11,12.84-20.29-4.57,3.87-14.97,19.84-20.35,20.64-5,.74-7.34-3.56-9.1-3.41-8.6,2.84.37,14.33-7.78,17.87-5.84,2.53-9.81-5.54-11.57-5.67-.32-.02-2.96,1.28-3.23,1.57-3.53,3.94,2.04,14.43-5.91,16.93-7.37,2.32-10.06-12.16-15.45-6.94-3.5,3.39.89,16.8-8.92,16.8-7.76,0-9.75-14.84-16.45-9.38-3.08,2.51,1.48,16.18-.3,20ZM212.03,253.79c-2.75,1.77-2.07,7.08.87,9.06,7.83,5.28,12.63-9.08,4.92-9.96-1.12-.13-4.96.37-5.79.9ZM459.82,256.43c-.27-1.3-1.4-1.32-2.47-1.44-18.46-2.07-42.09-.09-60.25,3.94-37.38,8.29-77.24,31.59-97.93,64.55-4.14,6.6-4.87,16.54-6.1,24.18l11.1-19.17c25.92-33.73,67.4-53.78,107.9-64.55,15.41-4.1,31.8-7.15,47.74-7.49ZM623.72,256.44l-22.8,8.54c6.37,1.23,12.13,4.72,18.12,7.11,1.63-.36,3.79-13.35,4.67-15.65ZM723.48,279.95c1.65-7.81,1.48-18.18-5.28-23.48-3.23.71-9.29,18.9-9.67,22.78h4.23c1.01-2.4,1.34-6.52,4.64-6.44,3.01.29,3.9,5.68,6.08,7.15ZM701.97,258l-7.69-.84-2.14,19.23c6.35,2.48,12.59-15.96,9.83-18.39ZM645.81,267.12c.33-.48-1.16-1.31-1.64-1.56-5.55-2.96-12.49-5.17-18.31-7.69l-2.9,15.92c7.43,5.05,15.84-4.1,22.84-6.67ZM-3.38,389.7c46.76-10.37,87.43-47.25,89.82-97.24.37-7.73-1.02-27.69-9.66-31.02-2.35-.9,1.39,4.84,1.62,6.22.55,3.25.83,10.46.91,14.05.83,34.25-16.94,62.61-43.86,82.33l4.84-10.84c7.07-24.88-20.06-31.06-36.16-16.92-4.19,3.68-9.08,10.73-7.35,16.58.43,1.45,4.14,5.4,4.66,7.45.48,1.9.05,3.96.17,5.89,6.68.67,15.98-3.24,16.39-10.69-10.37,5.1-16.02-6.19-8.29-14,9.5-9.59,25.47-4.4,23.89,10.72-1.73,16.58-22.05,26-36.67,28.17l-.3,9.31ZM345.8,274.27c-6.1-2.28-9.6-7.77-13.18-12.82-.54,0-5.98,8.08-6.06,8.93-.31,3.12,5.98,9.21,9.08,10.2l10.16-6.32ZM596.64,265.71l-31.02,4.96-1.04,1.44,23.8,7.78c1.37-1.65,9.58-12.95,8.26-14.19ZM597.35,287.79c-.67-1.55-2.68-2.05-4.09-2.67-43.74-19.22-103.87-22.1-150.79-15.02-18.33,2.77-36.13,7.84-53.21,14.85.68,1.23,5.9,4.08,6.89,4.14,1.13.07,3.25-2.19,5.03-2.56,13.24-2.76,23.29,8.51,8.69,15.98l2.59,7.41c10.55-3.44,20.85-7.72,31.67-10.37,31.21-7.63,63.31-6.59,95.13-3.91,5.13.43,11.51,2.27,16.4,2.18,7.63-.13,16.82-4.44,24.58-5.05.22-1.75-.01-1.13-1-1.49-10.59-3.9-23.2-5.02-34.28-7.08-2.49.2-2.38,6.71-11.06,4.66-4.61-1.09-5.19-7.16-3.38-10.9,4.79-1.32,7.25-1.44,11.18,1.7,1.01.81,1.28,2.58,2.69,3.01,1.66.51,3.81-.12,5.56.14,7.24,1.06,15.8,2.08,22.65,4.43,2.95,1.01,7.49,4.12,10.39,4.45,3.48.39,10.41-3.92,14.36-3.91ZM623.01,278.52c.88-1.17-21.12-10.5-23.04-10.73l-8.31,13.58c3.72.21,8.16,4.19,11.76,4.19,4.47,0,14.52-6.29,19.6-7.04ZM300.2,371.88c22.16-13.12,33.89,17.46,14.91,30.95-23.05,16.39-48.85-2.48-57.16-25.42-12.8-35.37,1.59-66.14,9.84-99.57.19-.76.81-2.43-.03-2.88-12.01,13.33-25.5,27.68-41.66,36.02-5.85,3.02-15.29,5.43-20.5,8.7-.73.46-1.25-.04-.91,1.59,12.13,4.33,22.92,8.6,26.72,22.1,1.53,5.44,1.13,11.17,1.78,16.76.12,1,.42,2.07,1.42,1.05l15.68-57.01c-5.9,2.28-7.06,9.93-8.33,15.53-1.6,7.05-2.03,14.47-3.82,21.49l-2.16-.39c-1.97-7.65-7.3-13.44-14.16-17.07l-7.86-3.52c4.15-1.76,8.63-2.53,12.81-4.3,14.93-6.32,19.99-15.26,31.36-24.22.72-.57.92-1.38,2.14-1.06-9.61,24.23-10.69,51.59-20.13,75.71-3.89,9.92-9,18.75-18.34,24.41,2.28,1.15,7.83,6.7,9.95,5.73,1.21-.56,11.21-11.98,11.35-12.97l-5.63-4.88c-.45-1.06.7-1.36,1.4-1.41,2.57-.2,15.99,11.02,19.92,12.16l9.67,10.28-8.2,15.67,8.91,4.27c.77-.05,3.68-9.49,4.51-11.15.37-.73,1.6-3.52,2.6-3.08s1.07,1.34.97,2.31c-.35,3.23-4.12,8.73-4.77,12.32.11,1.15,8.06,2.97,9.57,3.15s.85-.02,1-1.03c.28-1.86.84-13.18,2.51-13.17,3.4,2.3-.9,12.59.44,14.16l9.9.79c1.28-1.29-2.56-11.52.36-13.54,1.51-.39,1.38,2.43,1.55,3.42.53,3.07.96,6.27.94,9.4,24.32-2.88,41.37-19.63,38.4-45.17-1.16-9.94-9.4-18.71-19.12-20.78-2.21-.47-4.35-.07-6.49-.67-1.01-.28-1.62-.11-1.41-1.42l23.19-25.29c1.65-.84,1.05,4.82,1.24,5.87,3.19,17.64,20.88,26.13,37.58,24.78-8.36,8.3-18.82,14.59-26.13,24.1l-2.03,15.79c2.06-.86,9.17-4.72,10.02-6.41,1.14-2.28-2.43-6.71,2.29-10.7,5.4-4.57,9.53-.21,12.47-.83.64-.13,3.79-2.44,4.14-3.02,1.94-3.22-.96-8.67,2.84-12.13.95-.86,4.81-2.44,6.08-2.49,3.32-.15,5.84,3.32,8.09,2.47,5.74-2.17,3.06-5.42,3.78-9.82.97-5.96,6.48-8.1,11.96-6.6,3.23.88,3.6,4.21,7.79.71,3.9-3.27-2.19-11.01,6.27-14.39,2.68-1.07,4.31-1.29,7.11-.35,3.82,1.28,3.59,5,9.02.8,3.06-2.37-1.85-8.64,5.38-12.44,5.62-2.96,8.37-.66,13.09,2.43l6.07-2.85c-.33-6.85,4.27-10.89,11.12-9.82,2.85.45,4.14,3.03,6.97,2.68.76-.09,5.31-1.68,5.84-2.08,2.07-1.57,1.43-4.52,5.95-6.16,5.5-1.99,7.36,1.58,11.02,1.11,6.2-.8,8.2-6.17,15.87-6.34,3.37-.07,6.66,1.65,9.92.09,2.04-3.62-5.31-4.37-7.78-4.38-36.62-.23-80.82,16.96-111.46,36.11-15.46,9.66-22.04,18.62-42.45,16.67-7.57-.72-15.69-5.95-19.49-12.58-4.81-8.41-3.53-21.22,5.62-26.2,11.13-6.05,24.82,3.6,12.02,12.18-.56,2.6,2.62,4.6,4.84,5.06,16.6,3.42,21.94-22.95,3.03-28.67-21.03-6.37-45.74,17.07-57.27,32.48-8.07,10.79-13.97,23.21-13.96,36.98ZM330.84,283.53c-4.05-.13-5.39-4.87-8.2-7.12-4.94,5.73-8.73,10.28-.72,15.49.52.04,7.54-5.8,8.22-6.58.54-.62.92-.79.7-1.79ZM724.2,320.58v-21.02c0-1.88-8.96-15.22-11.19-15.89-7.03-.26-14.11,1.3-21.16.49-5.77-.67-10.47-4.35-15.77-6.32-2.34.03-3.38,3.54-1.77,5.34.64.71,12.36,5.99,14.74,7.35,10.08,5.79,20.16,13.27,28.04,21.84,2.44,2.65,3.95,6.28,7.11,8.21ZM537.28,280.75c-3.82.94-1.24,6.33,2.38,3.86,1.83-1.25-.24-4.39-2.38-3.86ZM-3.38,298.13v23.87c3.96-5.49,6.92-11.6,11.38-16.76,5.52-6.38,11.75-9.87,18.55-14.58l-17.3-5.61c-5.09,3.45-9.15,8.08-12.63,13.09ZM405.45,288.6l-3.28,4.44,6.37,5.86c8.71-3.69,5.42-10.51-3.09-10.3ZM399,335.29c17.45-17.43,2.72-48.48-21.84-45.35-.39,1.89.47,1.23,1.4,1.77,9.7,5.66,17.17,10.04,17.86,22.78,1.13,20.84-25,33.81-40.29,19.63-.48,1.77,2.13,5.69,3.54,7.15,9.78,10.15,30.62,2.71,39.32-5.98ZM318,294.93l-4.98-3.57c-.36,2.82-6.25,9.23-4.34,11.78.59.79,1.14,1.27,2.19.73.99-.5,5.6-5.93,6.43-7.16.4-.59,1-.7.7-1.78ZM659.87,292.22c-9.33.97-8.93,18.92,2.61,17.62,6.56-.74,7.62-5.13,6.78-10.94-.61-4.25-5.17-7.12-9.4-6.68ZM680.73,311.31l-.35-11.44-8.2-3.53,1.5,23.43c7.25.54,14.22-2.38,21.3-3.48l-2.85,21.38c4.39-.13,8.82.18,13.22.03,2.83-.09,6.51-2.09,8.86.32l-8.54,20.31,17.84,3.26.7-7.53-7.85-.71,5.65-13.89-5.8-10.18-15.53.55,2.74-13.73c-.22-.82-6.21-6.67-7.21-7.1-4.05-1.75-10.97,2.59-15.49,2.31ZM71.4,316.26l2.94-8.86c-.2-2.12-7.7-5.78-9.84-6.61-22.31-8.63-49.92,5.65-55.05,29.04,14.02-4.62,30.06-13.8,41.31,1.09,2.45,3.24,3.75,7.1,4.65,11.02,1.58-2.07,7.41-8.73,7.31-10.91-.27-5.71-8.96-13.18-14.09-15.08-9.89-3.66-15.42-1.4-24.22,2.83-1.18.57-1.62.76-1.41-.7,12.25-10.24,28.28-14.61,42.56-5.52,2.12,1.35,3.28,4.03,5.85,3.69ZM448.25,301.52c-1.12.14-4.73,1.08-5.23,1.93l1.83,4.71,8.26-2.54-1.09-3.95c-1.06-.72-2.58-.29-3.76-.15ZM429.85,307.76c-2.45.29-9.9,2.5-9.92,5.31,0,.39,1.32,3.76,1.49,3.88.83.6,9.09-2.9,9.98-3.83,1.19-1.24-1.63-3.7-1.54-5.36ZM708.4,373.91c1.05-1.67-1.46-7.98-2.2-10.04-8.71-24.48-33.39-45.16-57.89-52.57-2.61-.79-9.81-2.96-12.1-2.81-2.6.18-4.03,3.49-6.8,3.54-.21.89.74.89,1.4,1.07,3.76,1.01,8.08,1.21,11.98,2.28,23.63,6.53,42.78,21.63,52.52,44.39,1.44,3.37,4.25,14.74,5.71,16.4s5.47-2.11,7.37-2.27ZM235.34,328.41c.39-.29,1.45-8.84,1.4-9.7s-.41-1.18-1.05-1.71l-8.18,3.58c-.98,1.34,6.46,6.96,7.83,7.83ZM209.69,475.22c-4.12,1.12-6.28,4.99-10.03,7.42-18.3,11.85-40.88,2.26-48.03-17.41-6.66-18.31,1.37-45.73,3.19-65.2,1.61-17.26,1.91-34.64-.93-51.79l-6.89-28.37c-1.64,12.99-7.34,24.89-11.39,37.02,6.32,1.51,2.71,3.78-2.04,2.25l-2.95,5.27c2.05,1.05,4.13,2.79,4.26,5.33l-7.11-.39-3.58,6.08c2.16.58,4.95,3.02,4.99,5.35-.56,2.18-7.03-.77-8.55-.02l-2.74,4.45,5.58,8.77c-1.46,1.34-11.31-4.98-13.26,1.42-1,3.29,6.11,8.32,6.13,12.12-4.7.74-9.65-4.54-14.23-2.47-6.47,2.92,6.1,12.03,4.97,16.72-4.45.7-15.51-8.22-18.19-2.11-1.46,3.32,7.61,12.75,6.79,17.07-1.28,1.28-14.64-6.81-19.26-5.39-1.94.6-3.05,1.87-2.53,3.97,1.02,4.06,7.54,10.78,8.14,14.77.15,1.01.05,1.98-1.04,2.28-1.76.49-13.09-5.6-16.47-6.19-3.76-.66-9-.34-7.49,4.6,1.35,4.41,8.22,10.97,9.29,15,.26.97.39,2.07-.53,2.72-3.31,2.32-24.89-9.53-29.66-2.54-.27.58,3.78,6.57,4.52,7.65,1.56,2.25,13.22,14.61,4.91,14.27-7.62-1.91-16.68-5.41-24.44-6.14-1.61-.15-3.57-.56-4.93.61-.75,1.03.75,2.88,1.24,3.79,2.33,4.37,9.79,13.17,10.95,16.86.85,2.7.1,3.95-2.72,3.46-5.4-.94-15.36-6.82-22.08-8.6-5.5-1.46-8.65-2.61-6.62,5.2.97,3.74,9.62,14.6,9.65,16.73.05,3.5-5.57,2.16-7.47,2.5-4.08.74-2.08,6.92-2.51,9.96,47.39-23.17,87.85-61.33,116.45-105.52,16.33-25.23,31.67-54.14,33.2-84.74,1.7.84,1.91,4.32,2.12,6.07,4.73,39.53-13.06,73.19-9.96,111.15,1.96,24.02,23.51,45.26,48.47,39.23,11.42-2.76,23.77-9.74,22.78-23.18ZM180.64,328.25c.74.77,9.59,1.43,11.96,1.94,14.68,3.13,29.6,15.94,23.86,32.43-4.75,13.64-22.48,3.19-18.48-8.51,1.57-4.6,7.9-2.94,8.19-6.1-2.54-10.79-15.38-6.31-16.97,3.03-3,17.65,21.29,42.28,33.7,21.59,9.66-16.1,3.05-36.8-13.66-44.81-5.15-2.47-24.86-8.73-29.34-5.67-.95,1.22-.1,5.25.74,6.12ZM319.44,350.5c1.8.4,3.12,1.22,4.97.36.6-.28,6.72-7.02,7.18-7.8,1.48-2.5-.12-4.18-.05-6.81-.98-1.2-11.41,12.76-12.11,14.24ZM516.12,338.4c-2.48-1.82-29.35,6.55-32.77,10.33,1.14,1.52,2.93,1.2,4.55,1.01,5.51-.64,12.76-4.25,18.7-4.87,1.82-.19,3.11.11,4.82.53l4.69-7ZM510.41,346.95c-1.33-1.25-16.57,3-18.94,4.21-.74.38-1.35-.37-1.01,1.48l7.49,3.42c2.55-4.15,5.69-3.66,7.47.86-1.96.15-4.34-.69-5.68,1.07l3.9,7.48,6.77-18.52ZM630.13,351.94c-1.55-.69-13.62-3.52-13.52-1.08l9.03,5.25c1.07.17,4.69-3.93,4.5-4.17ZM349.85,367.39c3.75-4.52-6.38-5.76-9.4-8.33-1.62-1.38-4.81-9.86-7.14-6.45-2.1,3.08,3.31,4.35,5.38,6.06,3.17,2.62,5.49,6.69,7.81,10.04.83.63,2.92-.82,3.35-1.33ZM633.5,353.46c-1.37.37-3.44,3.59-4.78,4.53,3.04,2.18,5.92,8.32,9.98,7.17,1.09-.31,7.8-3.66,7.81-4.32-2.1-2.18-10.3-8.12-13.01-7.38ZM507.41,424.06c-.98-.86-21.53-3.48-25.64-4.64-15.95-4.5-39.7-19.78-28.02-39.01,6.18-10.18,24.54-7.66,21.28,2.75-1,3.2-6.17,4.64-1.63,7.56,5.56,3.58,16-1.98,17.47-8.11,4.13-17.18-16.45-21.42-29.19-19.93-5.94.69-18.86,7.16-21.85,12.35-2.7,4.67-2.34,18.48-.87,23.76,8.64,30.93,48.7,27.17,73.32,34.28l2.41-.27c-2-2.25-4.46-4.15-6.44-6.42-.57-.65-.5-2.03-.84-2.33ZM655.79,376.15c-1.36-4.48-3.83-8.49-6.89-12.04l-9.91,4.91,4.64,10.41,12.15-3.28ZM160.52,365.47v9.98l4.32-2.54c-1.25-2.39-2.08-5.82-4.32-7.44ZM724.2,371.88c-7.69.68,1.39,10.82-2.51,14.96l-12.44-4.28c-.13-1.33,2.31-.68,3.03-.53,2.39.5,4.75,1.65,6.94,2.68l-1.42-8.55-16.8,9.96,2.55,12.84c-.81.79-12.91-2.77-14.25-4.63,1.7-1.5,9.64,2.9,9.97,2.5l-2.5-7.85c-.88.04-13.91,8.62-14.66,9.6-1.82,2.39,3.56,9.65,2.2,13.22-.98.99-12.65-2.36-14.25-3.92,1.94-1.82,10.07,2.99,10.69,2.49l-2.86-8.54-15.6,10.08,4.2,14.15c-.37.37-8.73-1.94-10.13-2.34-6-1.7-6.08-4.41-12.03,1.24l-.54,1.32c1.91,4.58,5.51,8.88,5.59,14.02l-15.68-3.57c-.06-1.29-.35-1.5,1.07-1.43,1.71.08,8.27,2.74,8.9,2.15l-3.56-8.55-13.43,9.37c-1.2,2.05,7.79,12.54,7.71,16.69-.02.93-.4,1.15-1.03,1.7-5.16-2.46-11.49-2.27-16.04-6.04l12.11,3.2-7.48-11.38c-1.81,1.61-11.95,8.33-11.66,10.19,2.32,2.37,12.34,19.22,10.59,21.15l-4.57-2.19-9.69-17.04-11.39,8.2c5.46,4.5,8.69,10.99,12.24,16.97l4.14,9.74c14.72-25.02,35.42-46.16,58.11-64.11,17.32-13.71,36.17-25.15,54.5-37.43v-16.03ZM168.36,381.14c-1.25-10.04-9.39-4.88-7.84,2.85l7.84-2.85ZM423.48,385.41l7.49,4.16c3.82-2.31,2.85-5.82,3.74-9.52-.35-.73-.72-1.03-1.57-1.03-1.62,0-10.45,5.23-9.66,6.39ZM606.55,389.63c.63-.9-.91-4.77-1.35-6-.39-1.07-.99-3.57-2.14-3.91l-.72,10.68,4.21-.78ZM656.5,379.72l-12.16,2.55.75,12.42c4.04-.53,11.41,2.16,11.41-3.92v-11.05ZM184.04,401.81c1.34-1.59-8.08-9.67-9.63-11.39-1.9-2.11-3.2-4.87-5.34-6.83l-4.98,2.9c0,1.08,13.19,15.98,14.21,16.36,1.23.46,4.14-1.31,5.73-1.05ZM39.38,386.14l-27.08,11.41c1.19,2.72,2.9,5.47,2.86,8.54,8.38-6.12,17.16-12.36,24.22-19.95ZM245.26,405.34l10.03-13.86-8.92-5.33-12.43,12.46,11.33,6.73ZM419.91,387.56l-12.11,8.54c2.58.06,8.72,5.3,10.7,3.95,1.41-.95-.13-3.25.03-4.9.13-1.4,1.92-6.98,1.38-7.59ZM422.06,396.11c3.24.24,5.05-2.7,7.11-4.63,0-.67-4.88-3.77-6.04-3.93-1.58-.22-.87.22-1.05,1.08-.52,2.5-.66,5.02-.02,7.48ZM157.67,413.92c.48.41,5.33-3.4,5.72-3.89,1.58-2.01,2.63-14.36,2.1-17.11-.37-1.96-2.75-3.19-3.91-4.64-1.61-.3-.99.7-1.06,1.76-.56,8.02-1.31,15.99-2.85,23.88ZM607.33,392.55c-6.22.06-9.16,6.21-10.39,11.41,1.59.82,5.21,3.55,6.83,2.52,1.82-1.16,4.55-12.78,3.55-13.93ZM265.99,398.26c-2.97-.6-5.42-2.88-7.48-4.99l-11.05,13.86,9.64,6,8.89-14.87ZM437.02,411.07c-3.6-5.62-4.13-10.72-5.34-17.09l-7.44,9.55c1.78,1.16,11.47,8.62,12.78,7.54ZM173.35,403.23c.27-.35-4.35-7.04-4.98-6.4l-.72,8.55,5.7-2.15ZM398.54,403.23l12.48,6.23,6.03-5.86c-6.56-3.72-14.17-10.38-18.51-.37ZM654.36,398.26l-9.98-.72c.2,6.96-3.31,13.01-5.69,19.24,6.78-4.94,12.46-10.64,15.67-18.52ZM10.13,398.99c-.79-.69-11.99,3.5-12.47,4.22-1.2,1.78.88,14.26,2.16,14.27l12.86-9.23-2.56-9.26ZM395.68,403.95l-8.4,6.91c-.25,6.18-1.16,12.41-1.39,18.59-.04,1.17-.34,1.45.88,2.28,2.19-2.15,6.91-3.95,7.88-7.07.49-1.57.95-7.56,1.06-9.63.2-3.67-.2-7.41-.04-11.07ZM444.85,421.05c.25-1.29-.63-1.77-1.47-2.45-1.97-1.6-21.8-13.25-23.13-13.22-1.63.15-6.07,5.21-5.28,6.34,4.19.77,15.77,9.33,18.84,9.33h11.05ZM398.54,418.92c3.8-1.48,6.61-3.69,9.24-6.77l-8.18-5.34-1.06,12.11ZM594.3,406.9l-12.61,9.52,7.79,5.78c1.65.43,11.2-9.77,11.36-11.6.13-1.46-5.29-4.03-6.54-3.7ZM383.57,421.77v-8.55c-3.94,1.62-7.17,4.35-9.98,7.49l9.98,1.07ZM658.63,416.06c-2.92-.11-4.67,2.76-7.12,3.92l10.69,3.92c-1.51-2.41-3.42-4.87-3.57-7.83ZM420.55,418.27c-5.17-1.98-16.28.58-20.15,4.3-1.8,1.72-1.12,3.55,1.29,3.49,5.28-.12,12.1-4.19,17.77-3.69l1.07-1.07.03-3.04ZM568.28,430.88c1.96,1.15,17.69-4.82,17.66-6.62l-8.18-6.01c-1.37,1.39-16.98,4.05-16.03,5.64,2.17.08,5.51,6.38,6.55,6.99ZM250.31,484.47c8.91-33.18-15.81-62.79-49.65-63.15-14.27-.15-31.53,6.32-36.08,21.25-5.1,16.76,12.98,35.53,29.21,28.49,11.21-4.86,8.04-21.15-1.36-19.96-8.35,1.06.07,6.5-3.39,10.22-4.91,5.28-12.22-1.66-12.79-7.22-1.18-11.34,12.57-19.81,22.49-20.85,17.22-1.81,32.73,7.18,39.59,22.95,6.52,14.98,3.44,30.97-2.98,45.37l17.33-10.1c11.01-4.6,22.46-9.4,34.69-8.42l-.31-6.46c-12.35-1.97-25.45,2.94-36.74,7.88ZM365.83,428.83l16.57,2.15c1.81-.56,1.19-4.34,1.07-5.91l-1.07-1.06-11.15-1.4c-1.72.84-7.12,4.09-5.42,6.21ZM541.76,436.02c.32-1.23-.49-1.43-1.06-2.14-1.44-1.82-7.1-7.49-9.03-8.08-6.61-2.02-16.36-.87-23.4-1.89.94,1.41,3.1,1.65,4.63,2.85,2.24,1.75,5.8,6.78,8.16,7.52,1.61.5,6.81.85,8.95,1.02,3.89.31,8.11-.74,11.74.72ZM565.29,432.45c-2.16-3.54-5.03-7.01-9.08-8.4l-19.42.57c-.32,1.24.51,1.42,1.06,2.14.82,1.06,7.24,7.47,7.99,7.69,5.07,1.5,14.12-1.46,19.45-2ZM138.43,539.34c-1.23.32-1.43-.49-2.14-1.06-27.36-21.56-25.79-63.68-14.08-93.19,1.59-4.01,4.5-8.35,5.76-12.05.22-.63,1.19-2.85-.22-2.71-5.66,9.76-12.31,19.04-16.22,29.75-7.08,19.42-8.81,46.61.39,65.52,2.5,5.13,13.58,21.98,19.56,21.46,1.82-.16,11.01-5.12,12.89-6.4,4.62-3.16,3.91-8.99,7.01-13.66,8.84-13.33,35.05-8.86,45.14-23.27l6.76-9.98c-8.89,5.03-15.23,11.28-25.98,12.14-11.44.91-18.29-3.63-28.82,3.25s-14.15,18.6-10.04,30.21ZM693.56,517.26c.38,17.95-19.32,15.73-23.75.58-8.09-27.69,22.93-56.56,43.05-70.71,1.86-1.31,10.37-5.82,10.98-6.84.78-1.3.72-9.24-.71-9.25-18.9,12.34-40.13,25.5-53.79,43.83-11.52,15.45-19.65,37.45-5.16,53.79l14.41,8.54c-14.68.9-26.27-12.85-25.73-26.99-10.21-3.9-7.39,10.63-5.26,16.3,7.85,20.88,34.71,23.89,48.46,6.43,3.98-5.06,5.63-14.6-2.5-15.68ZM361.47,431.75c-1.07-.96-8.41,7.36-7.83,7.83l8.55.72-.72-8.55ZM365.75,431.74v11.4c5.51-2.43,11.03-5.41,15.68-9.26-5.18-.94-10.33-2.56-15.68-2.15ZM261.52,438.35c-.33-.32-7.43-4.23-8.01-4.46-.9-.36-1.31.13-1.05,1.05.54,1.87,3.09,5.41,4.08,8.04,3.31,8.71,5.08,22.78,12.75,28.57,3.96,2.99,7.34.04,10.25-3.08,6.25-6.69,8.27-16.82,12.81-24.6l-8.22.68c-3.07,6.26-5.68,14.26-11.28,18.5-4.68-.82-8.48-21.87-11.33-24.7ZM127.74,455.97v-17.82l-4.81,11.23-1.62,5.51,6.42,1.08ZM272.41,458.82c4.04-4.15,6.34-9.68,9.24-14.61-.05-.9-14.25-3.53-16.37-3.91l7.13,18.52ZM347.23,448.13c3.68-.81,8.22,1.33,11.6.57,3.17-.72,6.26-5.57,2.29-6.27-1.06-.19-9.21-.78-9.83-.59-1.28.39-4.46,5.94-4.06,6.29ZM356.49,450.99l-9.26-.72,1.89,5.75c3.97.53,5.43-2.24,7.38-5.03ZM463.38,455.27c-21.39-1.22-44.03-.78-64.68,5.51-1.95.59-11.24,3.01-10.81,5.44.1.55,4.54,5.29,5.82,4.62,5.97-2.06,12.13-4.05,18.34-5.26,16.94-3.3,30.14-1.6,47.03-7.84,1.39-.51,3.67-1.02,4.31-2.46ZM487.61,456.69c-10.04-2-17.99-.01-27.44,2.83-14.19,4.27-29.65,11.87-42.05,19.95-19.92,12.97-32.71,31.36-47.28,49.67l-.66,1.41c-.28,2.12,5.57,7.06,6.97,6.35,8.94-11.31,16.22-23.91,26.01-34.62,17.31-18.95,45.53-34.72,70.2-41.69,3.94-1.11,8.28-1.4,12.27-2.7.75-.24,2.15-.18,1.98-1.21ZM724.2,471.65v-13.9c0-4.27-14.95,5.34-14.95,6.41l14.95,7.48ZM342.23,476.64c-.12-5.36,2.81-10.03,4.88-14.74l-4.53-4.49c-3.18,5.07-3.86,12.64-1.86,18.24.36,1.02-.2,1.2,1.5.99ZM127.64,458.21l-6.99-.06-.74,8.51,8.55-.71c-.02-2.59.35-5.33-.82-7.74ZM425.61,466.67c-3.05-.76-7.8.42-5.36,4.3,1.28,2.03,6.29-2.24,5.36-4.3ZM416.32,468.12l-10.66,1.39,1.43,9.26c.88.76,8.26-4.05,9.64-5l-.41-5.66ZM131.99,477.31l-2.79-8.18c-1.32-.89-8.86-.15-9.69,1.06l-1.03,10.73,13.5-3.61ZM397.11,486.61c8.06-.68,6.58-10.07,3.1-14.91l-5.96,1.38,2.86,13.53ZM724.2,498.02v-13.9c-8.39-7.08-24.42-17.64-32.07-4.28,15.1.65,22.31,5.3,30.48,17.25.44.64-.12,1.31,1.59.93ZM139.14,491.59l-5.77-11.36-7.68,2.19c-1.06,1.63,2.93,13.97,3.84,14.17l9.6-5ZM126.2,500.05c.46-.72.11-2.69-.06-3.64-.31-1.71-2.27-9.37-2.82-10.72-.28-.69-.65-1.42-1.51-1.12l-3.35,1.73,2.87,15.98,4.87-2.24ZM147.69,498.03c-2.61-.23-3.8-4.2-6.48-3.96-3.05.27-12.1,6.61-14.55,8.91-4.28,4.01-4.98,4.5-2.38,10.26.44.97,3.01,5.98,4.21,4.3,2.28-6.05,8.01-11.57,13.29-15.13,1.09-.74,7.08-2.77,5.93-4.39ZM100.65,527.95l-1.4.34c1.71,8.92,1.82,18.19,3.57,27.09.18.93-.54,1.25,1.02,1.06,2.94-.35,7.33-3.06,10.37-3.92-2.26-3.87-5.05-7.35-7.26-11.27-1.17-2.06-5.77-12.8-6.3-13.3Z"/>
  </g>
</svg>