<?xml version="1.0" encoding="UTF-8"?>
<svg id="logo_guidelines" data-name="logo guidelines" xmlns="http://www.w3.org/2000/svg" viewBox="0 0 100 100">
  <defs>
    <style>
      .cls-1 {
        fill: #2ca3bb;
      }

      .cls-2 {
        fill: #e1f2ff;
      }
    </style>
  </defs>
  <path class="cls-2" d="M45.54,6.24c29.7-2.46,54.02,23.21,45.57,52.9-11.17,39.24-72.66,39.75-83.4.08C.81,33.69,19.58,8.39,45.54,6.24ZM46.34,37.99l.38-25.1-.56-1.24c-8.92,4.17-13.39,14.81-15.58,23.94l15.76,2.41ZM66.08,35.76c.58-.68-1.79-7.32-2.25-8.49-2.33-5.91-6.24-13.12-12.36-15.65l-.37,26.36c5.05-.35,10.07-.98,14.98-2.23ZM85.52,35.79c-.23-.21-3.66,2.15-4.31,2.46-1.88.88-8.52,3.24-8.13-.77.22-2.2,4.41-2.58,6.34-3.58.77-.4,3.91-2.32,3.76-3.24-4.4-8.65-13.05-15.49-22.55-17.56,10.12,12.43,13.15,29.31,11.72,45.03,4.05-.59,14.31-5.45,14.98-9.73.58-3.68-1.09-8.95-1.81-12.61ZM36.09,13.82c-8.39,3.25-16.51,9.54-20.14,17.93,1.17.56,4.72,1.21,5.08,2.46v.95c-1.9,2.65-4.63,1.24-7.26,1-1.34,4.81-2.32,9.79-1.86,14.83.49,5.39,10.5,6.48,11.13,7.94,2.38,5.58-7.28,2.37-9.27.65,3,10.64,12,18.97,22.51,21.97.38-.09-.28-.92-.39-1.07-1.35-1.81-3.15-3.38-4.48-5.41-6.31-9.65-8.47-22.49-7.03-33.8-2.92,1.08-4.53-1.66-2.21-3.86.81-.77,2.92-1.35,3.22-1.72.33-.42,1.41-5.26,1.82-6.41,2.02-5.63,4.71-11.12,8.89-15.46ZM45.98,42.38l-16.47-1.83c-.77,6.19-.88,12.53.81,18.59l15.66,1.91v-18.67ZM50.74,42.38v18.12c.46.69,1.28.58,2.02.58,2.11-.01,9.43-1.52,10.7-.3s.65,3.2-.92,3.84c-1.96.8-10.91.65-11.28,1.17-.57,3.24.05,6.53.22,9.71.1,1.98-.36,4.45.31,6.29.14.39-.18.65.55.47,15.42-7.38,16.93-26.67,14.87-41.71-5.45.87-10.91,1.97-16.48,1.83ZM86.25,57.03l-7.33,3.84-7.61,2.46c-1.08,5.15-2.97,10.26-6.31,14.38l-3.65,4.22c12.22-3.87,21.56-12.31,24.89-24.89ZM46.34,65.45l-14.65-1.09c2.82,7.36,7.12,15.23,14.83,18.31l-.18-17.22Z"/>
  <path class="cls-1" d="M68.97,90.09c2.55-.12,8.69.09,10.91.96,2.79,1.1,1.89,4.06-1.12,4.06-3.86,0-8.04-.68-12.08-.36-2.64.21-8.26,2.19-10.43,1.27-1.68-.71-1.36-2.91.35-3.66,2.91-1.27,9.15-2.12,12.38-2.27Z"/>
</svg>