<?xml version="1.0" encoding="UTF-8"?>
<svg id="logo_guidelines" data-name="logo guidelines" xmlns="http://www.w3.org/2000/svg" viewBox="0 0 100 100">
  <defs>
    <style>
      .cls-1 {
        fill: #2ca3bb;
      }

      .cls-2 {
        fill: #e1f2ff;
      }
    </style>
  </defs>
  <path class="cls-2" d="M12.64,14.3c-2.27,2.47-.93,8.25-.9,11.13.14,11.31-.49,23.22.38,34.42.42,5.33,1.15,6.5,6.53,6.92,7.38.58,15.68.4,23.31.81,2.49.13,8.59-.63,10.31.76,1.73,1.4,1.07,3.7-1.18,3.99-6.33.81-15.2-.56-21.75-.83-8.79-.36-20.68,3.05-21.92-8.93-.57-5.5-.26-11.43-.43-16.97-.27-9.01-1.14-18.65-.43-27.68.53-6.67,3.42-9.56,10.08-10.08,8.43-.66,17.98-.18,26.53-.36,11.39-.24,23.06-.78,34.39-.42,6.05.2,10.88-.31,13.26,6.52,2.14,6.15,1.51,27.08,1.58,34.8.05,5.16.84,16.79-2.21,20.76-1.56,2.03-8.04,4.66-8.49,1.38-.53-3.92,5.28-1.56,5.94-7.49,1.24-11.06-1.56-24.27-.38-35.61-1.71-7.4,2.6-14.84-7.71-15.62-14.76-1.11-32.2.27-47.06.82-3.64.14-17.76-.6-19.86,1.69Z"/>
  <path class="cls-1" d="M76.2,85.76c-2.16,7.8-7.77,12.04-7.92.4-.57-.1-.51.75-.6,1.17-.4,1.98-.27,7.73-3.74,6.14-1.56-.72-3.3-5.24-3.97-6.91-.24-.18-4.02,3.24-5.02,3.47-7.98,1.83-1.51-8.97-.4-12.27.6-1.79,2.33-6.84,2.29-8.43-.03-1.13-2.32-3.91-2.86-5.44-2.36-6.64.4-14.69,6.67-18,10.73-5.67,22.69,3.36,20.98,15.05-.49,3.32-3.73,6.05-3.47,8.81.33,3.57,5,9.87,5.77,14.02.28,1.53.66,4.3-.61,5.36-3.04,1.5-6.34-3.96-7.12-3.36ZM74.47,51.1c-9.79-9.29-23.69,5.83-14.11,15.1s23.72-5.99,14.11-15.1ZM74.56,71.57c-3.33.55-6.1,1.58-9.61,1.1-1.29-.18-3.54-1.62-4.59-.97l-3.94,12.48c1.33-.4,3.53-3.06,4.86-2.72,1.71.44,1.57,4.63,3.04,5.49.46-2.61-.1-13.47,4.74-11.26,2.32,1.06,1.85,8.94,2.78,11.26l2.64-5.96c2.02-1.33,4.69,2.22,4.87,2l-4.79-11.42Z"/>
  <path class="cls-2" d="M55.92,31.28c3.28-.53,4.98,1.8,7.42,1.91,2.85.13,8.4-3.72,10.49.98.24,2.64-4.04,1.53-5.73,1.78-1.32.2-3,1.44-4.42,1.54-2.32.17-4.02-1.93-6.28-2-2.48-.08-3.6,1.67-5.56,1.99-3.81.61-5.27-1.69-8.29-1.59-2.15.07-3.96,1.98-6.34,2.03-3.08.06-3.72-2.53-7.8-1.89-1.88.29-4.81,2.44-6.62.89-.77-.66-.57-2.66.41-3.16,3.79-.51,6.47-2.91,10.36-1.68,1.22.39,2.43,1.47,3.66,1.49,2.34.02,4.12-2.29,7.52-2,1.99.17,3.99,1.93,5.54,1.93,1.64,0,3.84-1.94,5.63-2.23Z"/>
  <path class="cls-2" d="M56.73,20.63c4.15,0,9.28-.08,13.34.27.94.08,3.11.31,3.55,1.19,2.2,4.33-8.05,2.4-9.88,2.36-11.37-.19-22.72.47-34.03.8-1.55.05-5.12.3-6.28-.43s-1.27-2.64.02-3.06c.42-.14,3.86-.4,4.69-.45,9.17-.55,19.38-.7,28.59-.68Z"/>
  <path class="cls-2" d="M38.91,42.75c3.42-.55,3.74,1.5,6.02,2.09,1.48.38,3.28-.17,4.52.62s1.31,3.03-.02,3.46c-.3.09-4.14.43-4.58.39-1.86-.2-3.33-2.24-4.85-2.34-2.05-.13-3.43,2.16-5.93,2.41-1.97.19-3.22-.56-4.74-.59-1.43-.03-5.48,1.72-6.08-.49-.76-2.8,4.19-3.61,6.08-3.59,1.37.02,2.78.91,4.25.64,1.67-.31,3.37-2.29,5.34-2.6Z"/>
  <path class="cls-2" d="M44.85,57.38c1.27,1.22-.08,2.88-1.66,3.09-3.4.45-12.7.32-16.23-.03-.76-.07-2.57-.43-3.13-.82-1.58-1.09-.13-2.94,1.53-3.15,3.55-.46,12.14-.29,15.85,0,.79.06,3.17.44,3.65.9Z"/>
</svg>