<?xml version="1.0" encoding="UTF-8"?>
<svg id="logo_guidelines" data-name="logo guidelines" xmlns="http://www.w3.org/2000/svg" viewBox="0 0 100 100">
  <defs>
    <style>
      .cls-1 {
        fill: #2ca3bb;
      }

      .cls-2 {
        fill: #e1f2ff;
      }
    </style>
  </defs>
  <path class="cls-2" d="M37.46,39.43c8.7-8.6,17.79-18.58,26.62-26.71,6.75-6.2,14.48-3.66,19.38,3.24,6.13,8.63.27,13.66-5.42,19.77-11.46,12.28-23.98,23.91-36.01,35.6-4.11,3.99-8.79,10.39-14.24,12.52s-12.79,2.46-18.59,4.43c-3.49-.13-3.05-2.41-2.66-4.96.96-6.32,2.94-15.56,7.04-20.47,6.09-7.31,15.69-14.98,22.64-21.84.53-.52.83-1.17,1.25-1.58ZM76.9,29.12c2.37-1.85,4.25-3.67,3.74-6.95s-5.39-7.88-8.82-7.76c-1.97.07-5.24,2.16-5.85,4.16,5.2,1.17,9.22,5.68,10.94,10.56ZM31.67,74.35l40.87-40.35c2.24-3.55-3.94-9.7-7.07-10.98-2.87-1.18-3.42-.65-5.72,1.2L21.12,62.85c5.06,2.04,9.53,5.88,10.56,11.49ZM17.24,67.27c-2.16.65-4.7,8.81-3.84,10.85.37.87,2.73,2.53,3.74,2.66,2.47.31,10.22-1.16,10.33-4.33.14-3.88-6.32-10.36-10.24-9.17Z"/>
  <path class="cls-1" d="M25.94,88.03c5.49-.43,13.27-.44,18.68.31,1.7.24,5.63.41,5.52,2.74-.16,3.23-5.13,1.75-6.96,1.72-7.79-.14-15.59.14-23.37,0-5.37-3.68,3.41-4.56,6.13-4.78Z"/>
  <path class="cls-1" d="M63.98,28.81c2.72-.56,4.62,2.54,2.74,4.65l-32.96,32.62c-2.56,1.48-5.56-.93-4-3.62L62.57,29.68c.4-.37.87-.76,1.41-.87Z"/>
</svg>