<?xml version="1.0" encoding="UTF-8"?>
<svg id="logo_guidelines" data-name="logo guidelines" xmlns="http://www.w3.org/2000/svg" viewBox="0 0 100 100">
  <defs>
    <style>
      .cls-1 {
        fill: #2ca3bb;
      }

      .cls-2 {
        fill: #e1f2ff;
      }
    </style>
  </defs>
  <path class="cls-2" d="M54.68,76.12c7.49-3.11,14.4-5.04,22.63-4.49,2.47.17,11.82,2.61,13.22,1.29.29-.56.67-1.21.76-1.83.36-2.63,0-5.12,0-7.57.02-8.53.3-17.1.38-25.57.03-3.28-.72-6.66-.02-9.7,3.83-1.69,4.32,2.69,4.51,5.52.61,8.81-.33,18.81-.38,27.65-.02,3.83.84,10.9-.65,14.21-2.45,5.43-13.03.86-17.48.5-6.66-.53-12.06.62-18.23,2.84-1.88.67-3.84,1.93-5.8,2.49-7.28,2.08-11.46-2.2-18.04-4.05-4.37-1.23-9.02-1.64-13.57-1.29-5.95.46-16.73,6-18.41-2.68-.94-4.83-.09-11.18-.07-16.14.02-7.78-.67-15.78-.36-23.51.08-1.94.53-5.49,2.92-5.73,3.08-.31,1.92,1.96,1.89,3.64-.16,11.56-.96,26.46,0,37.7.29,3.43.85,4.22,4.33,3.96,3.28-.25,6.64-1.5,10.03-1.72,7.95-.52,15.11,1.3,22.29,4.49-3.77-3.94-11.06-6.44-16.42-6.9-4.36-.38-9.88.97-13.8.32-2.53-.42-3.46-3.08-3.66-5.33-1.12-12.79.87-27.16,0-40.12.14-5.02,5.14-5.75,9.18-6.03,10.95-.76,21.35,3.66,29.71,10.37,9.09-7.21,20.95-12.03,32.79-9.98,3.4.59,5.77,1.44,6.11,5.3,1.16,13.1-.91,27.88,0,41.16-.16,2.17-1.39,4.27-3.67,4.63-3.91.6-8.92-.64-13.12-.34-6,.44-12.61,2.91-17.1,6.92ZM47.42,71.63v-37.5c0-1.9-5.72-5.52-7.37-6.45-5.96-3.36-13.22-5.32-20.12-4.79-4.19.32-4.4,2.12-4.67,6.05-.59,8.56-.66,22.62,0,31.13.59,7.6,4,4.28,9.17,4.28,4.95,0,10.73,1.12,15.27,3.08,2.72,1.18,5.06,2.95,7.72,4.21ZM52.26,71.63c3.98-2.46,7.91-4.81,12.5-5.99,2.36-.6,5.99-1.25,8.39-1.29,2.6-.04,5.97.95,8.31.72,2.07-.21,2.43-1.45,2.6-3.28-.65-11.27.82-23.42,0-34.59-.23-3.08-.84-3.99-3.99-4.3-9.79-.97-21.35,3.18-27.82,10.54v38.19Z"/>
  <path class="cls-1" d="M23.15,41.66c4.22-.54,14.16,1.43,17.68,3.9,2.34,1.65,1.48,3.82-1.18,3.63-1.23-.09-2.8-1.14-4.05-1.5-5.06-1.46-7.63-1.14-12.54-1.63-4.31-.43-4.43-3.81.09-4.39Z"/>
  <path class="cls-1" d="M21.74,52.7c1.3-.29,4.69-.17,6.14-.07,2.71.19,13.3,2.51,14.21,5.16.48,1.42-.69,2.48-2.07,2.42-1.45-.06-5.6-2.23-7.73-2.66-1.88-.38-4.2-.61-6.13-.78-1.53-.13-3.65.29-5.03-.16-2.13-.7-1.4-3.47.61-3.92Z"/>
  <path class="cls-1" d="M21.74,30.92c4.27-.95,13.89,1.05,17.86,3.08,1.55.79,4.27,2.58,1.73,4.06-1.66.97-5.49-1.23-7.47-1.78-4.27-1.17-8.32-1.32-12.73-1.44-2.15-.87-1.37-3.48.61-3.92Z"/>
  <path class="cls-1" d="M73.27,41.66c1.88-.07,6.46-.5,6.29,2.46s-7.07,1.76-9.4,2.02c-1.44.16-3.34.71-4.76,1.12-1.82.52-7.13,3.49-7.9.61-.52-1.96,2.61-3.1,4.1-3.72,3.43-1.41,7.97-2.36,11.67-2.5Z"/>
  <path class="cls-1" d="M79.13,53.4c.57.61.55,2.12.12,2.79-.48.75-8.34.73-10.13,1.01-1.21.19-2.46.52-3.64.85-1.97.56-5.44,2.75-7.13,1.78-4.53-2.64,6.4-5.95,8.08-6.35,2.42-.59,11.11-1.78,12.7-.08Z"/>
  <path class="cls-1" d="M71.2,30.95c2.87-.26,11.03-.84,7.33,3.87-4.42.14-8.42.31-12.71,1.46-2.55.69-8.08,4.19-8.39-.06.28-1.91,6.71-3.87,8.5-4.32,1.65-.41,3.58-.81,5.26-.96Z"/>
</svg>