<?xml version="1.0" encoding="UTF-8"?>
<svg id="logo_guidelines" data-name="logo guidelines" xmlns="http://www.w3.org/2000/svg" viewBox="0 0 100 100">
  <defs>
    <style>
      .cls-1 {
        fill: #2ca3bb;
      }

      .cls-2 {
        fill: #e1f2ff;
      }
    </style>
  </defs>
  <path class="cls-2" d="M46.68,70.23c-.71-.72-1.08,1.51-1.15,1.8-1.48,5.31-1.68,13.28-3.53,18.04-2.22,5.7-8.59-4.19-10.86-5.52-2.83.06-12.15,4.57-12.63-.26-.13-1.28,5.07-12.01,5.92-14.57.6-1.8,1.86-5.16,1.75-6.96-.06-1-1.24-5.84-1.75-6.63-1.96-2.96-8.88-2.6-8.68-8.64.08-2.37,1.65-4.02,1.99-5.7.72-3.56-4.99-5.13-3.31-10.6,1.16-3.78,6.1-4.7,6.78-8.18.5-2.57.05-5.39,2.2-7.55,2.01-2.02,4.35-1.34,6.72-1.63,5.21-.63,5.39-7.53,11.79-6.49,2.34.38,4.79,3.23,6.38,3.39,2.38.25,5.41-2.36,9.21-1.23s3.61,6.03,5.56,7.31,4.91.85,7.12,2.62c3.71,2.97.72,6.9,1.72,10.11.77,2.47,5.19,3.5,5.28,7.87.08,3.98-4.02,5.87-4.33,8.39-.36,2.92,1.98,5.04.13,8.8-2.19,4.48-9.84,2.68-8.21,8.52,1.85,6.62,6.26,13.59,8.21,20.33,1.27,7.08-8.86.37-11.43.77-2.79.43-8.01,11.47-10.93,4.19l-3.93-18.17ZM27.08,52.61c2.81,2.62,1.11,8.27,5.87,8.59,1.99.13,2.9-.72,5.23-.03,2.66.79,4.36,3.95,6.41,4.39s4.83-3.3,7.59-3.59c2.21-.24,5.35,1.41,7.23.29,1.28-.76,1.58-3.46,2.29-4.67,1.82-3.1,5.92-2.34,7.33-4.49,1.93-2.95-2.37-6.2.82-10.66.61-.86,1.62-1.45,2.17-2.35,2.95-4.74-3.3-5.98-4.3-9.85-.62-2.42.99-5.46-.35-7.31-1.4-1.94-6.14-.76-8.46-4.41-.82-1.29-1.17-4.08-2.57-4.73-2.82-1.31-5.84,2.32-10.09.69-2.22-.85-3.98-3.73-6.87-2.51-1.11.47-2.48,3.3-3.47,4.18-3.13,2.81-6.84.52-9.24,2.24-2.22,1.58-.29,6.77-3.47,9.75-.95.89-2.6,1.44-3.49,2.42-3.46,3.76,2.15,6.52,2.25,10.31.06,2.52-2.37,4.82-1.55,7.47.71,2.3,5.01,2.72,6.68,4.28ZM38.68,85.89c.87-4.04,1.85-8.31,2.38-12.41.42-3.18,1.18-4.15-1.33-6.56-2.9-2.78-5.44-1.83-9.18-1.86l-6.48,16.65,8.37-1.59,6.24,5.77ZM61.63,66.41c-2.09,1.42-10.27-1.47-11.06.92-.64,1.92,3.39,14.63,3.78,17.51.31.24,4.35-4.57,5.11-4.8,2.59-.77,5.86,1.46,8.45,1.66l-6.28-15.3Z"/>
  <path class="cls-1" d="M79.31,92.24c.92,4.05-1.94,2.72-4.26,2.68s-4.99-.11-7.32.02c-2.98.17-7.2,1.44-9.75,1.42s-3-2.46-1.65-3.16c.7-.36,5.46-1.2,6.57-1.35,5.33-.71,11.21-1,16.41.39Z"/>
  <path class="cls-2" d="M42.08,19.17c16.93-2.29,30.57,15.67,20.55,30.64-11.07,16.53-37.81,7.39-37.18-12.13.28-8.81,7.89-17.32,16.63-18.51ZM44.18,23.01c-6.96.38-13.95,6.58-14.54,13.65-1.42,16.93,22.21,24.55,30.32,9.79,6.35-11.54-3.51-24.12-15.78-23.44Z"/>
  <path class="cls-1" d="M45.55,28.18c2.67-.51,3.13,5.21,4.97,6.03,1.15.51,5.66-.1,6.2,1.45.99,2.46-3.61,4.34-4.07,5.94s1.56,5.49.3,6.89c-1.72,1.9-5.19-2.05-6.85-2.19s-4.79,3.74-6.72,2.18.49-4.99-.08-6.88c-.32-1.08-3.73-3.26-4.05-4.33-1.02-3.4,4.79-2.19,6.4-3.2,1.38-.87,1.81-5.49,3.89-5.89ZM46.33,34.05l-.71.21c-.63,3-2.6,2.72-4.84,3.79,2.2,1.66,2.54,3.5,1.74,6.09,2.41-1.77,4.53-1.78,6.95,0-.14-1.24-.57-2.27-.27-3.58s1.85-1.72,2.01-3.03c-2.58.3-4.37-.94-4.87-3.48Z"/>
</svg>