<?xml version="1.0" encoding="UTF-8"?>
<svg id="logo_guidelines" data-name="logo guidelines" xmlns="http://www.w3.org/2000/svg" viewBox="0 0 100 100">
  <defs>
    <style>
      .cls-1 {
        fill: #2ca3bb;
      }

      .cls-2 {
        fill: #e1f2ff;
      }
    </style>
  </defs>
  <path class="cls-2" d="M19.99,71.03c.1,1.43-.18,2.94-1.06,4.11-3.99.26-13.68.85-14.55-4.37-.66-3.95.12-9.97,1.99-13.54,2.22-4.23,5.98-5.81,10.05-7.79-12.79-5.45-7.38-24.72,6.8-22.14,9.51,1.73,11.59,14.97,4.03,20.47l-3.33,1.84c3.03.64,5.91,1.99,8.22,4.09.62.56,1.01,1.92,1.88,1.91l6.31-2.61c-6.43-5.15-9.13-12.48-5.77-20.4,7.09-16.67,33.1-9.04,29.58,9.6-.97,5.14-3.67,7.98-7.39,11.33,11.98,2.91,18.17,13.82,16.73,25.83-.32,2.67-1.44,4.7-4.05,5.59-7.7,2.63-21.19.03-29.62-.39-4.72-.24-15.77,1.68-16.88-4.89-1.2-7.14,2.48-15.97,7.06-21.32-5.53-7.79-18.55-5.53-20.96,4.03-.5,1.98-1.38,7.42.95,8.12.35.1,3.1.52,3.41.52h6.6ZM47.03,27.96c-4.91.6-9.08,5.23-9.51,10.11-.95,10.82,12.07,17.41,19.4,9.06,7.06-8.04.91-20.48-9.89-19.17ZM19.18,31.52c-7.91,1.35-7.18,15.03,1.33,14.56,9.9-.55,8.98-16.31-1.33-14.56ZM68.05,80.56c1.2-1.01.94-6.22.77-7.88-1.95-19.47-32.7-21.46-39.73-4.5-.91,2.2-3.02,9.23-1.16,10.96,2.04,1.9,16.48.99,20.08,1.15s7.69.96,11.39,1.1c1.93.07,7.29.31,8.65-.83Z"/>
  <path class="cls-1" d="M81.71,48.92c-.14.91.08.55.5.74,4.59,2.09,7.17,2.2,10,7.13,2.01,3.5,3.96,12.94,1.12,16.04-2.87,3.13-13.45,2.61-17.45,2.07-.62-.2-1.38-3.21-.35-3.46,2.22-.05,13.73-.14,14.58-1.83.77-1.54-.1-6.81-.72-8.57-3.12-8.97-15.12-9.84-21.1-3.25l-3.32-2.28c2.02-3.09,5.63-5.25,9.26-5.9-2.02-1.62-4.25-2.46-5.86-4.66-7.09-9.69,2.6-22.45,14.06-17.63,9.48,3.99,9.09,18.57-.71,21.58ZM77.01,30.44c-8.42.47-9.05,13.5-.66,15.1,11.21,2.13,11.44-15.7.66-15.1Z"/>
  <path class="cls-1" d="M77.36,88.27c1.85-.11,3.75-.21,5.6-.1,1.01.06,5.57.49,5.85,1.29.19.88.16,2.24-.92,2.56-2.28.67-9.07-.11-12.06.08-3.2.2-6.45.97-9.62,1.41-2.38-.46-2.79-2.65-.36-3.54,2.41-.89,8.79-1.53,11.51-1.69Z"/>
</svg>