<?xml version="1.0" encoding="UTF-8"?>
<svg id="logo_guidelines" data-name="logo guidelines" xmlns="http://www.w3.org/2000/svg" viewBox="0 0 100 100">
  <defs>
    <style>
      .cls-1 {
        fill: #2ca3bb;
      }

      .cls-2 {
        fill: #e1f2ff;
      }
    </style>
  </defs>
  <path class="cls-2" d="M72.46,40.17c4.96.47,10.65-.06,15.52.45,4.16.44,4.98,2.32,5.26,6.22.47,6.53-.03,14.18-.03,20.85,0,2.87.47,5.83-.07,8.88-.57,3.19-8.53,9.58-11.67,10.23-5.64,1.17-20.7.88-26.84.44-4.51-.32-6.46-.68-6.65-5.74-3.63,2.75-5.36,4.66-10.21,5.04-6.59.51-16.14.76-22.62-.02-4.28-.51-7.48-1.03-8.04-5.96-.79-6.93-.93-18.14-.41-25.1.18-2.35.64-4.89,2.33-6.64s7.81-7.09,9.77-8.18c2.33-1.3,5.07-1.27,7.66-1.5.42-6.45-.56-13.57-.01-19.94.31-3.59,2.11-4.66,4.49-7,2.2-2.16,5.63-5.77,8.62-6.1,6.9-.74,20.23-.36,27.24.41,3.38.37,4.89,1.3,5.25,4.81.85,8.49-.64,18.31-.01,26.94.05.66.12,1.31.43,1.91ZM63.08,11.14l-22.79-.36c-2.22,1.19-3.96,3.12-5.57,5.01,5.19-.16,10.44.22,15.63.02,2.09-.08,7.46-.22,8.96-1.09,1.22-.71,2.85-2.45,3.77-3.58ZM67.02,14.73c-.36-.41-3.16,2.37-3.22,3.06l.71,26.38c1.17-.94,2.87-1.63,2.88-3.4l-.37-26.03ZM32.29,48.75c.4.4,1.32.41,1.87.46,5.35.45,11.19-.15,16.51-.39,1.57-.07,7.54.44,8.28-.69.5-6.4.07-12.85-.2-19.2-.07-1.58.43-7.4-.5-8.13l-26.73.08c-.63.39-.45,8.43-.42,9.84.02.85.36,1.63.39,2.48.06,2.18-.09,14.66.79,15.55ZM16.05,49.55h10.77l-.41-5.69c-4.24-.7-7.62,3-10.36,5.69ZM65.95,49.91h12.74c1,0,4.92-3.56,5.56-4.66-3.79-.21-8.28-.76-12.05-.38-2.18.22-4.79,3.41-6.26,5.05ZM88.2,49.19c-1.47.45-3.05,2.2-3.24,3.76-.43,3.65.3,7.52.38,11.12.11,4.74-.17,9.47.35,14.19,1.57-.82,2.65-1.91,2.88-3.76l-.37-25.31ZM44.77,77.55c1.05-.89,2.7-1.99,2.89-3.39.55-4.13-.12-10.48-.39-14.72-.07-1.07.34-4.96-.32-5.42-.6-.41-2.98-.41-2.9.74l.72,22.8ZM37.77,54.58H11.74c-.98,8.6.19,17.36.37,26.02.22,1.22.94,1.19,1.94,1.29,5.37.53,11.51-.15,16.88-.39,1.6-.07,7.08.36,8-.43,1.52-1.31.46-6.23.43-7.98-.09-5.14.19-11.55-.34-16.53-.09-.85-.28-1.79-1.26-1.97ZM53.21,54.93c-.51.32-.5.72-.56,1.24-.91,7.78.9,16.9.36,24.8,0,.48.13.96.52,1.27,1.75,1.38,21.2-.51,24.81-.03,1.68-.21,2.19-.7,2.35-2.32.5-5.13-.41-13.68-.75-19.03-.07-1.05.47-5.94-.88-5.94h-25.85Z"/>
  <path class="cls-1" d="M64.78,58.61c.98-.17,2.52-.19,3.51-.09,2.13.23,7.5,2.83,5.41,5.41s-3.75-.44-5.58-.93c-8.39-2.24-8.46,13.11-.57,11.66,1.98-.37,3.31-3.97,5.94-1.95,3.71,2.85-4.02,6.52-6.69,6.61-12.41.43-12.81-18.87-2.01-20.71Z"/>
  <path class="cls-1" d="M45.76,24.13c2.89-.37,4.03,3.1,5.06,5.19,1.2,2.44,4.8,10.08,5.28,12.31.14.65.3,1.27.11,1.93-3.4,3.03-3.93-.78-5.5-1.92s-6.79-.82-8.55-.27c-1.5.47-2.19,4.33-5.11,3.19-1.66-.65-1.28-1.35-.9-2.74.75-2.78,5.26-12.96,6.76-15.49.61-1.03,1.62-2.04,2.86-2.2ZM43.33,36.62c.87.41,5.7.74,5.74-.17l-3.04-6.28-2.69,6.46Z"/>
  <path class="cls-1" d="M18.03,78.27c-1.37-.41-1.17-8.77-.34-10.04,2.05-3.13,10.8.06,10.6-4.15-.13-2.63-4.6-2.74-6.44-1.91.26,2.14-.66,4.91-3.27,3.71-1.82-.83-2.84-7.38.87-7.73,1.99-.19,6.62-.2,8.55.11,5.53.87,6.69,6.61,2.42,9.96,3.7.78,4.26,5.98,1.76,8.4-.4.39-2.61,1.65-3.02,1.65h-11.13ZM22.76,70.08c-1.39.41-1.2,3.41-.63,4.44,1.99.19,5.61.82,6.57-1.37,1.35-3.05-3.98-3.64-5.94-3.07Z"/>
</svg>