<?xml version="1.0" encoding="UTF-8"?>
<svg id="logo_guidelines" data-name="logo guidelines" xmlns="http://www.w3.org/2000/svg" viewBox="0 0 100 100">
  <defs>
    <style>
      .cls-1 {
        fill: #2ca3bb;
      }

      .cls-2 {
        fill: #e1f2ff;
      }
    </style>
  </defs>
  <path class="cls-2" d="M41.58,79.08c-.02.55.09,1.44.48,1.82,1.36,1.33,14.72-.37,18.26,1.04s2.12,6.05.38,8.41c-3.15,4.26-7.9,5.77-13.08,5.06-2.51-.34-9.5-3.55-6.97-6.77,2.02-2.57,5.14.94,7.23,1.54,3.41.98,7.62-.18,8.62-3.84-1.52.26-2.94-.31-4.38-.4-5.87-.35-14.8,2.46-15.78-6.01-.19-1.66.33-2.62.3-4.08-.25-14.34-16.24-18.55-12.37-36.84,6.69-31.69,53.92-24.47,51.72,5.86-.81,11.2-8.78,14.71-11.27,23.5-.83,2.92-.72,8.07-3.74,9.63-.47.24-3.15,1.07-3.52,1.07h-15.86ZM52.66,74.49c7.25,1.19,5.8-3.27,7.36-8.11,3.66-11.3,15.52-15.19,9.63-30.48-7.93-20.63-38.97-14.2-40.3,7.07-.75,11.95,8.58,15.8,11.27,25.4.52,1.85.66,3.88,1.13,5.75l5.56.37v-7.45c0-3.48-5.46-10.04-6.89-13.75-2.49-6.5-1.73-15.68,5.64-18.45,11.6-4.36,18.6,9.99,10.55,15.13-2.61,1.66-8.46,2.08-8.19-2.04.22-3.39,4.7-.81,6.1-3.49,2.27-4.36-5.15-8.29-9.12-3-5.1,6.79,3.42,14.52,5.8,20.56.44,1.11,1.46,4.02,1.46,5.04v7.45Z"/>
  <path class="cls-1" d="M48.16,3.89c.79-.78,3.16-.75,3.9.31.92,1.32.94,7.75-.15,8.98-.83.94-2.74,1.11-3.65.17-1.1-1.14-.77-6.53-.54-8.19.05-.39.16-1,.44-1.27Z"/>
  <path class="cls-1" d="M86.22,33.31c3.37-.11,4.17,3.83,1.5,4.97-1.2.51-6.71.51-7.76-.08-1.52-.85-1.91-3.21-.29-4.15.85-.49,5.25-.71,6.55-.75Z"/>
  <path class="cls-1" d="M68.42,20.14c-.6-.6-.56-2.19-.3-2.99.09-.29,3.49-4.6,3.77-4.83,2.33-1.88,5.24-.36,4.3,2.57-.14.42-3.39,4.48-3.88,4.92-.95.86-2.99,1.22-3.89.32Z"/>
  <path class="cls-1" d="M31.53,20.11c-1.93,1.56-3.41-.1-4.67-1.41-1.35-1.4-4.03-4.37-2.51-6.35,2.19-2.89,7.42,3.59,7.91,5.18.27.87-.03,2.02-.72,2.57Z"/>
  <path class="cls-1" d="M12.03,33.68c1.07-.32,6.56-.18,7.61.27,1.69.73,1.73,3.3.31,4.2-.99.63-6.22.63-7.43.25-2.22-.69-2.47-4.13-.48-4.72Z"/>
</svg>