<?xml version="1.0" encoding="UTF-8"?>
<svg id="logo_guidelines" data-name="logo guidelines" xmlns="http://www.w3.org/2000/svg" viewBox="0 0 100 100">
  <defs>
    <style>
      .cls-1 {
        fill: #2ca3bb;
      }

      .cls-2 {
        fill: #e1f2ff;
      }
    </style>
  </defs>
  <path class="cls-2" d="M25.79,15.13c2.07-.11,3.52.25,5.33.26,14.01.02,29.87-.97,43.64-.03,5.76.39,10.19,2.38,10.73,8.69.77,8.96.36,22.19,0,31.37-.04.99-.73,3.04-.61,3.69.09.45,4.72,6.06,5.51,7.39,1.74,2.94,4.63,9.16-.4,10.45-1.77.45-5.46.69-7.4.78-17.65.86-37.06.11-54.88-.03-5.18-.04-10.75.36-15.99-.33-7.17-.95-6.14-4.47-3.3-9.76,1.31-2.45,4.29-5.66,5.19-7.75.72-1.68-.3-8.58-.38-10.91-.26-7.54-.89-16.81-.34-24.21.6-7.99,5.77-9.22,12.89-9.6ZM18.44,56.85c.69.72,6.18,1.05,7.57,1.12,14.83.67,33.98.82,48.75,0,1.1-.06,4.95-.4,5.59-.88.7-.53.98-3.08,1.05-4.06.49-6.87.28-16.23,0-23.2-.07-1.75-.14-4.87-.38-6.43-.3-1.96-2.13-3.21-3.98-3.52-9.13-1.51-21.51-.12-30.9-.06-6.89.04-14.87-.82-21.49-.37-2.39.16-6.27.5-7.08,3.14-.28.92-.55,4.1-.58,5.21-.17,5.52.52,11.82.71,17.37.07,2.14-.43,10.47.75,11.69ZM11.25,72.56c2.81.9,5.77.56,8.66.71,17.25.88,34.84.39,52.09,0,4.07-.09,8.65.36,12.61,0,4.01-.35,4.05-.73,2.4-4.09-.75-1.51-4.4-7.18-5.88-7.44-.76-.13-1.5.29-2.29.3-18.01.23-36.54.34-54.54,0-1.87-.03-5.49-.99-7.1.02-1.25.79-6.75,9.21-5.95,10.48Z"/>
  <path class="cls-2" d="M88.46,84.1c-.95.95-10.86.01-13.05.07-2.34.06-5.97.86-8.16.72-2.65-.17-3.16-2.83-.32-3.41,4.47-.91,16.03-1.29,20.34-.29,1.38.32,2.24,1.86,1.18,2.91Z"/>
  <path class="cls-1" d="M53.36,52.75c-.89.99-5.17.9-6.56.78-15.16-1.33-15.04-23.01-1.59-27.17,9.55-2.96,18.18,2.67,17.46,13.03-.44,6.29-5.8,10.53-11.08,5.66-7.22,5.49-12.1-3.58-7.51-9.6,2.94-3.85,6.32-2.91,10.5-2.31,2.88.84-.68,7.87.61,9.95,1.33,2.14,3.36-.84,3.63-2.43,2.72-16.2-21.5-14.98-19.68,1.45.47,4.26,4.06,7.74,8.34,8.01,1.59.1,4.18-.67,5.29-.17,1.03.46,1.38,1.93.6,2.8ZM51.33,36.23c-3.81-2.42-6.91,5.74-3.92,7.16s5.3-4.99,3.92-7.16Z"/>
  <path class="cls-2" d="M24.67,25.93c-.34.09-.77.8-.84,1.2-.34,1.8.6,8.19-.49,9.05-1.4,1.11-2.42-.06-2.59-1.56-.22-1.96-.23-6.92,0-8.87.13-1.08.63-1.99,1.62-2.47,1.52-.74,7.06-.94,8.7-.34s.75,2.99.08,2.99h-6.47Z"/>
  <path class="cls-1" d="M61.88,66.55c1.08,1.15.2,3.35-1.42,3.34-6.74-.66-14.94.81-21.49,0-3.13-.39-2.96-3.69.7-4.1,4.35-.49,15.75-.49,20.11,0,.53.06,1.79.43,2.12.78Z"/>
</svg>