<?xml version="1.0" encoding="UTF-8"?>
<svg id="logo_guidelines" data-name="logo guidelines" xmlns="http://www.w3.org/2000/svg" viewBox="0 0 100 100">
  <defs>
    <style>
      .cls-1 {
        fill: #2ca3bb;
      }

      .cls-2 {
        fill: #e1f2ff;
      }
    </style>
  </defs>
  <path class="cls-2" d="M40.18,73.76h-20.82c-1.16,0-4.28-.48-5.5-.8-7.18-1.9-6.92-9.57-7.28-15.47-.67-10.79-1.31-26.88,0-37.45s8.44-9.19,16.98-9.62c17.31-.85,38.01-1.25,55.3-.38,3.39.17,8.28.54,11.02,2.63,6.28,4.78,4.23,17.57,4.18,24.49-.06,8.06,1.84,26.06-2.49,32.51-2.42,3.6-8.03,3.9-12,4.1-2.45.12-17.32-.38-18.06.14-1.1.77.15,5,1.44,5.95,3.23,2.38,9.54-.41,9.8,3.53.24,3.67-4.3,2.99-6.84,2.97-9.83-.1-19.87-.51-29.75-.38-2.21.03-7.53,1.59-7.88-1.93-.38-3.87,4.68-2.72,7.02-3.1,4.44-.71,4.9-3.08,4.88-7.19ZM87.31,16.83c-2.42-2.42-8.75-1.71-11.97-1.85-13.27-.61-26.85-.3-40.22,0-6.11.14-12.44-.29-18.52.38-2.32.25-4.44.91-4.96,3.44-1.16,5.66-.18,11.68-.14,17.33.02,2.9-.37,21.41.3,22.37.62.46,1.54.53,2.29.59,4.88.37,10.44-.12,15.43-.03,13.71.24,27.54.64,41.3.38,4.74-.09,9.98.01,14.7-.35,1.14-.09,3.34-.3,3.83-1.42-.04-9.86.68-20.06.2-29.93-.12-2.41-.46-7.1-1.25-9.25-.15-.42-.68-1.33-.99-1.64ZM12.18,63.26c-.02,4.28,2.68,5.36,6.46,5.62,20.46-1.1,42.37,1.41,62.66-.02,3.84-.27,7.21-.86,7.52-5.4l-76.64-.2ZM57.68,81.11l-1.38-7.55h-11.24s-.28.42-.28.42c.1,2.47-.33,4.8-1.1,7.13h14Z"/>
  <path class="cls-1" d="M40.78,24.14c4.48-.91,10.5,2.87,14.45,4.99,4.53,2.43,16.22,7.46,9.98,13.85-2.31,2.37-17.91,10.87-21.02,11.18-4.17.41-7.19-1.07-7.87-5.42s-.17-8.65.02-12.94c.18-4.04-1.15-10.52,4.44-11.66ZM42.18,29.02c-.76.22-.87.81-.97,1.49-.46,3.44-.36,13.26,0,16.84.29,2.99,2.14,2.37,4.24,1.39,5.14-2.4,10.51-6.22,15.57-8.94l.11-1.15c-.25-.58-.75-.9-1.23-1.24-2.77-1.98-11.87-6.76-15.08-8.02-.84-.33-1.72-.65-2.63-.38Z"/>
  <path class="cls-1" d="M19.8,18.91c1.55-.19,8.45-.39,9.63-.03s1.56,2.77.58,3.6c-1.58,1.34-9.62-.17-10.34.86-.81,3.46.12,8.82-.58,12.02-.09.41-.28.87-.64,1.11-1.29.82-3.19.12-3.48-1.39-.35-1.83-.17-7.71-.02-9.81.27-3.94.54-5.83,4.84-6.36Z"/>
</svg>