<?xml version="1.0" encoding="UTF-8"?>
<svg id="logo_guidelines" data-name="logo guidelines" xmlns="http://www.w3.org/2000/svg" viewBox="0 0 100 100">
  <defs>
    <style>
      .cls-1 {
        fill: #2ca3bb;
      }

      .cls-2 {
        fill: #e1f2ff;
      }
    </style>
  </defs>
  <path class="cls-2" d="M41.01,6.39c16.21-1.57,31.29,2.67,41.92,15.35,20.62,24.61,2.47,58.17-27.94,60.04-2.35.14-7.81-.78-9.32-.33-.81.24-3.53,3.54-4.61,4.38-3.68,2.89-11.87,6.02-16.5,5.22-5.24-.91.28-7.74,1.08-10.86.42-1.64.99-3.93.51-5.59-.22-.74-7.66-5.59-9.12-6.91C-7.39,45.56,11.48,9.25,41.01,6.39ZM28.96,85.67c3.72-.03,7.63-2.28,10.18-4.88,1.39-1.42,2.68-4.35,4.67-4.75,1.58-.32,3.62.57,5.28.65,25.21,1.22,47.66-22.32,33.52-46.82-13.91-24.1-53.58-25.18-67.8-.78-8.12,13.92-4.22,27.77,8.32,37.18,6.43,4.83,9.42,2.58,7.73,12.5-.41,2.4-1.45,4.53-1.9,6.9Z"/>
  <path class="cls-2" d="M51.57,90.87l4.18-.11c1.5.71,7.44-.1,7.97,1.41.2.96.18,2.45-1.01,2.8-2.38.7-9.73-.08-12.84.06-3.61.16-7.85,1.18-11.31,1.22-1.95.02-4.13-.71-2.52-2.93,1.27-1.76,13.01-2.13,15.53-2.45Z"/>
  <path class="cls-1" d="M47.28,22.01c13.05-.63,20.09,15.02,9.26,23.37-1.41,1.09-5.5,2.63-5.98,4.19-.42,1.37.31,3.59-1.62,4.24-4.91,1.65-4.41-4.33-2.92-7.22,2.33-4.51,10.33-4.42,10.35-11.18.04-9.2-13.7-10.34-15.8-3.26-.54,1.82.1,3.97-1.86,5.18-2.25,1.39-4.17-.23-4.3-2.7-.34-6.82,6.49-12.32,12.87-12.62Z"/>
  <path class="cls-1" d="M47.65,58.36c5.29-.59,5.88,7.11,1.77,8.06-6.75,1.55-7.58-7.41-1.77-8.06Z"/>
</svg>