<?xml version="1.0" encoding="UTF-8"?>
<svg id="logo_guidelines" data-name="logo guidelines" xmlns="http://www.w3.org/2000/svg" viewBox="0 0 100 100">
  <defs>
    <style>
      .cls-1 {
        fill: #2ca3bb;
      }

      .cls-2 {
        fill: #e1f2ff;
      }
    </style>
  </defs>
  <path class="cls-2" d="M38.69,3.51c21.16-2.17,37.86,17.44,32.45,37.98-.41,1.56-3.25,7.57-3.16,8.14.07.46,1.75,2.73,2.16,3.03.89.64,1.75.41,2.59.73,1.06.41,12.5,11.84,13.83,13.47,9.72,11.86-3.87,25.72-15.12,16.23-1.4-1.18-12.77-14.77-13.02-15.76-.22-.87.03-1.7-.29-2.67-.17-.53-2.67-3.33-3.11-3.52-2.06.29-3.89,1.41-5.9,1.86C23.66,68.71,2.88,41.63,15.82,18.65c4.57-8.11,13.53-14.18,22.87-15.14ZM40.54,8.31c-17.15.81-27.74,19.27-21.02,34.83,7.99,18.5,34.18,20.32,44.17,2.71,9.75-17.19-3.73-38.45-23.15-37.54ZM64.48,54.38l-5.03,4.19,2.75,3.04,4.96-4.57-2.68-2.66ZM72.23,59.91c-.67.06-5.92,4.65-6.72,5.47-.47.48-1.05.8-.86,1.58.17.7,5.31,6.79,6.23,7.83,1.69,1.92,4.35,5.54,6.9,6.01,5.45,1.01,8.11-3.6,6.19-8.4-.64-1.58-4.49-5.55-5.9-7.02-.8-.83-5.29-5.53-5.85-5.48Z"/>
  <path class="cls-1" d="M71.52,87.63c1.08,1.09.58,3.01-1.19,3.25-4.41.59-11.16-.09-15.9-.03-1.86.02-4.35,1.27-4.94-1.64,0-.44.25-.95.54-1.28,2.15-2.42,19.33-2.47,21.49-.29Z"/>
  <path class="cls-1" d="M37.95,13.84c19.46-2.32,32.26,20.06,18.73,33.49-1.54,1.53-6.8,4.88-8.05,1.72-1.02-2.57,3.17-3.56,4.73-5.04,8.82-8.32,2.11-24.3-9.61-25.48-16.85-1.69-22.76,19.06-8.92,27.01,2.07,1.19,6.71,1.97,7.83,2.87,1.78,1.42.78,4.04-1.48,4.08-6.55.1-14.5-6.29-16.98-12.19-4.5-10.71,1.7-25.03,13.75-26.46Z"/>
</svg>