<?xml version="1.0" encoding="UTF-8"?>
<svg id="logo_guidelines" data-name="logo guidelines" xmlns="http://www.w3.org/2000/svg" viewBox="0 0 100 100">
  <defs>
    <style>
      .cls-1 {
        fill: #2ca3bb;
      }

      .cls-2 {
        fill: #e1f2ff;
      }
    </style>
  </defs>
  <path class="cls-2" d="M26.38,63.05c-.49,2.81-4.43,3.23-5.2.28l-.25-18.02-12.47-5.1c-1.48-1.78-1.19-4.32,1.04-5.27,12.43-4.96,25.32-14.06,37.71-18.5,1.74-.62,3.02-.87,4.79-.09,12.58,5.93,26.89,9.87,39.35,15.8,3.61,1.72,4.91,4.09,1.04,6.63-3.22,2.12-7.39,3.07-10.45,5.35-.42,1.65.26,3.31.31,4.85.14,4.82.55,12.69,0,17.24-.1.82-.62,1.95-1.18,2.51-1.03,1.03-6.4,3.32-8.08,4.04-6.43,2.77-14.35,5.8-21.45,5.16-1.61-.14-8.46-1.44-8.94-3.01-1.75-5.71,6.67-2.07,9.25-1.87,5.93.45,12.75-2.01,18.18-4.29,1.37-.57,6.63-2.74,7.1-3.79l-.17-18.61c-10.17,3.68-19.13,10.8-30.58,8.27-1.32-.29-7.4-2.42-8.07-3.17-1.22-1.35-.62-3.38,1.05-3.9s4.53,1.28,6.34,1.78c10.58,2.89,24.19-5.13,33.85-9.71,2.53-1.2,5.43-2.51,7.6-4.16l-35.04-13.98c-1.51-.66-2.89-.57-4.4.01-7.93,3.07-17.03,8.54-24.85,12.39-2.41,1.19-4.92,2.27-7.39,3.33l.45.78,14.49,5.04,19.84-10.6c3.34-.49,4.37,2.5,1.73,4.57-3.94,3.1-10.61,5.1-14.85,7.99-1.9,1.29-1.87,2.84-2.01,5.02-.17,2.79-.2,15.18.92,17.03.93,1.53,2.9,1.77,3.51,4.57.65,3.01-.82,3.8-.86,5.46-.02,1,1.55,4.47,1.71,6.34.21,2.3.62,7.41-2.3,7.88-1.59.25-7.87.26-9.44,0-.69-.11-1.67-.57-1.88-1.28-.3-1-.17-5.99-.06-7.3.13-1.5,1.07-3.82,1.06-4.93,0-1.26-1.33-3.04-1.29-4.86.02-.83.4-2.24.78-3.01.77-1.54,2.9-2.33,3.23-3.8.51-2.26.31-12.01.09-14.69-.28-3.29-1.22-3.53-4.23-4.38v15.99ZM31.74,74.38c1.31,1.3,4.26-.34,2.76-2.23-1.43-1.79-4.37.63-2.76,2.23ZM34.72,80.18c-3.06-2.9-4.56,6.18-2.49,6.87.68.23,3.32.3,3.58-.52.38-1.16-.18-5.5-1.09-6.36Z"/>
  <path class="cls-1" d="M71.61,54.86c2.34-.24,3.41,2.25,1.82,3.94-.89.95-6.55,3.62-8.06,4.24-5.13,2.1-10.67,3.25-16.24,2.55-1.63-.2-8.19-2.11-9.06-3.24-.99-1.28-.54-3.23,1.24-3.38,1.67-.14,5.98,1.91,8.44,2.13,5.11.46,9.45-.44,14.11-2.39,1.71-.72,6.5-3.72,7.75-3.85Z"/>
</svg>