<?xml version="1.0" encoding="UTF-8"?>
<svg id="logo_guidelines" data-name="logo guidelines" xmlns="http://www.w3.org/2000/svg" xmlns:xlink="http://www.w3.org/1999/xlink" viewBox="0 0 322.82 201.26">
  <defs>
    <style>
      .cls-1 {
        fill: #0f1c3f;
      }

      .cls-2 {
        clip-path: url(#clippath);
      }
    </style>
    <clipPath id="clippath">
      <path class="cls-1" d="M153.28,42.5l-7.96,5.71c-10.91,6.52-26.61,6.45-37.01-1,20.1.46,29.86-22.94,15.73-37.33C112.99-1.36,90.09.41,77.18,7.42c-15.68,8.51-21.89,23.96-17.09,41.25-17.37-3.33-35.15-.54-47.18,13.22-15.41,17.63-14.23,50.46,9.27,60.09,8.01,3.28,15.99,2.16,23.8-1.02-2.59,5.98-5.75,11.73-9.59,17.01-5.04,6.94-11.01,12.3-17.78,17.49-.7.54-12.28,7.86-12.28,7.86-.31.54,2.42,6.23,3.2,6.58.22.1.41.2.66.09,9.17-4.92,17.87-10.89,24.92-18.61,9.96-10.91,26.78-37.16,19.44-52.07-3.73-7.59-16.7-10.23-20.63-1.57,3.94-1.29,7-2.33,10.68.35,6.03,4.38,6.19,12.84-.3,16.94-8.81,5.58-21.67.81-27.88-6.7-12.87-15.58-4.8-40.85,11.71-50.3,13.25-7.59,30.24-6.56,43.7.05-1.1-2.4-2.73-4.51-3.78-6.95-11.33-26.3,12.99-47.3,38.53-42.92,24.61,4.22,19.1,35.92-3.15,33.41-4.04-.45-6.74-4.46-6.32-8.38.09-.86,2.02-4.37.57-4.14-2.71.42-4.66,5.21-4.7,7.67-.17,10.08,13.8,16.65,22,18.87,12.38,3.36,27.32,3.52,38.28-3.88v-9.26ZM153.28,110.67l-2.8,7.93c-3.68,8.47-11.01,14.35-20.67,12.15-10.42-2.37-13.4-13.55-10.05-22.72-9.54,4.54-10.73,18.18-8.31,27.26,4.89,18.35,24.45,26.48,41.82,27.98v-52.6ZM84.5,111.26l3.77-8.42c3.61-6.34,8.72-11.77,14.89-15.68l10.73-5.28c-11.31-.67-21.65-4.32-30.33-11.68-4.62-3.91-5.21-4.65-9.36-8.56l3.27,7.8c6.77,12.73,7.42,27.55,7.03,41.82ZM153.28,64.83c-4.31,5.7-10.06,9.65-16.68,12.27-4.54,1.8-9.4,2.72-13.9,4.62,0,.38,6.53.66,7.46.78,9.74,1.25,17.33,5.72,21.89,14.56l1.23,2.74v-34.97ZM153.42,188.25c-2.29.31-4.6.36-6.92.31-30.11-.7-53.88-15.73-61.19-45.79-1.9-7.81-2.03-15.9-2.88-23.87-3.93,25.18-13.95,50.57-33.97,67.13l-.53.41,6.78,6.02.39-.35c11.59-11.3,19.89-25.46,25.57-40.57.26,0,1.33,3.45,1.56,4.02,9.62,22.79,31.57,37.7,55.31,42.85,5.02,1.09,10.74,1.97,15.87,1.86.04-.21,0-12.01,0-12.01ZM170.57,51.75c10.96,7.4,25.89,7.24,38.28,3.88,8.21-2.23,22.17-8.8,22-18.87-.04-2.46-1.99-7.25-4.7-7.67-1.45-.22.47,3.29.57,4.14.42,3.92-2.28,7.92-6.32,8.38-22.25,2.5-27.75-29.2-3.15-33.41,25.54-4.38,49.85,16.63,38.53,42.92-1.05,2.43-2.68,4.55-3.78,6.95,13.46-6.61,30.45-7.64,43.7-.05,16.51,9.46,24.58,34.72,11.71,50.3-6.2,7.51-19.06,12.28-27.88,6.7-6.48-4.1-6.33-12.56-.3-16.94,3.68-2.67,6.74-1.64,10.68-.35-3.92-8.67-16.89-6.02-20.63,1.57-7.34,14.91,9.49,41.16,19.44,52.07,7.04,7.72,15.74,13.69,24.92,18.61.25.11.43,0,.66-.09.78-.35,3.52-6.04,3.2-6.58,0,0-11.58-7.32-12.28-7.86-6.77-5.19-12.74-10.55-17.78-17.49-3.83-5.28-6.99-11.03-9.59-17.01,7.82,3.18,15.79,4.3,23.8,1.02,23.5-9.63,24.68-42.47,9.27-60.09-12.03-13.76-29.82-16.55-47.18-13.22,4.8-17.29-1.4-32.73-17.09-41.25-12.91-7.01-35.81-8.78-46.85,2.46-14.13,14.38-4.37,37.79,15.73,37.33-10.4,7.45-26.1,7.52-37.01,1l-7.96-5.71v9.26ZM170.57,163.27c17.37-1.5,36.94-9.63,41.82-27.98,2.42-9.08,1.23-22.73-8.31-27.26,3.35,9.18.37,20.35-10.05,22.72-9.65,2.2-16.99-3.68-20.67-12.15l-2.8-7.93v52.6ZM246.38,69.44l3.27-7.8c-4.16,3.91-4.75,4.65-9.36,8.56-8.69,7.36-19.02,11.01-30.33,11.68l10.73,5.28c6.17,3.91,11.28,9.34,14.89,15.68l3.77,8.42c-.39-14.27.26-29.09,7.03-41.82ZM170.57,99.8l1.23-2.74c4.56-8.84,12.14-13.31,21.89-14.56.92-.12,7.45-.4,7.46-.78-4.5-1.9-9.36-2.83-13.9-4.62-6.62-2.62-12.37-6.57-16.68-12.27v34.97ZM170.43,200.26c5.12.1,10.85-.78,15.87-1.86,23.74-5.15,45.69-20.06,55.31-42.85.24-.56,1.31-4.01,1.56-4.02,5.68,15.11,13.98,29.27,25.57,40.57l.39.35,6.78-6.02-.53-.41c-20.02-16.56-30.04-41.94-33.97-67.13-.85,7.96-.98,16.06-2.88,23.87-7.31,30.07-31.08,45.1-61.19,45.79-2.32.05-4.63,0-6.92-.31,0,0-.04,11.79,0,12.01Z"/>
    </clipPath>
  </defs>
  <path class="cls-1" d="M153.28,42.5l-7.96,5.71c-10.91,6.52-26.61,6.45-37.01-1,20.1.46,29.86-22.94,15.73-37.33C112.99-1.36,90.09.41,77.18,7.42c-15.68,8.51-21.89,23.96-17.09,41.25-17.37-3.33-35.15-.54-47.18,13.22-15.41,17.63-14.23,50.46,9.27,60.09,8.01,3.28,15.99,2.16,23.8-1.02-2.59,5.98-5.75,11.73-9.59,17.01-5.04,6.94-11.01,12.3-17.78,17.49-.7.54-12.28,7.86-12.28,7.86-.31.54,2.42,6.23,3.2,6.58.22.1.41.2.66.09,9.17-4.92,17.87-10.89,24.92-18.61,9.96-10.91,26.78-37.16,19.44-52.07-3.73-7.59-16.7-10.23-20.63-1.57,3.94-1.29,7-2.33,10.68.35,6.03,4.38,6.19,12.84-.3,16.94-8.81,5.58-21.67.81-27.88-6.7-12.87-15.58-4.8-40.85,11.71-50.3,13.25-7.59,30.24-6.56,43.7.05-1.1-2.4-2.73-4.51-3.78-6.95-11.33-26.3,12.99-47.3,38.53-42.92,24.61,4.22,19.1,35.92-3.15,33.41-4.04-.45-6.74-4.46-6.32-8.38.09-.86,2.02-4.37.57-4.14-2.71.42-4.66,5.21-4.7,7.67-.17,10.08,13.8,16.65,22,18.87,12.38,3.36,27.32,3.52,38.28-3.88v-9.26ZM153.28,110.67l-2.8,7.93c-3.68,8.47-11.01,14.35-20.67,12.15-10.42-2.37-13.4-13.55-10.05-22.72-9.54,4.54-10.73,18.18-8.31,27.26,4.89,18.35,24.45,26.48,41.82,27.98v-52.6ZM84.5,111.26l3.77-8.42c3.61-6.34,8.72-11.77,14.89-15.68l10.73-5.28c-11.31-.67-21.65-4.32-30.33-11.68-4.62-3.91-5.21-4.65-9.36-8.56l3.27,7.8c6.77,12.73,7.42,27.55,7.03,41.82ZM153.28,64.83c-4.31,5.7-10.06,9.65-16.68,12.27-4.54,1.8-9.4,2.72-13.9,4.62,0,.38,6.53.66,7.46.78,9.74,1.25,17.33,5.72,21.89,14.56l1.23,2.74v-34.97ZM153.42,188.25c-2.29.31-4.6.36-6.92.31-30.11-.7-53.88-15.73-61.19-45.79-1.9-7.81-2.03-15.9-2.88-23.87-3.93,25.18-13.95,50.57-33.97,67.13l-.53.41,6.78,6.02.39-.35c11.59-11.3,19.89-25.46,25.57-40.57.26,0,1.33,3.45,1.56,4.02,9.62,22.79,31.57,37.7,55.31,42.85,5.02,1.09,10.74,1.97,15.87,1.86.04-.21,0-12.01,0-12.01ZM170.57,51.75c10.96,7.4,25.89,7.24,38.28,3.88,8.21-2.23,22.17-8.8,22-18.87-.04-2.46-1.99-7.25-4.7-7.67-1.45-.22.47,3.29.57,4.14.42,3.92-2.28,7.92-6.32,8.38-22.25,2.5-27.75-29.2-3.15-33.41,25.54-4.38,49.85,16.63,38.53,42.92-1.05,2.43-2.68,4.55-3.78,6.95,13.46-6.61,30.45-7.64,43.7-.05,16.51,9.46,24.58,34.72,11.71,50.3-6.2,7.51-19.06,12.28-27.88,6.7-6.48-4.1-6.33-12.56-.3-16.94,3.68-2.67,6.74-1.64,10.68-.35-3.92-8.67-16.89-6.02-20.63,1.57-7.34,14.91,9.49,41.16,19.44,52.07,7.04,7.72,15.74,13.69,24.92,18.61.25.11.43,0,.66-.09.78-.35,3.52-6.04,3.2-6.58,0,0-11.58-7.32-12.28-7.86-6.77-5.19-12.74-10.55-17.78-17.49-3.83-5.28-6.99-11.03-9.59-17.01,7.82,3.18,15.79,4.3,23.8,1.02,23.5-9.63,24.68-42.47,9.27-60.09-12.03-13.76-29.82-16.55-47.18-13.22,4.8-17.29-1.4-32.73-17.09-41.25-12.91-7.01-35.81-8.78-46.85,2.46-14.13,14.38-4.37,37.79,15.73,37.33-10.4,7.45-26.1,7.52-37.01,1l-7.96-5.71v9.26ZM170.57,163.27c17.37-1.5,36.94-9.63,41.82-27.98,2.42-9.08,1.23-22.73-8.31-27.26,3.35,9.18.37,20.35-10.05,22.72-9.65,2.2-16.99-3.68-20.67-12.15l-2.8-7.93v52.6ZM246.38,69.44l3.27-7.8c-4.16,3.91-4.75,4.65-9.36,8.56-8.69,7.36-19.02,11.01-30.33,11.68l10.73,5.28c6.17,3.91,11.28,9.34,14.89,15.68l3.77,8.42c-.39-14.27.26-29.09,7.03-41.82ZM170.57,99.8l1.23-2.74c4.56-8.84,12.14-13.31,21.89-14.56.92-.12,7.45-.4,7.46-.78-4.5-1.9-9.36-2.83-13.9-4.62-6.62-2.62-12.37-6.57-16.68-12.27v34.97ZM170.43,200.26c5.12.1,10.85-.78,15.87-1.86,23.74-5.15,45.69-20.06,55.31-42.85.24-.56,1.31-4.01,1.56-4.02,5.68,15.11,13.98,29.27,25.57,40.57l.39.35,6.78-6.02-.53-.41c-20.02-16.56-30.04-41.94-33.97-67.13-.85,7.96-.98,16.06-2.88,23.87-7.31,30.07-31.08,45.1-61.19,45.79-2.32.05-4.63,0-6.92-.31,0,0-.04,11.79,0,12.01Z"/>
  <g class="cls-2">
    <rect class="cls-1" x="-3.86" y="-5.45" width="331.26" height="211.69"/>
  </g>
</svg>