<?xml version="1.0" encoding="UTF-8"?>
<svg id="logo_guidelines" data-name="logo guidelines" xmlns="http://www.w3.org/2000/svg" xmlns:xlink="http://www.w3.org/1999/xlink" viewBox="0 0 569.09 218.65">
  <defs>
    <style>
      .cls-1 {
        fill: none;
      }

      .cls-2 {
        fill: url(#linear-gradient);
      }

      .cls-3 {
        fill: #2ca3bb;
      }

      .cls-4 {
        fill: #fff;
      }

      .cls-5 {
        clip-path: url(#clippath);
      }
    </style>
    <clipPath id="clippath">
      <path class="cls-1" d="M132.88,42.77l-6.17,4.42c-8.46,5.05-20.62,4.99-28.68-.78,15.57.36,23.14-17.78,12.19-28.92-8.56-8.71-26.3-7.33-36.3-1.9-12.15,6.6-16.96,18.56-13.24,31.96-13.46-2.58-27.24-.42-36.56,10.24-11.94,13.66-11.03,39.1,7.18,46.56,6.21,2.54,12.39,1.67,18.45-.79-2.01,4.63-4.46,9.09-7.43,13.18-3.9,5.38-8.53,9.53-13.77,13.55-.54.42-9.52,6.09-9.52,6.09-.24.42,1.88,4.83,2.48,5.1.17.08.32.16.51.07,7.11-3.81,13.85-8.44,19.31-14.42,7.71-8.45,20.75-28.79,15.07-40.35-2.89-5.88-12.94-7.93-15.98-1.21,3.05-1,5.42-1.8,8.27.27,4.67,3.39,4.79,9.95-.23,13.13-6.83,4.32-16.79.63-21.6-5.19-9.97-12.07-3.72-31.65,9.07-38.98,10.27-5.88,23.43-5.08,33.86.04-.85-1.86-2.11-3.5-2.93-5.38-8.78-20.38,10.06-36.65,29.85-33.26,19.07,3.27,14.8,27.83-2.44,25.89-3.13-.35-5.22-3.45-4.9-6.49.07-.66,1.56-3.38.44-3.21-2.1.32-3.61,4.03-3.64,5.94-.13,7.81,10.69,12.9,17.05,14.62,9.6,2.6,21.17,2.73,29.66-3.01v-7.17ZM132.88,95.59l-2.17,6.14c-2.85,6.56-8.53,11.12-16.01,9.41-8.07-1.84-10.38-10.5-7.79-17.61-7.39,3.52-8.31,14.09-6.44,21.13,3.79,14.22,18.95,20.52,32.41,21.68v-40.76ZM79.59,96.05l2.92-6.53c2.8-4.91,6.76-9.12,11.54-12.15l8.32-4.09c-8.77-.52-16.77-3.35-23.5-9.05-3.58-3.03-4.03-3.61-7.25-6.64l2.54,6.05c5.25,9.86,5.75,21.35,5.45,32.41ZM132.88,60.07c-3.34,4.42-7.79,7.48-12.92,9.51-3.52,1.39-7.28,2.11-10.77,3.58,0,.29,5.06.51,5.78.6,7.55.97,13.43,4.43,16.96,11.28l.95,2.12v-27.1ZM132.99,155.7c-1.78.24-3.56.28-5.36.24-23.33-.54-41.75-12.19-47.41-35.48-1.47-6.05-1.57-12.32-2.23-18.49-3.05,19.51-10.81,39.18-26.32,52.01l-.41.32,5.26,4.66.3-.27c8.98-8.76,15.41-19.73,19.81-31.44.2,0,1.03,2.68,1.21,3.11,7.46,17.66,24.47,29.21,42.86,33.2,3.89.84,8.33,1.53,12.3,1.45.03-.17,0-9.3,0-9.3ZM146.28,49.94c8.49,5.74,20.06,5.61,29.66,3.01,6.36-1.72,17.18-6.82,17.05-14.62-.03-1.91-1.54-5.62-3.64-5.94-1.12-.17.37,2.55.44,3.21.33,3.04-1.77,6.14-4.9,6.49-17.24,1.94-21.51-22.62-2.44-25.89,19.79-3.39,38.63,12.88,29.85,33.26-.81,1.89-2.08,3.52-2.93,5.38,10.43-5.12,23.59-5.92,33.86-.04,12.79,7.33,19.04,26.9,9.07,38.98-4.81,5.82-14.77,9.52-21.6,5.19-5.02-3.18-4.9-9.73-.23-13.13,2.85-2.07,5.22-1.27,8.27-.27-3.04-6.71-13.09-4.66-15.98,1.21-5.69,11.55,7.35,31.89,15.07,40.35,5.46,5.98,12.2,10.61,19.31,14.42.19.08.34,0,.51-.07.61-.27,2.72-4.68,2.48-5.1,0,0-8.97-5.67-9.52-6.09-5.25-4.02-9.87-8.18-13.77-13.55-2.97-4.09-5.42-8.54-7.43-13.18,6.06,2.46,12.24,3.33,18.45.79,18.21-7.46,19.12-32.9,7.18-46.56-9.32-10.67-23.1-12.82-36.56-10.24,3.72-13.4-1.09-25.36-13.24-31.96-10-5.43-27.74-6.81-36.3,1.9-10.95,11.14-3.39,29.28,12.19,28.92-8.06,5.77-20.22,5.83-28.68.78l-6.17-4.42v7.17ZM146.28,136.35c13.46-1.16,28.62-7.46,32.41-21.68,1.87-7.04.95-17.61-6.44-21.13,2.6,7.11.29,15.77-7.79,17.61-7.48,1.7-13.17-2.85-16.01-9.41l-2.17-6.14v40.76ZM205.03,63.64l2.54-6.05c-3.22,3.03-3.68,3.61-7.25,6.64-6.73,5.7-14.74,8.53-23.5,9.05l8.32,4.09c4.78,3.03,8.74,7.24,11.54,12.15l2.92,6.53c-.3-11.06.2-22.54,5.45-32.41ZM146.28,87.17l.95-2.12c3.53-6.85,9.41-10.31,16.96-11.28.71-.09,5.78-.31,5.78-.6-3.48-1.47-7.25-2.19-10.77-3.58-5.13-2.03-9.58-5.09-12.92-9.51v27.1ZM146.17,165.01c3.97.08,8.41-.6,12.3-1.45,18.39-3.99,35.4-15.54,42.86-33.2.18-.44,1.01-3.11,1.21-3.11,4.4,11.71,10.83,22.68,19.81,31.44l.3.27,5.26-4.66-.41-.32c-15.51-12.83-23.28-32.5-26.32-52.01-.66,6.17-.76,12.44-2.23,18.49-5.66,23.3-24.08,34.94-47.41,35.48-1.8.04-3.59,0-5.36-.24,0,0-.03,9.14,0,9.3Z"/>
    </clipPath>
    <linearGradient id="linear-gradient" x1="11.13" y1="87.63" x2="267.8" y2="87.63" gradientUnits="userSpaceOnUse">
      <stop offset="0" stop-color="#253d68"/>
      <stop offset=".4" stop-color="#3b8aad"/>
      <stop offset=".6" stop-color="#45a7dd"/>
      <stop offset="1" stop-color="#8483cb"/>
    </linearGradient>
  </defs>
  <path class="cls-4" d="M284.88,84.53c-.32-1.37.41-1.1.97-1.78,2.32-2.8,3.15-6.94,3.34-10.51.71-12.74-.55-26.14-.02-38.95-.23-2.88-.98-5-4.3-3.47-.38-2.9,2.39-4.31,4.82-4.86,4.94-1.13,10.78-.1,14.05,4.03.44.55,1.52,2.81,2,2.72.26-.05,1.93-2.15,2.43-2.6,5.54-5.04,17.06-6.36,23.51-2.5,7.37,4.41,6.86,11.27,6.96,18.85.15,10.9-.15,21.82,0,32.73.27,1.73,2.48,3.32,3.93,1.81,1.27,1.96-1.24,3.82-2.95,4.46-5.91,2.22-13.59.4-16.73-5.34-5.51-10.09.52-30.48-3.76-42.6-.91-2.57-1.86-4.55-4.92-4.41-6.14.28-6.95,9.67-7.14,14.3-.44,10.38.44,21.04-.1,31.44-.76,2.54-3.02,4.56-5.42,5.57-.55.23-3.27,1.11-3.67,1.11h-13.02ZM500.86,27.04c-.19.3-.8,1.62-.75,1.86.18.85,1.37-.06,1.8-.1,1.75-.2,2.74,2.06,2.95,3.48l.02,39.88c1,14.57,22.34,16.84,30.7,8.01.35-.37,1.68-2.34,1.91-2.39.42-.09,1.63,2.24,2.03,2.74,3.04,3.75,7.58,4.85,12.27,4.39,2.92-.28,6.17-1.42,6.83-4.61l-.58-.38c-1.42,1.02-3.34.03-3.66-1.61-.15-.74-.24-2.44-.29-3.29-.67-12.02.79-24.84,0-36.8-.33-5.05-2.57-10.69-7.44-12.87-3.35-1.5-10.12-1.78-13.19.37-.97.68-2.48,2.73-1.47,3.78,1.91-1.87,3.93.17,4.15,2.3-.36,10.62.57,21.65.02,32.23-.2,3.79-1.06,10.72-4.7,12.74-2.24,1.24-4.64.99-6.16-1.17-4.68-6.68-2.16-28.33-2.75-37.15-.66-9.82-6.48-15.49-16.56-14.15-1.67.22-4.22,1.27-5.16,2.73ZM454.71,96.37c-.19.3-.8,1.62-.75,1.86.18.85,1.37-.06,1.8-.1,1.75-.2,2.74,2.06,2.95,3.48l.02,39.88c1,14.57,22.34,16.84,30.7,8.01.35-.37,1.68-2.34,1.91-2.39.42-.09,1.63,2.24,2.03,2.74,3.04,3.75,7.58,4.85,12.27,4.39,2.92-.28,6.17-1.42,6.83-4.61l-.58-.38c-1.42,1.02-3.34.03-3.66-1.61-.15-.74-.24-2.44-.29-3.29-.67-12.02.79-24.84,0-36.8-.33-5.05-2.57-10.69-7.44-12.87-3.35-1.5-10.12-1.78-13.19.37-.97.68-2.48,2.73-1.47,3.78,1.91-1.87,3.93.17,4.15,2.3-.36,10.62.57,21.65.02,32.23-.2,3.79-1.06,10.72-4.7,12.74-2.24,1.24-4.64.99-6.16-1.17-4.68-6.68-2.16-28.33-2.75-37.15-.66-9.82-6.48-15.49-16.56-14.15-1.67.22-4.22,1.27-5.16,2.73ZM401.59,109.26c-10.46,23.37,4.22,50.77,31.87,44.53,22.63-5.11,26.47-38.35,11.81-53.13-13.1-13.2-36.13-8.27-43.68,8.6ZM431.34,142.36c-3.44,6.15-7.96,5.05-10.76-.88-4.09-8.65-4.05-26.08,0-34.74,1.69-3.63,5.07-7.88,8.93-3.69,6.81,7.4,6.59,30.82,1.84,39.31ZM430.54,79.15c1.45,2.93,4.48,5.04,7.63,5.76,3.44.78,11.28.84,12.96-3.07,1.15-2.69-.73-1.07-1.58-1.13-2.09-.13-2.4-2.59-2.53-4.18-.82-10.71.76-22.48,0-33.22-1.06-15.16-13.39-19.87-26.9-19-9.08.59-19.39,10.48-14.85,19.89,2.13,4.41,7.89,5.21,11.37,1.95,3.35-3.12,3.02-10.52-1.87-11.7-.77-.18-1.63.13-2.16-.46,8.1-9.47,24.72-1.1,14.45,10.63-8.67,9.91-25.78,10.56-23.72,28.01,1.39,11.76,15,16.47,24.05,9.36.99-.78,1.68-1.92,2.48-2.65.12-.11.5-.36.65-.21ZM430.3,70.56c-4.95,4.94-11.05,3.46-12.37-3.64-1.46-7.83,3.68-9.64,8.55-13.8,1.03-.88,2.16-2.36,3.1-3.11.24-.2.32-.45.72-.35v20.91ZM468.53,85.36c.67,0,3.55-.69,4.31-.95,2.67-.9,5.01-2.74,6.03-5.44.42-10.11-.37-20.46.04-30.54.21-5.1.79-10.52,3.88-14.76.36-.49,2.43-2.8,3.06-2.31-1.9,1.93-2.29,4.02-1.45,6.58,2.24,6.82,12.6,6.57,14.24-.6,2.72-11.83-10.61-15.42-18.42-8.86-.58.49-2.64,3.05-2.89,3.09-.47.08-1.66-2.1-2.11-2.62-3.18-3.64-10.12-4.48-14.51-3.03-2.07.68-4.11,2.03-3.77,4.47,2.89-1.38,4.06.57,4.3,3.23-.63,13.07.85,26.93.01,39.91-.17,2.6-1.07,6.76-2.55,8.92-.68,1-2.08,1.45-1.77,2.89h11.59ZM400.03,94.89c-1.81,13.38-13.37,21.12-25.81,22.79-.22,9.23-.63,18.54-.17,27.54.49,3,2.23,4.85,5.31,3.27.24,4.7-5.71,6.05-9.43,6.19-12.41.44-16.45-8.7-17.03-19.54-.79-14.56.62-29.82,0-44.46-.8-2.28-2.95-3.16-5.05-1.84.04-6.99,10.98-6.95,15.74-5.48,6.84,2.12,10,8.66,10.43,15.45.18,2.84.27,5.71.29,8.61,5.35-4.29,6.84-12.44,4.76-19.49-3.72-12.64-20.79-13.5-30.62-8.04-.55.31-.78,1.08-1.69.8-2.73-7.86.37-13.71,6.94-18.01.68-.45,2.78-1.12,2.61-1.93-.03-.12-1.88-.91-2.23-1.12-12.15-7.39-10.12-19.99,1.19-26.91,9.59-5.86,22.83-6.78,33.21-2.49.34.03.82-.28,1.11-.46.46-.29,2.98-2.64,2.55-3.06-3.91.88-7.16-2.7-5.59-6.43,1.76-4.2,7.84-3.05,9.7.53,2.37,4.56-1.49,7.95-4.52,10.79-.06.44,2.39,2.02,2.93,2.5,5.76,5.22,6.6,12.4,1.98,18.72-5.51,7.56-17.11,11.03-26.11,11.16-1.81.03-4.02-.68-5.69-.43-3.32.49-8.19,3.01-9.97,5.91,2.08-.65,4.04-1.55,6.16-2.08,19.37-4.81,42.09,4.43,38.97,27.5ZM375.56,55.13c4.92-4.06,7.86-11.82,5.56-17.97-.83-2.24-2.22-3.74-4.78-3.46-5.24.56-10.16,5.61-11.77,10.46-2.83,8.54,1.59,18.73,10.98,10.98Z"/>
  <g>
    <path class="cls-3" d="M39.85,186.24c-.94-1.27-2.11-2.21-3.49-2.85-1.38-.63-2.83-.95-4.33-.95-1.74,0-3.33.35-4.79,1.06s-2.72,1.66-3.78,2.85-1.88,2.58-2.47,4.15c-.59,1.58-.88,3.22-.88,4.92,0,1.83.29,3.53.88,5.1.59,1.58,1.41,2.94,2.45,4.11,1.04,1.16,2.3,2.08,3.75,2.76,1.46.68,3.07,1.02,4.84,1.02,1.91,0,3.62-.38,5.12-1.13s2.81-1.83,3.93-3.25l2.78,2.34c-1.41,1.88-3.11,3.27-5.1,4.15-1.99.88-4.23,1.32-6.73,1.32-2.24,0-4.33-.41-6.27-1.24-1.94-.82-3.63-1.97-5.06-3.42-1.43-1.46-2.55-3.19-3.36-5.19-.81-2-1.21-4.2-1.21-6.58s.39-4.44,1.17-6.45c.78-2,1.88-3.74,3.29-5.21,1.41-1.47,3.09-2.63,5.03-3.49,1.94-.85,4.08-1.28,6.4-1.28,2.12,0,4.16.38,6.12,1.15,1.96.77,3.6,2.02,4.92,3.75l-3.22,2.34Z"/>
    <path class="cls-3" d="M90.14,199.13c0,1.71-.21,3.33-.64,4.86-.43,1.53-1.1,2.88-2.03,4.04-.93,1.16-2.14,2.09-3.64,2.78-1.5.69-3.33,1.04-5.48,1.04s-3.97-.35-5.48-1.04c-1.5-.69-2.72-1.62-3.64-2.78-.93-1.16-1.6-2.51-2.03-4.04-.43-1.53-.64-3.15-.64-4.86v-19.34h3.71v18.81c0,1.27.13,2.49.4,3.67.27,1.18.71,2.22,1.33,3.14.62.91,1.44,1.64,2.47,2.19,1.03.55,2.33.82,3.89.82s2.85-.27,3.89-.82c1.03-.54,1.85-1.27,2.47-2.19.62-.91,1.06-1.96,1.32-3.14.27-1.18.4-2.4.4-3.67v-18.81h3.71v19.34Z"/>
    <path class="cls-3" d="M115.45,179.79h3.71v27.82h14.31v3.44h-18.02v-31.27Z"/>
    <path class="cls-3" d="M172.11,183.24h-10.33v27.82h-3.71v-27.82h-10.33v-3.44h24.38v3.44Z"/>
    <path class="cls-3" d="M217.59,199.13c0,1.71-.21,3.33-.64,4.86-.43,1.53-1.1,2.88-2.03,4.04-.93,1.16-2.14,2.09-3.64,2.78-1.5.69-3.33,1.04-5.48,1.04s-3.97-.35-5.48-1.04c-1.5-.69-2.72-1.62-3.64-2.78-.93-1.16-1.6-2.51-2.03-4.04-.43-1.53-.64-3.15-.64-4.86v-19.34h3.71v18.81c0,1.27.13,2.49.4,3.67.27,1.18.71,2.22,1.33,3.14.62.91,1.44,1.64,2.47,2.19,1.03.55,2.33.82,3.89.82s2.85-.27,3.89-.82c1.03-.54,1.85-1.27,2.47-2.19.62-.91,1.06-1.96,1.32-3.14.27-1.18.4-2.4.4-3.67v-18.81h3.71v19.34Z"/>
    <path class="cls-3" d="M242.9,179.79h7.99c1.5,0,3,.09,4.48.27,1.49.18,2.82.56,4,1.15,1.18.59,2.13,1.45,2.87,2.58.74,1.13,1.1,2.67,1.1,4.62,0,2.3-.69,4.15-2.08,5.56-1.38,1.41-3.3,2.31-5.74,2.69l8.88,14.4h-4.55l-8.48-14.04h-4.77v14.04h-3.71v-31.27ZM246.61,193.57h3.31c1.03,0,2.1-.03,3.2-.09,1.1-.06,2.12-.25,3.05-.57.93-.32,1.69-.83,2.3-1.52.6-.69.91-1.68.91-2.98,0-1.12-.22-2.02-.66-2.69-.44-.68-1.02-1.2-1.74-1.57-.72-.37-1.53-.61-2.43-.73-.9-.12-1.8-.18-2.72-.18h-5.21v10.33Z"/>
    <path class="cls-3" d="M297.7,179.79h3.49l13.29,31.27h-4.33l-3.18-7.68h-15.63l-3.22,7.68h-4.19l13.78-31.27ZM299.38,184.56h-.09l-6.49,15.37h12.76l-6.18-15.37Z"/>
    <path class="cls-3" d="M336.3,179.79h3.71v27.82h14.31v3.44h-18.02v-31.27Z"/>
    <path class="cls-3" d="M416.14,179.79h3.49l13.29,31.27h-4.33l-3.18-7.68h-15.63l-3.22,7.68h-4.19l13.78-31.27ZM417.82,184.56h-.09l-6.49,15.37h12.76l-6.18-15.37Z"/>
    <path class="cls-3" d="M454.73,179.79h7.99c1.5,0,3,.09,4.48.27,1.49.18,2.82.56,4,1.15,1.18.59,2.13,1.45,2.87,2.58.74,1.13,1.1,2.67,1.1,4.62,0,2.3-.69,4.15-2.08,5.56-1.38,1.41-3.3,2.31-5.74,2.69l8.88,14.4h-4.55l-8.48-14.04h-4.77v14.04h-3.71v-31.27ZM458.44,193.57h3.31c1.03,0,2.1-.03,3.2-.09,1.1-.06,2.12-.25,3.05-.57.93-.32,1.69-.83,2.3-1.52.6-.69.91-1.68.91-2.98,0-1.12-.22-2.02-.66-2.69-.44-.68-1.02-1.2-1.74-1.57-.72-.37-1.53-.61-2.43-.73-.9-.12-1.8-.18-2.72-.18h-5.21v10.33Z"/>
    <path class="cls-3" d="M519.56,183.24h-10.33v27.82h-3.71v-27.82h-10.33v-3.44h24.38v3.44Z"/>
    <path class="cls-3" d="M556.44,185.31c-.62-1-1.44-1.73-2.47-2.19-1.03-.46-2.11-.68-3.22-.68-.82,0-1.63.1-2.43.31-.79.21-1.51.52-2.14.93-.63.41-1.14.96-1.52,1.63-.38.68-.57,1.47-.57,2.38,0,.71.11,1.33.33,1.88.22.55.58,1.04,1.08,1.48.5.44,1.18.85,2.03,1.24.85.38,1.9.77,3.14,1.15,1.21.38,2.38.79,3.51,1.24,1.13.44,2.13,1,3,1.68.87.68,1.56,1.52,2.08,2.54.52,1.02.77,2.29.77,3.82s-.31,2.91-.93,4.06c-.62,1.15-1.43,2.1-2.45,2.85-1.02.75-2.19,1.31-3.51,1.68-1.33.37-2.69.55-4.11.55-.91,0-1.83-.08-2.74-.24-.91-.16-1.79-.41-2.63-.75-.84-.34-1.63-.78-2.36-1.32-.74-.54-1.37-1.21-1.9-2.01l3.18-2.61c.68,1.15,1.62,2.02,2.83,2.61,1.21.59,2.49.88,3.84.88.8,0,1.6-.12,2.41-.35.81-.24,1.54-.58,2.19-1.04.65-.46,1.18-1.02,1.59-1.7.41-.68.62-1.46.62-2.34,0-.97-.16-1.76-.49-2.36-.32-.6-.82-1.13-1.5-1.57-.68-.44-1.53-.84-2.56-1.19-1.03-.35-2.24-.77-3.62-1.24-1.12-.35-2.15-.76-3.09-1.21-.94-.46-1.76-1.02-2.45-1.68-.69-.66-1.24-1.46-1.63-2.38-.4-.93-.6-2.04-.6-3.33,0-1.5.29-2.81.88-3.93.59-1.12,1.38-2.05,2.38-2.8s2.13-1.32,3.4-1.7c1.27-.38,2.59-.57,3.97-.57,1.77,0,3.38.27,4.84.82,1.46.55,2.76,1.49,3.91,2.85l-3.05,2.65Z"/>
  </g>
  <g class="cls-5">
    <rect class="cls-2" x="11.13" y="5.62" width="256.67" height="164.03"/>
  </g>
</svg>