<?xml version="1.0" encoding="UTF-8"?>
<svg xmlns="http://www.w3.org/2000/svg" xmlns:xlink="http://www.w3.org/1999/xlink" viewBox="0 0 729.4 218.65">
  <defs>
    <style>
      .cls-1 {
        fill: none;
      }

      .cls-2 {
        fill: url(#linear-gradient);
      }

      .cls-3 {
        isolation: isolate;
      }

      .cls-4 {
        clip-path: url(#clippath-1);
      }

      .cls-5 {
        fill: #fff;
      }
    </style>
    <clipPath id="clippath-1">
      <path class="cls-1" d="M166.79,51.93l-7.96,5.71c-10.91,6.52-26.61,6.45-37.01-1,20.1.46,29.86-22.94,15.73-37.33-11.05-11.24-33.95-9.46-46.85-2.46-15.68,8.51-21.89,23.96-17.09,41.25-17.37-3.33-35.15-.54-47.18,13.22-15.41,17.63-14.23,50.46,9.27,60.09,8.01,3.28,15.99,2.16,23.8-1.02-2.59,5.98-5.75,11.73-9.59,17.01-5.04,6.94-11.01,12.3-17.78,17.49-.7.54-12.28,7.86-12.28,7.86-.31.54,2.42,6.23,3.2,6.58.22.1.41.2.66.09,9.17-4.92,17.87-10.89,24.92-18.61,9.96-10.91,26.78-37.16,19.44-52.07-3.73-7.59-16.7-10.23-20.63-1.57,3.94-1.29,7-2.33,10.68.35,6.03,4.38,6.19,12.84-.3,16.94-8.81,5.58-21.67.81-27.88-6.7-12.87-15.58-4.8-40.85,11.71-50.3,13.25-7.59,30.24-6.56,43.7.05-1.1-2.4-2.73-4.51-3.78-6.95-11.33-26.3,12.99-47.3,38.53-42.92,24.61,4.22,19.1,35.92-3.15,33.41-4.04-.45-6.74-4.46-6.32-8.38.09-.86,2.02-4.37.57-4.14-2.71.42-4.66,5.21-4.7,7.67-.17,10.08,13.8,16.65,22,18.87,12.38,3.36,27.32,3.52,38.28-3.88v-9.26ZM166.79,120.11l-2.8,7.93c-3.68,8.47-11.01,14.35-20.67,12.15-10.42-2.37-13.4-13.55-10.05-22.72-9.54,4.54-10.73,18.18-8.31,27.26,4.89,18.35,24.45,26.48,41.82,27.98v-52.6ZM98.01,120.69l3.77-8.42c3.61-6.34,8.72-11.77,14.89-15.68l10.73-5.28c-11.31-.67-21.65-4.32-30.33-11.68-4.62-3.91-5.21-4.65-9.36-8.56l3.27,7.8c6.77,12.73,7.42,27.55,7.03,41.82ZM166.79,74.27c-4.31,5.7-10.06,9.65-16.68,12.27-4.54,1.8-9.4,2.72-13.9,4.62,0,.38,6.53.66,7.46.78,9.74,1.25,17.33,5.72,21.89,14.56l1.23,2.74v-34.97ZM166.93,197.68c-2.29.31-4.6.36-6.92.31-30.11-.7-53.88-15.73-61.19-45.79-1.9-7.81-2.03-15.9-2.88-23.87-3.93,25.18-13.95,50.57-33.97,67.13l-.53.41,6.78,6.02.39-.35c11.59-11.3,19.89-25.46,25.57-40.57.26,0,1.33,3.45,1.56,4.02,9.62,22.79,31.57,37.7,55.31,42.85,5.02,1.09,10.74,1.97,15.87,1.86.04-.21,0-12.01,0-12.01ZM184.08,61.19c10.96,7.4,25.89,7.24,38.28,3.88,8.21-2.23,22.17-8.8,22-18.87-.04-2.46-1.99-7.25-4.7-7.67-1.45-.22.47,3.29.57,4.14.42,3.92-2.28,7.92-6.32,8.38-22.25,2.5-27.75-29.2-3.15-33.41,25.54-4.38,49.85,16.63,38.53,42.92-1.05,2.43-2.68,4.55-3.78,6.95,13.46-6.61,30.45-7.64,43.7-.05,16.51,9.46,24.58,34.72,11.71,50.3-6.2,7.51-19.06,12.28-27.88,6.7-6.48-4.1-6.33-12.56-.3-16.94,3.68-2.67,6.74-1.64,10.68-.35-3.92-8.67-16.89-6.02-20.63,1.57-7.34,14.91,9.49,41.16,19.44,52.07,7.04,7.72,15.74,13.69,24.92,18.61.25.11.43,0,.66-.09.78-.35,3.52-6.04,3.2-6.58,0,0-11.58-7.32-12.28-7.86-6.77-5.19-12.74-10.55-17.78-17.49-3.83-5.28-6.99-11.03-9.59-17.01,7.82,3.18,15.79,4.3,23.8,1.02,23.5-9.63,24.68-42.47,9.27-60.09-12.03-13.76-29.82-16.55-47.18-13.22,4.8-17.29-1.4-32.73-17.09-41.25-12.91-7.01-35.81-8.78-46.85,2.46-14.13,14.38-4.37,37.79,15.73,37.33-10.4,7.45-26.1,7.52-37.01,1l-7.96-5.71v9.26ZM184.08,172.71c17.37-1.5,36.94-9.63,41.82-27.98,2.42-9.08,1.23-22.73-8.31-27.26,3.35,9.18.37,20.35-10.05,22.72-9.65,2.2-16.99-3.68-20.67-12.15l-2.8-7.93v52.6ZM259.89,78.87l3.27-7.8c-4.16,3.91-4.75,4.65-9.36,8.56-8.69,7.36-19.02,11.01-30.33,11.68l10.73,5.28c6.17,3.91,11.28,9.34,14.89,15.68l3.77,8.42c-.39-14.27.26-29.09,7.03-41.82ZM184.08,109.23l1.23-2.74c4.56-8.84,12.14-13.31,21.89-14.56.92-.12,7.45-.4,7.46-.78-4.5-1.9-9.36-2.83-13.9-4.62-6.62-2.62-12.37-6.57-16.68-12.27v34.97ZM183.94,209.69c5.12.1,10.85-.78,15.87-1.86,23.74-5.15,45.69-20.06,55.31-42.85.24-.56,1.31-4.01,1.56-4.02,5.68,15.11,13.98,29.27,25.57,40.57l.39.35,6.78-6.02-.53-.41c-20.02-16.56-30.04-41.94-33.97-67.13-.85,7.96-.98,16.06-2.88,23.87-7.31,30.07-31.08,45.1-61.19,45.79-2.32.05-4.63,0-6.92-.31,0,0-.04,11.79,0,12.01Z"/>
    </clipPath>
    <linearGradient id="linear-gradient" x1="9.65" y1="109.83" x2="340.91" y2="109.83" gradientUnits="userSpaceOnUse">
      <stop offset="0" stop-color="#253d68"/>
      <stop offset=".4" stop-color="#3b8aad"/>
      <stop offset=".6" stop-color="#45a7dd"/>
      <stop offset="1" stop-color="#8483cb"/>
    </linearGradient>
  </defs>
  <g class="cls-3">
    <g id="logo_guidelines" data-name="logo guidelines">
      <path class="cls-5" d="M362.95,105.82c-.41-1.77.53-1.42,1.25-2.3,2.99-3.62,4.06-8.96,4.32-13.57.91-16.45-.71-33.74-.02-50.27-.3-3.71-1.27-6.45-5.54-4.48-.5-3.74,3.08-5.56,6.21-6.27,6.38-1.46,13.91-.13,18.14,5.2.57.71,1.96,3.63,2.59,3.52.33-.06,2.5-2.78,3.13-3.36,7.15-6.51,22.02-8.2,30.34-3.22,9.51,5.69,8.85,14.54,8.98,24.32.19,14.07-.19,28.16,0,42.24.35,2.24,3.2,4.28,5.07,2.34,1.64,2.53-1.6,4.93-3.8,5.75-7.63,2.86-17.54.51-21.59-6.89-7.12-13.02.67-39.33-4.85-54.97-1.17-3.32-2.41-5.87-6.35-5.69-7.92.36-8.97,12.49-9.22,18.46-.57,13.39.57,27.15-.12,40.58-.98,3.28-3.89,5.89-7,7.19-.71.3-4.22,1.43-4.74,1.43h-16.81ZM641.69,31.63c-.25.39-1.03,2.09-.96,2.4.24,1.1,1.77-.07,2.33-.13,2.26-.25,3.54,2.66,3.8,4.5l.03,51.47c1.28,18.81,28.84,21.73,39.63,10.34.46-.48,2.17-3.02,2.47-3.09.54-.12,2.1,2.9,2.62,3.54,3.92,4.84,9.78,6.26,15.83,5.67,3.77-.36,7.97-1.83,8.81-5.95l-.74-.48c-1.84,1.32-4.3.04-4.72-2.07-.19-.96-.31-3.14-.38-4.25-.87-15.52,1.02-32.05,0-47.5-.42-6.52-3.32-13.8-9.61-16.6-4.33-1.93-13.06-2.3-17.03.48-1.25.88-3.2,3.52-1.9,4.88,2.47-2.42,5.07.22,5.36,2.97-.46,13.71.74,27.94.03,41.59-.25,4.89-1.36,13.84-6.06,16.45-2.89,1.61-5.99,1.28-7.94-1.51-6.04-8.62-2.79-36.56-3.55-47.94-.85-12.68-8.36-19.99-21.37-18.26-2.15.29-5.44,1.64-6.65,3.52ZM582.13,121.1c-.25.39-1.03,2.09-.96,2.4.24,1.1,1.77-.07,2.33-.13,2.26-.25,3.54,2.66,3.8,4.5l.03,51.47c1.28,18.81,28.84,21.73,39.63,10.34.46-.48,2.17-3.02,2.47-3.09.54-.12,2.1,2.9,2.62,3.54,3.92,4.84,9.78,6.26,15.83,5.67,3.77-.36,7.97-1.83,8.81-5.95l-.74-.48c-1.84,1.32-4.3.04-4.72-2.07-.19-.96-.31-3.14-.38-4.25-.87-15.52,1.02-32.05,0-47.5-.42-6.52-3.32-13.8-9.61-16.6-4.33-1.93-13.06-2.3-17.03.48-1.25.88-3.2,3.52-1.9,4.88,2.47-2.42,5.07.22,5.36,2.97-.46,13.71.74,27.94.03,41.59-.25,4.89-1.36,13.84-6.06,16.45-2.89,1.61-5.99,1.28-7.94-1.51-6.04-8.62-2.79-36.56-3.55-47.94-.85-12.68-8.36-19.99-21.37-18.26-2.15.29-5.44,1.64-6.65,3.52ZM513.57,137.74c-13.5,30.16,5.45,65.53,41.13,57.47,29.21-6.6,34.17-49.49,15.25-68.56-16.91-17.04-46.63-10.67-56.38,11.09ZM551.97,180.46c-4.44,7.93-10.27,6.51-13.89-1.13-5.28-11.17-5.22-33.65,0-44.83,2.18-4.68,6.55-10.17,11.52-4.76,8.78,9.55,8.51,39.78,2.38,50.73ZM550.94,98.89c1.87,3.78,5.78,6.5,9.85,7.43,4.44,1.01,14.56,1.09,16.72-3.96,1.49-3.47-.94-1.38-2.04-1.45-2.7-.17-3.1-3.34-3.26-5.4-1.06-13.82.98-29.01,0-42.87-1.37-19.57-17.28-25.64-34.72-24.51-11.72.76-25.03,13.52-19.17,25.67,2.74,5.7,10.18,6.73,14.68,2.52,4.32-4.03,3.9-13.58-2.42-15.1-.99-.24-2.1.17-2.79-.6,10.45-12.22,31.9-1.42,18.65,13.73-11.19,12.79-33.27,13.63-30.61,36.15,1.8,15.18,19.36,21.25,31.04,12.08,1.27-1,2.16-2.48,3.2-3.42.16-.14.64-.46.84-.27ZM550.63,87.8c-6.39,6.37-14.26,4.46-15.96-4.7-1.88-10.11,4.75-12.44,11.03-17.81,1.33-1.13,2.78-3.04,4-4.02.31-.25.41-.58.93-.46v26.98ZM599.97,106.9c.86,0,4.58-.89,5.56-1.22,3.45-1.16,6.47-3.54,7.78-7.02.54-13.05-.48-26.4.06-39.41.27-6.58,1.02-13.58,5-19.05.46-.64,3.14-3.61,3.95-2.98-2.45,2.49-2.95,5.19-1.87,8.49,2.9,8.8,16.26,8.47,18.38-.77,3.51-15.27-13.69-19.9-23.77-11.43-.75.63-3.4,3.93-3.74,3.99-.61.11-2.15-2.72-2.72-3.38-4.11-4.7-13.06-5.78-18.73-3.91-2.67.88-5.3,2.62-4.87,5.77,3.73-1.78,5.24.73,5.54,4.17-.81,16.86,1.09,34.76.02,51.5-.22,3.36-1.38,8.73-3.29,11.51-.88,1.29-2.68,1.87-2.28,3.74h14.96ZM511.57,119.2c-2.34,17.27-17.25,27.26-33.31,29.41-.28,11.92-.82,23.93-.21,35.55.63,3.87,2.87,6.26,6.86,4.22.31,6.06-7.37,7.81-12.17,7.98-16.02.57-21.23-11.23-21.98-25.22-1.02-18.79.81-38.49,0-57.37-1.03-2.95-3.8-4.08-6.52-2.38.05-9.02,14.17-8.97,20.32-7.07,8.83,2.74,12.91,11.18,13.47,19.94.23,3.66.35,7.37.38,11.11,6.91-5.53,8.83-16.05,6.15-25.16-4.8-16.31-26.83-17.42-39.52-10.37-.71.4-1,1.39-2.18,1.04-3.52-10.15.48-17.69,8.95-23.25.88-.57,3.59-1.44,3.37-2.49-.03-.16-2.43-1.18-2.87-1.45-15.68-9.54-13.06-25.8,1.54-34.72,12.38-7.57,29.46-8.74,42.85-3.21.43.04,1.06-.36,1.44-.6.59-.38,3.85-3.4,3.29-3.95-5.05,1.14-9.23-3.48-7.21-8.3,2.27-5.42,10.11-3.93,12.51.68,3.06,5.89-1.92,10.26-5.83,13.93-.08.57,3.08,2.6,3.78,3.23,7.43,6.74,8.51,16,2.56,24.16-7.12,9.75-22.08,14.24-33.7,14.41-2.34.03-5.18-.88-7.34-.56-4.29.63-10.56,3.88-12.87,7.63,2.68-.84,5.21-2,7.95-2.68,24.99-6.2,54.32,5.72,50.29,35.49ZM479.99,67.88c6.35-5.25,10.14-15.26,7.18-23.2-1.08-2.89-2.86-4.82-6.17-4.47-6.77.73-13.11,7.25-15.18,13.5-3.65,11.02,2.05,24.17,14.17,14.17Z"/>
      <g class="cls-4">
        <rect class="cls-2" x="9.65" y="3.98" width="331.26" height="211.69"/>
      </g>
    </g>
  </g>
</svg>